<?xml version="1.0" encoding="UTF-8" standalone="no"?>
<!DOCTYPE svg PUBLIC "-//W3C//DTD SVG 1.1//EN"
 "http://www.w3.org/Graphics/SVG/1.1/DTD/svg11.dtd">
<!-- Generated by graphviz version 2.40.1 (20161225.0304)
 -->
<!-- Title: dependencies Pages: 1 -->
<svg width="4809pt" height="349pt"
 viewBox="0.00 0.00 4809.00 349.00" xmlns="http://www.w3.org/2000/svg" xmlns:xlink="http://www.w3.org/1999/xlink">
<g id="graph0" class="graph" transform="scale(1 1) rotate(0) translate(4 345)">
<title>dependencies</title>
<polygon fill="#ffffff" stroke="transparent" points="-4,4 -4,-345 4805,-345 4805,4 -4,4"/>
<text text-anchor="start" x="2379.5091" y="-42.4" font-family="sans-serif" font-weight="bold" font-size="14.00" fill="#000000">Legend</text>
<polygon fill="#ffffb3" stroke="transparent" points="2166.5,-10 2166.5,-30 2186.5,-30 2186.5,-10 2166.5,-10"/>
<text text-anchor="start" x="2190.129" y="-15.4" font-family="sans-serif" font-size="14.00" fill="#000000"> &#160;Declarations</text>
<polygon fill="#8dd3c7" stroke="transparent" points="2279.5,-10 2279.5,-30 2299.5,-30 2299.5,-10 2279.5,-10"/>
<text text-anchor="start" x="2303.2251" y="-15.4" font-family="sans-serif" font-size="14.00" fill="#000000"> &#160;Module</text>
<polygon fill="#80b1d3" stroke="transparent" points="2365.5,-10 2365.5,-30 2385.5,-30 2385.5,-10 2365.5,-10"/>
<text text-anchor="start" x="2389.2812" y="-15.4" font-family="sans-serif" font-size="14.00" fill="#000000"> &#160;Bootstrap</text>
<polygon fill="#fdb462" stroke="transparent" points="2462.5,-10 2462.5,-30 2482.5,-30 2482.5,-10 2462.5,-10"/>
<text text-anchor="start" x="2486.1732" y="-15.4" font-family="sans-serif" font-size="14.00" fill="#000000"> &#160;Providers</text>
<polygon fill="#fb8072" stroke="transparent" points="2558.5,-10 2558.5,-30 2578.5,-30 2578.5,-10 2558.5,-10"/>
<text text-anchor="start" x="2582.2258" y="-15.4" font-family="sans-serif" font-size="14.00" fill="#000000"> &#160;Exports</text>
<g id="clust1" class="cluster">
<title>cluster_WickeyAppStoreModule</title>
<polygon fill="none" stroke="#000000" stroke-dasharray="1,5" points="8,-70 8,-333 4793,-333 4793,-70 8,-70"/>
</g>
<g id="clust2" class="cluster">
<title>cluster_WickeyAppStoreModule_declarations</title>
<polygon fill="none" stroke="#000000" points="1052,-143 1052,-195 4785,-195 4785,-143 1052,-143"/>
</g>
<g id="clust17" class="cluster">
<title>cluster_WickeyAppStoreModule_CustomValidatorDirective_providers</title>
<polygon fill="none" stroke="#000000" points="1723,-78 1723,-130 2395,-130 2395,-78 1723,-78"/>
</g>
<g id="clust23" class="cluster">
<title>cluster_WickeyAppStoreModule_imports</title>
<polygon fill="none" stroke="#000000" points="914,-143 914,-195 1044,-195 1044,-143 914,-143"/>
</g>
<g id="clust24" class="cluster">
<title>cluster_WickeyAppStoreModule_exports</title>
<polygon fill="none" stroke="#000000" points="480,-273 480,-325 4282,-325 4282,-273 480,-273"/>
</g>
<g id="clust26" class="cluster">
<title>cluster_WickeyAppStoreModule_providers</title>
<polygon fill="none" stroke="#000000" points="16,-143 16,-195 906,-195 906,-143 16,-143"/>
</g>
<!-- WasSpinnerComponent -->
<g id="node1" class="node">
<title>WasSpinnerComponent</title>
<polygon fill="#ffffb3" stroke="#000000" points="4776.7548,-187 4627.2452,-187 4627.2452,-151 4776.7548,-151 4776.7548,-187"/>
<text text-anchor="middle" x="4702" y="-164.8" font-family="Times,serif" font-size="14.00" fill="#000000">WasSpinnerComponent</text>
</g>
<!-- WickeyAppStoreModule -->
<g id="node21" class="node">
<title>WickeyAppStoreModule</title>
<polygon fill="#8dd3c7" stroke="#000000" points="2390.2394,-252 2387.2394,-256 2366.2394,-256 2363.2394,-252 2233.7606,-252 2233.7606,-216 2390.2394,-216 2390.2394,-252"/>
<text text-anchor="middle" x="2312" y="-229.8" font-family="Times,serif" font-size="14.00" fill="#000000">WickeyAppStoreModule</text>
</g>
<!-- WasSpinnerComponent&#45;&gt;WickeyAppStoreModule -->
<g id="edge1" class="edge">
<title>WasSpinnerComponent&#45;&gt;WickeyAppStoreModule</title>
<path fill="none" stroke="#000000" d="M4702,-187.308C4702,-207.1455 4702,-236 4702,-236 4702,-236 2400.4995,-236 2400.4995,-236"/>
<polygon fill="#000000" stroke="#000000" points="2400.4995,-232.5001 2390.4995,-236 2400.4994,-239.5001 2400.4995,-232.5001"/>
</g>
<!-- WickeyAppStoreComponent -->
<g id="node2" class="node">
<title>WickeyAppStoreComponent</title>
<polygon fill="#ffffb3" stroke="#000000" points="4609.0224,-187 4430.9776,-187 4430.9776,-151 4609.0224,-151 4609.0224,-187"/>
<text text-anchor="middle" x="4520" y="-164.8" font-family="Times,serif" font-size="14.00" fill="#000000">WickeyAppStoreComponent</text>
</g>
<!-- WickeyAppStoreComponent&#45;&gt;WickeyAppStoreModule -->
<g id="edge2" class="edge">
<title>WickeyAppStoreComponent&#45;&gt;WickeyAppStoreModule</title>
<path fill="none" stroke="#000000" d="M4520,-187.1061C4520,-206.3391 4520,-234 4520,-234 4520,-234 2400.2593,-234 2400.2593,-234"/>
<polygon fill="#000000" stroke="#000000" points="2400.2593,-230.5001 2390.2593,-234 2400.2593,-237.5001 2400.2593,-230.5001"/>
</g>
<!-- DisplayAppsComponent -->
<g id="node3" class="node">
<title>DisplayAppsComponent</title>
<polygon fill="#ffffb3" stroke="#000000" points="4413.4312,-187 4258.5688,-187 4258.5688,-151 4413.4312,-151 4413.4312,-187"/>
<text text-anchor="middle" x="4336" y="-164.8" font-family="Times,serif" font-size="14.00" fill="#000000">DisplayAppsComponent</text>
</g>
<!-- DisplayAppsComponent&#45;&gt;WickeyAppStoreModule -->
<g id="edge3" class="edge">
<title>DisplayAppsComponent&#45;&gt;WickeyAppStoreModule</title>
<path fill="none" stroke="#000000" d="M4266.206,-187.1686C4266.206,-206.0898 4266.206,-233 4266.206,-233 4266.206,-233 2400.4193,-233 2400.4193,-233"/>
<polygon fill="#000000" stroke="#000000" points="2400.4193,-229.5001 2390.4193,-233 2400.4192,-236.5001 2400.4193,-229.5001"/>
</g>
<!-- AppDetailPageComponent -->
<g id="node4" class="node">
<title>AppDetailPageComponent</title>
<polygon fill="#ffffb3" stroke="#000000" points="4240.3585,-187 4073.6415,-187 4073.6415,-151 4240.3585,-151 4240.3585,-187"/>
<text text-anchor="middle" x="4157" y="-164.8" font-family="Times,serif" font-size="14.00" fill="#000000">AppDetailPageComponent</text>
</g>
<!-- AppDetailPageComponent&#45;&gt;WickeyAppStoreModule -->
<g id="edge4" class="edge">
<title>AppDetailPageComponent&#45;&gt;WickeyAppStoreModule</title>
<path fill="none" stroke="#000000" d="M4087.7909,-187.2667C4087.7909,-205.5552 4087.7909,-231 4087.7909,-231 4087.7909,-231 2400.3068,-231 2400.3068,-231"/>
<polygon fill="#000000" stroke="#000000" points="2400.3068,-227.5001 2390.3068,-231 2400.3067,-234.5001 2400.3068,-227.5001"/>
</g>
<!-- AppGroupHorizontalComponent -->
<g id="node5" class="node">
<title>AppGroupHorizontalComponent</title>
<polygon fill="#ffffb3" stroke="#000000" points="4055.5744,-187 3854.4256,-187 3854.4256,-151 4055.5744,-151 4055.5744,-187"/>
<text text-anchor="middle" x="3955" y="-164.8" font-family="Times,serif" font-size="14.00" fill="#000000">AppGroupHorizontalComponent</text>
</g>
<!-- AppGroupHorizontalComponent&#45;&gt;WickeyAppStoreModule -->
<g id="edge5" class="edge">
<title>AppGroupHorizontalComponent&#45;&gt;WickeyAppStoreModule</title>
<path fill="none" stroke="#000000" d="M3878.214,-187.302C3878.214,-205.2699 3878.214,-230 3878.214,-230 3878.214,-230 2400.4732,-230 2400.4732,-230"/>
<polygon fill="#000000" stroke="#000000" points="2400.4732,-226.5001 2390.4732,-230 2400.4732,-233.5001 2400.4732,-226.5001"/>
</g>
<!-- AppGroupVerticalComponent -->
<g id="node6" class="node">
<title>AppGroupVerticalComponent</title>
<polygon fill="#ffffb3" stroke="#000000" points="3836.2892,-187 3649.7108,-187 3649.7108,-151 3836.2892,-151 3836.2892,-187"/>
<text text-anchor="middle" x="3743" y="-164.8" font-family="Times,serif" font-size="14.00" fill="#000000">AppGroupVerticalComponent</text>
</g>
<!-- AppGroupVerticalComponent&#45;&gt;WickeyAppStoreModule -->
<g id="edge6" class="edge">
<title>AppGroupVerticalComponent&#45;&gt;WickeyAppStoreModule</title>
<path fill="none" stroke="#000000" d="M3688.0174,-187.0225C3688.0174,-204.3734 3688.0174,-228 3688.0174,-228 3688.0174,-228 2400.4224,-228 2400.4224,-228"/>
<polygon fill="#000000" stroke="#000000" points="2400.4224,-224.5001 2390.4224,-228 2400.4223,-231.5001 2400.4224,-224.5001"/>
</g>
<!-- DisplayAppMiniComponent -->
<g id="node7" class="node">
<title>DisplayAppMiniComponent</title>
<polygon fill="#ffffb3" stroke="#000000" points="3632.2119,-187 3455.7881,-187 3455.7881,-151 3632.2119,-151 3632.2119,-187"/>
<text text-anchor="middle" x="3544" y="-164.8" font-family="Times,serif" font-size="14.00" fill="#000000">DisplayAppMiniComponent</text>
</g>
<!-- DisplayAppMiniComponent&#45;&gt;WickeyAppStoreModule -->
<g id="edge7" class="edge">
<title>DisplayAppMiniComponent&#45;&gt;WickeyAppStoreModule</title>
<path fill="none" stroke="#000000" d="M3497.0907,-187.0352C3497.0907,-203.7344 3497.0907,-226 3497.0907,-226 3497.0907,-226 2400.6749,-226 2400.6749,-226"/>
<polygon fill="#000000" stroke="#000000" points="2400.6749,-222.5001 2390.6749,-226 2400.6749,-229.5001 2400.6749,-222.5001"/>
</g>
<!-- DisplayAppFeaturedComponent -->
<g id="node8" class="node">
<title>DisplayAppFeaturedComponent</title>
<polygon fill="#ffffb3" stroke="#000000" points="3437.9636,-187 3240.0364,-187 3240.0364,-151 3437.9636,-151 3437.9636,-187"/>
<text text-anchor="middle" x="3339" y="-164.8" font-family="Times,serif" font-size="14.00" fill="#000000">DisplayAppFeaturedComponent</text>
</g>
<!-- DisplayAppFeaturedComponent&#45;&gt;WickeyAppStoreModule -->
<g id="edge8" class="edge">
<title>DisplayAppFeaturedComponent&#45;&gt;WickeyAppStoreModule</title>
<path fill="none" stroke="#000000" d="M3277.9564,-187.027C3277.9564,-203.3976 3277.9564,-225 3277.9564,-225 3277.9564,-225 2400.6387,-225 2400.6387,-225"/>
<polygon fill="#000000" stroke="#000000" points="2400.6387,-221.5001 2390.6387,-225 2400.6387,-228.5001 2400.6387,-221.5001"/>
</g>
<!-- PopoverBaseComponent -->
<g id="node9" class="node">
<title>PopoverBaseComponent</title>
<polygon fill="#ffffb3" stroke="#000000" points="3221.7007,-187 3066.2993,-187 3066.2993,-151 3221.7007,-151 3221.7007,-187"/>
<text text-anchor="middle" x="3144" y="-164.8" font-family="Times,serif" font-size="14.00" fill="#000000">PopoverBaseComponent</text>
</g>
<!-- PopoverBaseComponent&#45;&gt;WickeyAppStoreModule -->
<g id="edge9" class="edge">
<title>PopoverBaseComponent&#45;&gt;WickeyAppStoreModule</title>
<path fill="none" stroke="#000000" d="M3087.1278,-187.2819C3087.1278,-202.9478 3087.1278,-223 3087.1278,-223 3087.1278,-223 2400.589,-223 2400.589,-223"/>
<polygon fill="#000000" stroke="#000000" points="2400.5891,-219.5001 2390.589,-223 2400.589,-226.5001 2400.5891,-219.5001"/>
</g>
<!-- PopoverAccountInfoComponent -->
<g id="node10" class="node">
<title>PopoverAccountInfoComponent</title>
<polygon fill="#ffffb3" stroke="#000000" points="3048.238,-187 2849.762,-187 2849.762,-151 3048.238,-151 3048.238,-187"/>
<text text-anchor="middle" x="2949" y="-164.8" font-family="Times,serif" font-size="14.00" fill="#000000">PopoverAccountInfoComponent</text>
</g>
<!-- PopoverAccountInfoComponent&#45;&gt;WickeyAppStoreModule -->
<g id="edge10" class="edge">
<title>PopoverAccountInfoComponent&#45;&gt;WickeyAppStoreModule</title>
<path fill="none" stroke="#000000" d="M2879.6815,-187.1871C2879.6815,-202.1824 2879.6815,-221 2879.6815,-221 2879.6815,-221 2400.3377,-221 2400.3377,-221"/>
<polygon fill="#000000" stroke="#000000" points="2400.3377,-217.5001 2390.3377,-221 2400.3376,-224.5001 2400.3377,-217.5001"/>
</g>
<!-- PopoverLoginComponent -->
<g id="node11" class="node">
<title>PopoverLoginComponent</title>
<polygon fill="#ffffb3" stroke="#000000" points="2831.934,-187 2670.066,-187 2670.066,-151 2831.934,-151 2831.934,-187"/>
<text text-anchor="middle" x="2751" y="-164.8" font-family="Times,serif" font-size="14.00" fill="#000000">PopoverLoginComponent</text>
</g>
<!-- PopoverLoginComponent&#45;&gt;WickeyAppStoreModule -->
<g id="edge11" class="edge">
<title>PopoverLoginComponent&#45;&gt;WickeyAppStoreModule</title>
<path fill="none" stroke="#000000" d="M2680.3168,-187.1243C2680.3168,-201.7832 2680.3168,-220 2680.3168,-220 2680.3168,-220 2400.5614,-220 2400.5614,-220"/>
<polygon fill="#000000" stroke="#000000" points="2400.5615,-216.5001 2390.5614,-220 2400.5614,-223.5001 2400.5615,-216.5001"/>
</g>
<!-- PopoverReviewComponent -->
<g id="node12" class="node">
<title>PopoverReviewComponent</title>
<polygon fill="#ffffb3" stroke="#000000" points="2652.2534,-187 2481.7466,-187 2481.7466,-151 2652.2534,-151 2652.2534,-187"/>
<text text-anchor="middle" x="2567" y="-164.8" font-family="Times,serif" font-size="14.00" fill="#000000">PopoverReviewComponent</text>
</g>
<!-- PopoverReviewComponent&#45;&gt;WickeyAppStoreModule -->
<g id="edge12" class="edge">
<title>PopoverReviewComponent&#45;&gt;WickeyAppStoreModule</title>
<path fill="none" stroke="#000000" d="M2497.8712,-187.2458C2497.8712,-201.1772 2497.8712,-218 2497.8712,-218 2497.8712,-218 2400.2874,-218 2400.2874,-218"/>
<polygon fill="#000000" stroke="#000000" points="2400.2874,-214.5001 2390.2874,-218 2400.2874,-221.5001 2400.2874,-214.5001"/>
</g>
<!-- WASAlertComponent -->
<g id="node13" class="node">
<title>WASAlertComponent</title>
<polygon fill="#ffffb3" stroke="#000000" points="2463.6993,-187 2322.3007,-187 2322.3007,-151 2463.6993,-151 2463.6993,-187"/>
<text text-anchor="middle" x="2393" y="-164.8" font-family="Times,serif" font-size="14.00" fill="#000000">WASAlertComponent</text>
</g>
<!-- WASAlertComponent&#45;&gt;WickeyAppStoreModule -->
<g id="edge13" class="edge">
<title>WASAlertComponent&#45;&gt;WickeyAppStoreModule</title>
<path fill="none" stroke="#000000" d="M2356.385,-187.1061C2356.385,-187.1061 2356.385,-205.991 2356.385,-205.991"/>
<polygon fill="#000000" stroke="#000000" points="2352.8851,-205.9909 2356.385,-215.991 2359.8851,-205.991 2352.8851,-205.9909"/>
</g>
<!-- PopoverUpComponent -->
<g id="node14" class="node">
<title>PopoverUpComponent</title>
<polygon fill="#ffffb3" stroke="#000000" points="2304.5968,-187 2159.4032,-187 2159.4032,-151 2304.5968,-151 2304.5968,-187"/>
<text text-anchor="middle" x="2232" y="-164.8" font-family="Times,serif" font-size="14.00" fill="#000000">PopoverUpComponent</text>
</g>
<!-- PopoverUpComponent&#45;&gt;WickeyAppStoreModule -->
<g id="edge14" class="edge">
<title>PopoverUpComponent&#45;&gt;WickeyAppStoreModule</title>
<path fill="none" stroke="#000000" d="M2269.0894,-187.1061C2269.0894,-187.1061 2269.0894,-205.991 2269.0894,-205.991"/>
<polygon fill="#000000" stroke="#000000" points="2265.5895,-205.9909 2269.0894,-215.991 2272.5895,-205.991 2265.5895,-205.9909"/>
</g>
<!-- CustomValidatorDirective -->
<g id="node15" class="node">
<title>CustomValidatorDirective</title>
<polygon fill="#ffffb3" stroke="#000000" points="2141.0141,-187 1976.9859,-187 1976.9859,-151 2141.0141,-151 2141.0141,-187"/>
<text text-anchor="middle" x="2059" y="-164.8" font-family="Times,serif" font-size="14.00" fill="#000000">CustomValidatorDirective</text>
</g>
<!-- CustomValidatorDirective&#45;&gt;WickeyAppStoreModule -->
<g id="edge15" class="edge">
<title>CustomValidatorDirective&#45;&gt;WickeyAppStoreModule</title>
<path fill="none" stroke="#000000" d="M2134.895,-187.2458C2134.895,-201.1772 2134.895,-218 2134.895,-218 2134.895,-218 2223.5457,-218 2223.5457,-218"/>
<polygon fill="#000000" stroke="#000000" points="2223.5458,-221.5001 2233.5457,-218 2223.5457,-214.5001 2223.5458,-221.5001"/>
</g>
<!-- DisplayAppFullwidthComponent -->
<g id="node16" class="node">
<title>DisplayAppFullwidthComponent</title>
<polygon fill="#ffffb3" stroke="#000000" points="1958.9381,-187 1755.0619,-187 1755.0619,-151 1958.9381,-151 1958.9381,-187"/>
<text text-anchor="middle" x="1857" y="-164.8" font-family="Times,serif" font-size="14.00" fill="#000000">DisplayAppFullwidthComponent</text>
</g>
<!-- DisplayAppFullwidthComponent&#45;&gt;WickeyAppStoreModule -->
<g id="edge17" class="edge">
<title>DisplayAppFullwidthComponent&#45;&gt;WickeyAppStoreModule</title>
<path fill="none" stroke="#000000" d="M1947.2961,-187.1243C1947.2961,-201.7832 1947.2961,-220 1947.2961,-220 1947.2961,-220 2223.3137,-220 2223.3137,-220"/>
<polygon fill="#000000" stroke="#000000" points="2223.3137,-223.5001 2233.3137,-220 2223.3137,-216.5001 2223.3137,-223.5001"/>
</g>
<!-- ReviewsComponent -->
<g id="node17" class="node">
<title>ReviewsComponent</title>
<polygon fill="#ffffb3" stroke="#000000" points="1737.5408,-187 1608.4592,-187 1608.4592,-151 1737.5408,-151 1737.5408,-187"/>
<text text-anchor="middle" x="1673" y="-164.8" font-family="Times,serif" font-size="14.00" fill="#000000">ReviewsComponent</text>
</g>
<!-- ReviewsComponent&#45;&gt;WickeyAppStoreModule -->
<g id="edge18" class="edge">
<title>ReviewsComponent&#45;&gt;WickeyAppStoreModule</title>
<path fill="none" stroke="#000000" d="M1673,-187.1871C1673,-202.1824 1673,-221 1673,-221 1673,-221 2223.6461,-221 2223.6461,-221"/>
<polygon fill="#000000" stroke="#000000" points="2223.6461,-224.5001 2233.6461,-221 2223.646,-217.5001 2223.6461,-224.5001"/>
</g>
<!-- DisplayAppReviewComponent -->
<g id="node18" class="node">
<title>DisplayAppReviewComponent</title>
<polygon fill="#ffffb3" stroke="#000000" points="1589.7492,-187 1398.2508,-187 1398.2508,-151 1589.7492,-151 1589.7492,-187"/>
<text text-anchor="middle" x="1494" y="-164.8" font-family="Times,serif" font-size="14.00" fill="#000000">DisplayAppReviewComponent</text>
</g>
<!-- DisplayAppReviewComponent&#45;&gt;WickeyAppStoreModule -->
<g id="edge19" class="edge">
<title>DisplayAppReviewComponent&#45;&gt;WickeyAppStoreModule</title>
<path fill="none" stroke="#000000" d="M1476.9978,-187.2819C1476.9978,-202.9478 1476.9978,-223 1476.9978,-223 1476.9978,-223 2223.445,-223 2223.445,-223"/>
<polygon fill="#000000" stroke="#000000" points="2223.4451,-226.5001 2233.445,-223 2223.445,-219.5001 2223.4451,-226.5001"/>
</g>
<!-- AppGroupReviewsComponent -->
<g id="node19" class="node">
<title>AppGroupReviewsComponent</title>
<polygon fill="#ffffb3" stroke="#000000" points="1379.9143,-187 1190.0857,-187 1190.0857,-151 1379.9143,-151 1379.9143,-187"/>
<text text-anchor="middle" x="1285" y="-164.8" font-family="Times,serif" font-size="14.00" fill="#000000">AppGroupReviewsComponent</text>
</g>
<!-- AppGroupReviewsComponent&#45;&gt;WickeyAppStoreModule -->
<g id="edge20" class="edge">
<title>AppGroupReviewsComponent&#45;&gt;WickeyAppStoreModule</title>
<path fill="none" stroke="#000000" d="M1288.119,-187.027C1288.119,-203.3976 1288.119,-225 1288.119,-225 1288.119,-225 2223.3579,-225 2223.3579,-225"/>
<polygon fill="#000000" stroke="#000000" points="2223.3579,-228.5001 2233.3579,-225 2223.3578,-221.5001 2223.3579,-228.5001"/>
</g>
<!-- GetCategoryPipe -->
<g id="node20" class="node">
<title>GetCategoryPipe</title>
<polygon fill="#ffffb3" stroke="#000000" points="1172.4174,-187 1059.5826,-187 1059.5826,-151 1172.4174,-151 1172.4174,-187"/>
<text text-anchor="middle" x="1116" y="-164.8" font-family="Times,serif" font-size="14.00" fill="#000000">GetCategoryPipe</text>
</g>
<!-- GetCategoryPipe&#45;&gt;WickeyAppStoreModule -->
<g id="edge21" class="edge">
<title>GetCategoryPipe&#45;&gt;WickeyAppStoreModule</title>
<path fill="none" stroke="#000000" d="M1134.7361,-187.0352C1134.7361,-203.7344 1134.7361,-226 1134.7361,-226 1134.7361,-226 2223.3871,-226 2223.3871,-226"/>
<polygon fill="#000000" stroke="#000000" points="2223.3871,-229.5001 2233.3871,-226 2223.3871,-222.5001 2223.3871,-229.5001"/>
</g>
<!-- WasSpinnerComponent  -->
<g id="node24" class="node">
<title>WasSpinnerComponent </title>
<polygon fill="#fb8072" stroke="#000000" points="4273.7548,-317 4120.2452,-317 4120.2452,-281 4273.7548,-281 4273.7548,-317"/>
<text text-anchor="middle" x="4197" y="-294.8" font-family="Times,serif" font-size="14.00" fill="#000000">WasSpinnerComponent </text>
</g>
<!-- WickeyAppStoreModule&#45;&gt;WasSpinnerComponent  -->
<g id="edge23" class="edge">
<title>WickeyAppStoreModule&#45;&gt;WasSpinnerComponent </title>
<path fill="none" stroke="#000000" stroke-dasharray="5,2" d="M2390.4958,-238C2745.1129,-238 4180.4009,-238 4180.4009,-238 4180.4009,-238 4180.4009,-270.698 4180.4009,-270.698"/>
<polygon fill="#000000" stroke="#000000" points="4176.901,-270.698 4180.4009,-280.698 4183.901,-270.698 4176.901,-270.698"/>
</g>
<!-- WickeyAppStoreComponent  -->
<g id="node25" class="node">
<title>WickeyAppStoreComponent </title>
<polygon fill="#fb8072" stroke="#000000" points="4102.0218,-317 3919.9782,-317 3919.9782,-281 4102.0218,-281 4102.0218,-317"/>
<text text-anchor="middle" x="4011" y="-294.8" font-family="Times,serif" font-size="14.00" fill="#000000">WickeyAppStoreComponent </text>
</g>
<!-- WickeyAppStoreModule&#45;&gt;WickeyAppStoreComponent  -->
<g id="edge24" class="edge">
<title>WickeyAppStoreModule&#45;&gt;WickeyAppStoreComponent </title>
<path fill="none" stroke="#000000" stroke-dasharray="5,2" d="M2390.2989,-239C2721.1713,-239 3987.7632,-239 3987.7632,-239 3987.7632,-239 3987.7632,-270.998 3987.7632,-270.998"/>
<polygon fill="#000000" stroke="#000000" points="3984.2632,-270.998 3987.7632,-280.998 3991.2632,-270.9981 3984.2632,-270.998"/>
</g>
<!-- DisplayAppsComponent  -->
<g id="node26" class="node">
<title>DisplayAppsComponent </title>
<polygon fill="#fb8072" stroke="#000000" points="3901.9306,-317 3744.0694,-317 3744.0694,-281 3901.9306,-281 3901.9306,-317"/>
<text text-anchor="middle" x="3823" y="-294.8" font-family="Times,serif" font-size="14.00" fill="#000000">DisplayAppsComponent </text>
</g>
<!-- WickeyAppStoreModule&#45;&gt;DisplayAppsComponent  -->
<g id="edge25" class="edge">
<title>WickeyAppStoreModule&#45;&gt;DisplayAppsComponent </title>
<path fill="none" stroke="#000000" stroke-dasharray="5,2" d="M2390.4249,-241C2696.0006,-241 3790.0896,-241 3790.0896,-241 3790.0896,-241 3790.0896,-270.9664 3790.0896,-270.9664"/>
<polygon fill="#000000" stroke="#000000" points="3786.5897,-270.9663 3790.0896,-280.9664 3793.5897,-270.9664 3786.5897,-270.9663"/>
</g>
<!-- AppDetailPageComponent  -->
<g id="node27" class="node">
<title>AppDetailPageComponent </title>
<polygon fill="#fb8072" stroke="#000000" points="3726.3588,-317 3555.6412,-317 3555.6412,-281 3726.3588,-281 3726.3588,-317"/>
<text text-anchor="middle" x="3641" y="-294.8" font-family="Times,serif" font-size="14.00" fill="#000000">AppDetailPageComponent </text>
</g>
<!-- WickeyAppStoreModule&#45;&gt;AppDetailPageComponent  -->
<g id="edge26" class="edge">
<title>WickeyAppStoreModule&#45;&gt;AppDetailPageComponent </title>
<path fill="none" stroke="#000000" stroke-dasharray="5,2" d="M2390.2628,-243C2668.5959,-243 3593.9634,-243 3593.9634,-243 3593.9634,-243 3593.9634,-270.973 3593.9634,-270.973"/>
<polygon fill="#000000" stroke="#000000" points="3590.4634,-270.973 3593.9634,-280.973 3597.4634,-270.973 3590.4634,-270.973"/>
</g>
<!-- AppGroupHorizontalComponent  -->
<g id="node28" class="node">
<title>AppGroupHorizontalComponent </title>
<polygon fill="#fb8072" stroke="#000000" points="3538.0748,-317 3333.9252,-317 3333.9252,-281 3538.0748,-281 3538.0748,-317"/>
<text text-anchor="middle" x="3436" y="-294.8" font-family="Times,serif" font-size="14.00" fill="#000000">AppGroupHorizontalComponent </text>
</g>
<!-- WickeyAppStoreModule&#45;&gt;AppGroupHorizontalComponent  -->
<g id="edge27" class="edge">
<title>WickeyAppStoreModule&#45;&gt;AppGroupHorizontalComponent </title>
<path fill="none" stroke="#000000" stroke-dasharray="5,2" d="M2390.5275,-244C2638.0795,-244 3385.8473,-244 3385.8473,-244 3385.8473,-244 3385.8473,-270.9909 3385.8473,-270.9909"/>
<polygon fill="#000000" stroke="#000000" points="3382.3474,-270.9909 3385.8473,-280.9909 3389.3474,-270.991 3382.3474,-270.9909"/>
</g>
<!-- AppGroupVerticalComponent  -->
<g id="node29" class="node">
<title>AppGroupVerticalComponent </title>
<polygon fill="#fb8072" stroke="#000000" points="3315.7891,-317 3126.2109,-317 3126.2109,-281 3315.7891,-281 3315.7891,-317"/>
<text text-anchor="middle" x="3221" y="-294.8" font-family="Times,serif" font-size="14.00" fill="#000000">AppGroupVerticalComponent </text>
</g>
<!-- WickeyAppStoreModule&#45;&gt;AppGroupVerticalComponent  -->
<g id="edge28" class="edge">
<title>WickeyAppStoreModule&#45;&gt;AppGroupVerticalComponent </title>
<path fill="none" stroke="#000000" stroke-dasharray="5,2" d="M2390.3857,-246C2602.8419,-246 3173.8529,-246 3173.8529,-246 3173.8529,-246 3173.8529,-270.7604 3173.8529,-270.7604"/>
<polygon fill="#000000" stroke="#000000" points="3170.353,-270.7604 3173.8529,-280.7604 3177.353,-270.7604 3170.353,-270.7604"/>
</g>
<!-- DisplayAppMiniComponent  -->
<g id="node30" class="node">
<title>DisplayAppMiniComponent </title>
<polygon fill="#fb8072" stroke="#000000" points="3107.712,-317 2928.288,-317 2928.288,-281 3107.712,-281 3107.712,-317"/>
<text text-anchor="middle" x="3018" y="-294.8" font-family="Times,serif" font-size="14.00" fill="#000000">DisplayAppMiniComponent </text>
</g>
<!-- WickeyAppStoreModule&#45;&gt;DisplayAppMiniComponent  -->
<g id="edge29" class="edge">
<title>WickeyAppStoreModule&#45;&gt;DisplayAppMiniComponent </title>
<path fill="none" stroke="#000000" stroke-dasharray="5,2" d="M2390.567,-248C2568.7678,-248 2988.2565,-248 2988.2565,-248 2988.2565,-248 2988.2565,-270.8757 2988.2565,-270.8757"/>
<polygon fill="#000000" stroke="#000000" points="2984.7566,-270.8757 2988.2565,-280.8757 2991.7566,-270.8757 2984.7566,-270.8757"/>
</g>
<!-- DisplayAppFeaturedComponent  -->
<g id="node31" class="node">
<title>DisplayAppFeaturedComponent </title>
<polygon fill="#fb8072" stroke="#000000" points="2909.9641,-317 2708.0359,-317 2708.0359,-281 2909.9641,-281 2909.9641,-317"/>
<text text-anchor="middle" x="2809" y="-294.8" font-family="Times,serif" font-size="14.00" fill="#000000">DisplayAppFeaturedComponent </text>
</g>
<!-- WickeyAppStoreModule&#45;&gt;DisplayAppFeaturedComponent  -->
<g id="edge30" class="edge">
<title>WickeyAppStoreModule&#45;&gt;DisplayAppFeaturedComponent </title>
<path fill="none" stroke="#000000" stroke-dasharray="5,2" d="M2390.4714,-249C2521.3491,-249 2769.9924,-249 2769.9924,-249 2769.9924,-249 2769.9924,-270.9489 2769.9924,-270.9489"/>
<polygon fill="#000000" stroke="#000000" points="2766.4925,-270.9488 2769.9924,-280.9489 2773.4925,-270.9489 2766.4925,-270.9488"/>
</g>
<!-- PopoverBaseComponent  -->
<g id="node32" class="node">
<title>PopoverBaseComponent </title>
<polygon fill="#fb8072" stroke="#000000" points="2690.2009,-317 2531.7991,-317 2531.7991,-281 2690.2009,-281 2690.2009,-317"/>
<text text-anchor="middle" x="2611" y="-294.8" font-family="Times,serif" font-size="14.00" fill="#000000">PopoverBaseComponent </text>
</g>
<!-- WickeyAppStoreModule&#45;&gt;PopoverBaseComponent  -->
<g id="edge31" class="edge">
<title>WickeyAppStoreModule&#45;&gt;PopoverBaseComponent </title>
<path fill="none" stroke="#000000" stroke-dasharray="5,2" d="M2390.3716,-251C2473.2094,-251 2592.0131,-251 2592.0131,-251 2592.0131,-251 2592.0131,-270.8533 2592.0131,-270.8533"/>
<polygon fill="#000000" stroke="#000000" points="2588.5132,-270.8532 2592.0131,-280.8533 2595.5132,-270.8533 2588.5132,-270.8532"/>
</g>
<!-- PopoverAccountInfoComponent  -->
<g id="node33" class="node">
<title>PopoverAccountInfoComponent </title>
<polygon fill="#fb8072" stroke="#000000" points="2514.2379,-317 2311.7621,-317 2311.7621,-281 2514.2379,-281 2514.2379,-317"/>
<text text-anchor="middle" x="2413" y="-294.8" font-family="Times,serif" font-size="14.00" fill="#000000">PopoverAccountInfoComponent </text>
</g>
<!-- WickeyAppStoreModule&#45;&gt;PopoverAccountInfoComponent  -->
<g id="edge32" class="edge">
<title>WickeyAppStoreModule&#45;&gt;PopoverAccountInfoComponent </title>
<path fill="none" stroke="#000000" stroke-dasharray="5,2" d="M2351.1254,-252.1061C2351.1254,-252.1061 2351.1254,-270.991 2351.1254,-270.991"/>
<polygon fill="#000000" stroke="#000000" points="2347.6254,-270.9909 2351.1254,-280.991 2354.6254,-270.991 2347.6254,-270.9909"/>
</g>
<!-- PopoverLoginComponent  -->
<g id="node34" class="node">
<title>PopoverLoginComponent </title>
<polygon fill="#fb8072" stroke="#000000" points="2293.4334,-317 2128.5666,-317 2128.5666,-281 2293.4334,-281 2293.4334,-317"/>
<text text-anchor="middle" x="2211" y="-294.8" font-family="Times,serif" font-size="14.00" fill="#000000">PopoverLoginComponent </text>
</g>
<!-- WickeyAppStoreModule&#45;&gt;PopoverLoginComponent  -->
<g id="edge33" class="edge">
<title>WickeyAppStoreModule&#45;&gt;PopoverLoginComponent </title>
<path fill="none" stroke="#000000" stroke-dasharray="5,2" d="M2263.5486,-252.1061C2263.5486,-252.1061 2263.5486,-270.991 2263.5486,-270.991"/>
<polygon fill="#000000" stroke="#000000" points="2260.0486,-270.9909 2263.5486,-280.991 2267.0486,-270.991 2260.0486,-270.9909"/>
</g>
<!-- PopoverReviewComponent  -->
<g id="node35" class="node">
<title>PopoverReviewComponent </title>
<polygon fill="#fb8072" stroke="#000000" points="2110.2534,-317 1935.7466,-317 1935.7466,-281 2110.2534,-281 2110.2534,-317"/>
<text text-anchor="middle" x="2023" y="-294.8" font-family="Times,serif" font-size="14.00" fill="#000000">PopoverReviewComponent </text>
</g>
<!-- WickeyAppStoreModule&#45;&gt;PopoverReviewComponent  -->
<g id="edge34" class="edge">
<title>WickeyAppStoreModule&#45;&gt;PopoverReviewComponent </title>
<path fill="none" stroke="#000000" stroke-dasharray="5,2" d="M2233.5979,-251C2154.3272,-251 2043.435,-251 2043.435,-251 2043.435,-251 2043.435,-270.8533 2043.435,-270.8533"/>
<polygon fill="#000000" stroke="#000000" points="2039.935,-270.8532 2043.435,-280.8533 2046.935,-270.8533 2039.935,-270.8532"/>
</g>
<!-- WASAlertComponent  -->
<g id="node36" class="node">
<title>WASAlertComponent </title>
<polygon fill="#fb8072" stroke="#000000" points="1918.1995,-317 1773.8005,-317 1773.8005,-281 1918.1995,-281 1918.1995,-317"/>
<text text-anchor="middle" x="1846" y="-294.8" font-family="Times,serif" font-size="14.00" fill="#000000">WASAlertComponent </text>
</g>
<!-- WickeyAppStoreModule&#45;&gt;WASAlertComponent  -->
<g id="edge35" class="edge">
<title>WickeyAppStoreModule&#45;&gt;WASAlertComponent </title>
<path fill="none" stroke="#000000" stroke-dasharray="5,2" d="M2233.7394,-249C2101.0065,-249 1846,-249 1846,-249 1846,-249 1846,-270.9489 1846,-270.9489"/>
<polygon fill="#000000" stroke="#000000" points="1842.5001,-270.9488 1846,-280.9489 1849.5001,-270.9489 1842.5001,-270.9488"/>
</g>
<!-- PopoverUpComponent  -->
<g id="node37" class="node">
<title>PopoverUpComponent </title>
<polygon fill="#fb8072" stroke="#000000" points="1755.0973,-317 1606.9027,-317 1606.9027,-281 1755.0973,-281 1755.0973,-317"/>
<text text-anchor="middle" x="1681" y="-294.8" font-family="Times,serif" font-size="14.00" fill="#000000">PopoverUpComponent </text>
</g>
<!-- WickeyAppStoreModule&#45;&gt;PopoverUpComponent  -->
<g id="edge36" class="edge">
<title>WickeyAppStoreModule&#45;&gt;PopoverUpComponent </title>
<path fill="none" stroke="#000000" stroke-dasharray="5,2" d="M2233.6703,-248C2078.4192,-248 1746.5256,-248 1746.5256,-248 1746.5256,-248 1746.5256,-270.8757 1746.5256,-270.8757"/>
<polygon fill="#000000" stroke="#000000" points="1743.0257,-270.8757 1746.5256,-280.8757 1750.0257,-270.8757 1743.0257,-270.8757"/>
</g>
<!-- CustomValidatorDirective  -->
<g id="node38" class="node">
<title>CustomValidatorDirective </title>
<polygon fill="#fb8072" stroke="#000000" points="1589.0134,-317 1420.9866,-317 1420.9866,-281 1589.0134,-281 1589.0134,-317"/>
<text text-anchor="middle" x="1505" y="-294.8" font-family="Times,serif" font-size="14.00" fill="#000000">CustomValidatorDirective </text>
</g>
<!-- WickeyAppStoreModule&#45;&gt;CustomValidatorDirective  -->
<g id="edge37" class="edge">
<title>WickeyAppStoreModule&#45;&gt;CustomValidatorDirective </title>
<path fill="none" stroke="#000000" stroke-dasharray="5,2" d="M2233.74,-246C2036.1968,-246 1533.0022,-246 1533.0022,-246 1533.0022,-246 1533.0022,-270.7604 1533.0022,-270.7604"/>
<polygon fill="#000000" stroke="#000000" points="1529.5023,-270.7604 1533.0022,-280.7604 1536.5023,-270.7604 1529.5023,-270.7604"/>
</g>
<!-- DisplayAppFullwidthComponent  -->
<g id="node39" class="node">
<title>DisplayAppFullwidthComponent </title>
<polygon fill="#fb8072" stroke="#000000" points="1403.4376,-317 1196.5624,-317 1196.5624,-281 1403.4376,-281 1403.4376,-317"/>
<text text-anchor="middle" x="1300" y="-294.8" font-family="Times,serif" font-size="14.00" fill="#000000">DisplayAppFullwidthComponent </text>
</g>
<!-- WickeyAppStoreModule&#45;&gt;DisplayAppFullwidthComponent  -->
<g id="edge38" class="edge">
<title>WickeyAppStoreModule&#45;&gt;DisplayAppFullwidthComponent </title>
<path fill="none" stroke="#000000" stroke-dasharray="5,2" d="M2233.6966,-244C2010.8106,-244 1388.9162,-244 1388.9162,-244 1388.9162,-244 1388.9162,-270.9909 1388.9162,-270.9909"/>
<polygon fill="#000000" stroke="#000000" points="1385.4163,-270.9909 1388.9162,-280.9909 1392.4163,-270.991 1385.4163,-270.9909"/>
</g>
<!-- ReviewsComponent  -->
<g id="node40" class="node">
<title>ReviewsComponent </title>
<polygon fill="#fb8072" stroke="#000000" points="1178.54,-317 1045.46,-317 1045.46,-281 1178.54,-281 1178.54,-317"/>
<text text-anchor="middle" x="1112" y="-294.8" font-family="Times,serif" font-size="14.00" fill="#000000">ReviewsComponent </text>
</g>
<!-- WickeyAppStoreModule&#45;&gt;ReviewsComponent  -->
<g id="edge39" class="edge">
<title>WickeyAppStoreModule&#45;&gt;ReviewsComponent </title>
<path fill="none" stroke="#000000" stroke-dasharray="5,2" d="M2233.6999,-243C1965.057,-243 1097.2639,-243 1097.2639,-243 1097.2639,-243 1097.2639,-270.973 1097.2639,-270.973"/>
<polygon fill="#000000" stroke="#000000" points="1093.764,-270.973 1097.2639,-280.973 1100.764,-270.973 1093.764,-270.973"/>
</g>
<!-- DisplayAppReviewComponent  -->
<g id="node41" class="node">
<title>DisplayAppReviewComponent </title>
<polygon fill="#fb8072" stroke="#000000" points="1027.7492,-317 832.2508,-317 832.2508,-281 1027.7492,-281 1027.7492,-317"/>
<text text-anchor="middle" x="930" y="-294.8" font-family="Times,serif" font-size="14.00" fill="#000000">DisplayAppReviewComponent </text>
</g>
<!-- WickeyAppStoreModule&#45;&gt;DisplayAppReviewComponent  -->
<g id="edge40" class="edge">
<title>WickeyAppStoreModule&#45;&gt;DisplayAppReviewComponent </title>
<path fill="none" stroke="#000000" stroke-dasharray="5,2" d="M2233.3567,-241C1946.7651,-241 975.0107,-241 975.0107,-241 975.0107,-241 975.0107,-270.9664 975.0107,-270.9664"/>
<polygon fill="#000000" stroke="#000000" points="971.5108,-270.9663 975.0107,-280.9664 978.5108,-270.9664 971.5108,-270.9663"/>
</g>
<!-- AppGroupReviewsComponent  -->
<g id="node42" class="node">
<title>AppGroupReviewsComponent </title>
<polygon fill="#fb8072" stroke="#000000" points="814.4138,-317 621.5862,-317 621.5862,-281 814.4138,-281 814.4138,-317"/>
<text text-anchor="middle" x="718" y="-294.8" font-family="Times,serif" font-size="14.00" fill="#000000">AppGroupReviewsComponent </text>
</g>
<!-- WickeyAppStoreModule&#45;&gt;AppGroupReviewsComponent  -->
<g id="edge41" class="edge">
<title>WickeyAppStoreModule&#45;&gt;AppGroupReviewsComponent </title>
<path fill="none" stroke="#000000" stroke-dasharray="5,2" d="M2233.5658,-239C1917.8961,-239 757.2291,-239 757.2291,-239 757.2291,-239 757.2291,-270.998 757.2291,-270.998"/>
<polygon fill="#000000" stroke="#000000" points="753.7292,-270.998 757.2291,-280.998 760.7292,-270.9981 753.7292,-270.998"/>
</g>
<!-- GetCategoryPipe  -->
<g id="node43" class="node">
<title>GetCategoryPipe </title>
<polygon fill="#fb8072" stroke="#000000" points="603.9166,-317 488.0834,-317 488.0834,-281 603.9166,-281 603.9166,-317"/>
<text text-anchor="middle" x="546" y="-294.8" font-family="Times,serif" font-size="14.00" fill="#000000">GetCategoryPipe </text>
</g>
<!-- WickeyAppStoreModule&#45;&gt;GetCategoryPipe  -->
<g id="edge42" class="edge">
<title>WickeyAppStoreModule&#45;&gt;GetCategoryPipe </title>
<path fill="none" stroke="#000000" stroke-dasharray="5,2" d="M2233.5201,-238C1891.9294,-238 551.7421,-238 551.7421,-238 551.7421,-238 551.7421,-270.698 551.7421,-270.698"/>
<polygon fill="#000000" stroke="#000000" points="548.2422,-270.698 551.7421,-280.698 555.2422,-270.698 548.2422,-270.698"/>
</g>
<!-- { provide: NG_VALIDATORS, useExisting: CustomValidatorDirective, multi: &#160;} -->
<g id="node22" class="node">
<title>{ provide: NG_VALIDATORS, useExisting: CustomValidatorDirective, multi: &#160;}</title>
<ellipse fill="#fdb462" stroke="#000000" cx="2059" cy="-104" rx="327.8583" ry="18"/>
<text text-anchor="middle" x="2059" y="-99.8" font-family="Times,serif" font-size="14.00" fill="#000000">{ provide: NG_VALIDATORS, useExisting: CustomValidatorDirective, multi: &#160;}</text>
</g>
<!-- { provide: NG_VALIDATORS, useExisting: CustomValidatorDirective, multi: &#160;}&#45;&gt;CustomValidatorDirective -->
<g id="edge16" class="edge">
<title>{ provide: NG_VALIDATORS, useExisting: CustomValidatorDirective, multi: &#160;}&#45;&gt;CustomValidatorDirective</title>
<path fill="none" stroke="#000000" d="M2059,-122.1061C2059,-122.1061 2059,-140.991 2059,-140.991"/>
<polygon fill="#000000" stroke="#000000" points="2055.5001,-140.9909 2059,-150.991 2062.5001,-140.991 2055.5001,-140.9909"/>
</g>
<!-- FanMenuModule -->
<g id="node23" class="node">
<title>FanMenuModule</title>
<polygon fill="#8dd3c7" stroke="#000000" points="1035.7064,-187 1032.7064,-191 1011.7064,-191 1008.7064,-187 922.2936,-187 922.2936,-151 1035.7064,-151 1035.7064,-187"/>
<text text-anchor="middle" x="979" y="-164.8" font-family="Times,serif" font-size="14.00" fill="#000000">FanMenuModule</text>
</g>
<!-- FanMenuModule&#45;&gt;WickeyAppStoreModule -->
<g id="edge22" class="edge">
<title>FanMenuModule&#45;&gt;WickeyAppStoreModule</title>
<path fill="none" stroke="#000000" d="M1031.6138,-187.0225C1031.6138,-204.3734 1031.6138,-228 1031.6138,-228 1031.6138,-228 2223.3536,-228 2223.3536,-228"/>
<polygon fill="#000000" stroke="#000000" points="2223.3536,-231.5001 2233.3536,-228 2223.3535,-224.5001 2223.3536,-231.5001"/>
</g>
<!-- ApiConnectionService -->
<g id="node44" class="node">
<title>ApiConnectionService</title>
<ellipse fill="#fdb462" stroke="#000000" cx="799" cy="-169" rx="98.9974" ry="18"/>
<text text-anchor="middle" x="799" y="-164.8" font-family="Times,serif" font-size="14.00" fill="#000000">ApiConnectionService</text>
</g>
<!-- ApiConnectionService&#45;&gt;WickeyAppStoreModule -->
<g id="edge43" class="edge">
<title>ApiConnectionService&#45;&gt;WickeyAppStoreModule</title>
<path fill="none" stroke="#000000" d="M865.1871,-182.5379C865.1871,-200.509 865.1871,-230 865.1871,-230 865.1871,-230 2223.7001,-230 2223.7001,-230"/>
<polygon fill="#000000" stroke="#000000" points="2223.7001,-233.5001 2233.7001,-230 2223.7,-226.5001 2223.7001,-233.5001"/>
</g>
<!-- LocalStorageService -->
<g id="node45" class="node">
<title>LocalStorageService</title>
<ellipse fill="#fdb462" stroke="#000000" cx="591" cy="-169" rx="91.4481" ry="18"/>
<text text-anchor="middle" x="591" y="-164.8" font-family="Times,serif" font-size="14.00" fill="#000000">LocalStorageService</text>
</g>
<!-- LocalStorageService&#45;&gt;WickeyAppStoreModule -->
<g id="edge44" class="edge">
<title>LocalStorageService&#45;&gt;WickeyAppStoreModule</title>
<path fill="none" stroke="#000000" d="M652.0086,-182.4531C652.0086,-200.6878 652.0086,-231 652.0086,-231 652.0086,-231 2223.6077,-231 2223.6077,-231"/>
<polygon fill="#000000" stroke="#000000" points="2223.6077,-234.5001 2233.6077,-231 2223.6076,-227.5001 2223.6077,-234.5001"/>
</g>
<!-- UserService -->
<g id="node46" class="node">
<title>UserService</title>
<ellipse fill="#fdb462" stroke="#000000" cx="423" cy="-169" rx="58.4415" ry="18"/>
<text text-anchor="middle" x="423" y="-164.8" font-family="Times,serif" font-size="14.00" fill="#000000">UserService</text>
</g>
<!-- UserService&#45;&gt;WickeyAppStoreModule -->
<g id="edge45" class="edge">
<title>UserService&#45;&gt;WickeyAppStoreModule</title>
<path fill="none" stroke="#000000" d="M423,-187.1686C423,-206.0898 423,-233 423,-233 423,-233 2223.5353,-233 2223.5353,-233"/>
<polygon fill="#000000" stroke="#000000" points="2223.5354,-236.5001 2233.5353,-233 2223.5353,-229.5001 2223.5354,-236.5001"/>
</g>
<!-- WasAppService -->
<g id="node47" class="node">
<title>WasAppService</title>
<ellipse fill="#fdb462" stroke="#000000" cx="273" cy="-169" rx="73.556" ry="18"/>
<text text-anchor="middle" x="273" y="-164.8" font-family="Times,serif" font-size="14.00" fill="#000000">WasAppService</text>
</g>
<!-- WasAppService&#45;&gt;WickeyAppStoreModule -->
<g id="edge46" class="edge">
<title>WasAppService&#45;&gt;WickeyAppStoreModule</title>
<path fill="none" stroke="#000000" d="M273,-187.1061C273,-206.3391 273,-234 273,-234 273,-234 2223.6291,-234 2223.6291,-234"/>
<polygon fill="#000000" stroke="#000000" points="2223.6291,-237.5001 2233.6291,-234 2223.6291,-230.5001 2223.6291,-237.5001"/>
</g>
<!-- ClipboardService -->
<g id="node48" class="node">
<title>ClipboardService</title>
<ellipse fill="#fdb462" stroke="#000000" cx="103" cy="-169" rx="78.7298" ry="18"/>
<text text-anchor="middle" x="103" y="-164.8" font-family="Times,serif" font-size="14.00" fill="#000000">ClipboardService</text>
</g>
<!-- ClipboardService&#45;&gt;WickeyAppStoreModule -->
<g id="edge47" class="edge">
<title>ClipboardService&#45;&gt;WickeyAppStoreModule</title>
<path fill="none" stroke="#000000" d="M103,-187.308C103,-207.1455 103,-236 103,-236 103,-236 2223.7053,-236 2223.7053,-236"/>
<polygon fill="#000000" stroke="#000000" points="2223.7053,-239.5001 2233.7053,-236 2223.7052,-232.5001 2223.7053,-239.5001"/>
</g>
</g>
</svg>
