<?xml version="1.0" encoding="UTF-8" standalone="no"?>
<!DOCTYPE svg PUBLIC "-//W3C//DTD SVG 1.1//EN"
 "http://www.w3.org/Graphics/SVG/1.1/DTD/svg11.dtd">
<!-- Generated by graphviz version 2.40.1 (20161225.0304)
 -->
<!-- Title: dependencies Pages: 1 -->
<svg width="2486pt" height="284pt"
 viewBox="0.00 0.00 2486.00 284.00" xmlns="http://www.w3.org/2000/svg" xmlns:xlink="http://www.w3.org/1999/xlink">
<g id="graph0" class="graph" transform="scale(1 1) rotate(0) translate(4 280)">
<title>dependencies</title>
<polygon fill="#ffffff" stroke="transparent" points="-4,4 -4,-280 2482,-280 2482,4 -4,4"/>
<text text-anchor="start" x="1218.0091" y="-42.4" font-family="sans-serif" font-weight="bold" font-size="14.00" fill="#000000">Legend</text>
<polygon fill="#ffffb3" stroke="transparent" points="1005,-10 1005,-30 1025,-30 1025,-10 1005,-10"/>
<text text-anchor="start" x="1028.629" y="-15.4" font-family="sans-serif" font-size="14.00" fill="#000000"> &#160;Declarations</text>
<polygon fill="#8dd3c7" stroke="transparent" points="1118,-10 1118,-30 1138,-30 1138,-10 1118,-10"/>
<text text-anchor="start" x="1141.7251" y="-15.4" font-family="sans-serif" font-size="14.00" fill="#000000"> &#160;Module</text>
<polygon fill="#80b1d3" stroke="transparent" points="1204,-10 1204,-30 1224,-30 1224,-10 1204,-10"/>
<text text-anchor="start" x="1227.7812" y="-15.4" font-family="sans-serif" font-size="14.00" fill="#000000"> &#160;Bootstrap</text>
<polygon fill="#fdb462" stroke="transparent" points="1301,-10 1301,-30 1321,-30 1321,-10 1301,-10"/>
<text text-anchor="start" x="1324.6732" y="-15.4" font-family="sans-serif" font-size="14.00" fill="#000000"> &#160;Providers</text>
<polygon fill="#fb8072" stroke="transparent" points="1397,-10 1397,-30 1417,-30 1417,-10 1397,-10"/>
<text text-anchor="start" x="1420.7258" y="-15.4" font-family="sans-serif" font-size="14.00" fill="#000000"> &#160;Exports</text>
<g id="clust1" class="cluster">
<title>cluster_WickeyAppStoreModule</title>
<polygon fill="none" stroke="#000000" stroke-dasharray="1,5" points="8,-70 8,-268 2470,-268 2470,-70 8,-70"/>
</g>
<g id="clust2" class="cluster">
<title>cluster_WickeyAppStoreModule_declarations</title>
<polygon fill="none" stroke="#000000" points="682,-78 682,-130 2462,-130 2462,-78 682,-78"/>
</g>
<g id="clust12" class="cluster">
<title>cluster_WickeyAppStoreModule_imports</title>
<polygon fill="none" stroke="#000000" points="16,-78 16,-130 674,-130 674,-78 16,-78"/>
</g>
<g id="clust13" class="cluster">
<title>cluster_WickeyAppStoreModule_exports</title>
<polygon fill="none" stroke="#000000" points="145,-208 145,-260 1955,-260 1955,-208 145,-208"/>
</g>
<!-- WickeyAppStoreComponent -->
<g id="node1" class="node">
<title>WickeyAppStoreComponent</title>
<polygon fill="#ffffb3" stroke="#000000" points="2454.0224,-122 2275.9776,-122 2275.9776,-86 2454.0224,-86 2454.0224,-122"/>
<text text-anchor="middle" x="2365" y="-99.8" font-family="Times,serif" font-size="14.00" fill="#000000">WickeyAppStoreComponent</text>
</g>
<!-- WickeyAppStoreModule -->
<g id="node10" class="node">
<title>WickeyAppStoreModule</title>
<polygon fill="#8dd3c7" stroke="#000000" points="1171.2394,-187 1168.2394,-191 1147.2394,-191 1144.2394,-187 1014.7606,-187 1014.7606,-151 1171.2394,-151 1171.2394,-187"/>
<text text-anchor="middle" x="1093" y="-164.8" font-family="Times,serif" font-size="14.00" fill="#000000">WickeyAppStoreModule</text>
</g>
<!-- WickeyAppStoreComponent&#45;&gt;WickeyAppStoreModule -->
<g id="edge1" class="edge">
<title>WickeyAppStoreComponent&#45;&gt;WickeyAppStoreModule</title>
<path fill="none" stroke="#000000" d="M2365,-122.308C2365,-142.1455 2365,-171 2365,-171 2365,-171 1181.6094,-171 1181.6094,-171"/>
<polygon fill="#000000" stroke="#000000" points="1181.6094,-167.5001 1171.6094,-171 1181.6093,-174.5001 1181.6094,-167.5001"/>
</g>
<!-- WASAlertPopupComponent -->
<g id="node2" class="node">
<title>WASAlertPopupComponent</title>
<polygon fill="#ffffb3" stroke="#000000" points="2257.4818,-122 2080.5182,-122 2080.5182,-86 2257.4818,-86 2257.4818,-122"/>
<text text-anchor="middle" x="2169" y="-99.8" font-family="Times,serif" font-size="14.00" fill="#000000">WASAlertPopupComponent</text>
</g>
<!-- WASAlertPopupComponent&#45;&gt;WickeyAppStoreModule -->
<g id="edge2" class="edge">
<title>WASAlertPopupComponent&#45;&gt;WickeyAppStoreModule</title>
<path fill="none" stroke="#000000" d="M2169,-122.1686C2169,-141.0898 2169,-168 2169,-168 2169,-168 1181.25,-168 1181.25,-168"/>
<polygon fill="#000000" stroke="#000000" points="1181.25,-164.5001 1171.25,-168 1181.25,-171.5001 1181.25,-164.5001"/>
</g>
<!-- DisplayAppsComponent -->
<g id="node3" class="node">
<title>DisplayAppsComponent</title>
<polygon fill="#ffffb3" stroke="#000000" points="2062.4312,-122 1907.5688,-122 1907.5688,-86 2062.4312,-86 2062.4312,-122"/>
<text text-anchor="middle" x="1985" y="-99.8" font-family="Times,serif" font-size="14.00" fill="#000000">DisplayAppsComponent</text>
</g>
<!-- DisplayAppsComponent&#45;&gt;WickeyAppStoreModule -->
<g id="edge3" class="edge">
<title>DisplayAppsComponent&#45;&gt;WickeyAppStoreModule</title>
<path fill="none" stroke="#000000" d="M1927.3978,-122.302C1927.3978,-140.2699 1927.3978,-165 1927.3978,-165 1927.3978,-165 1181.4981,-165 1181.4981,-165"/>
<polygon fill="#000000" stroke="#000000" points="1181.4982,-161.5001 1171.4981,-165 1181.4981,-168.5001 1181.4982,-161.5001"/>
</g>
<!-- AppDetailPageComponent -->
<g id="node4" class="node">
<title>AppDetailPageComponent</title>
<polygon fill="#ffffb3" stroke="#000000" points="1889.3585,-122 1722.6415,-122 1722.6415,-86 1889.3585,-86 1889.3585,-122"/>
<text text-anchor="middle" x="1806" y="-99.8" font-family="Times,serif" font-size="14.00" fill="#000000">AppDetailPageComponent</text>
</g>
<!-- AppDetailPageComponent&#45;&gt;WickeyAppStoreModule -->
<g id="edge4" class="edge">
<title>AppDetailPageComponent&#45;&gt;WickeyAppStoreModule</title>
<path fill="none" stroke="#000000" d="M1734.9059,-122.0352C1734.9059,-138.7344 1734.9059,-161 1734.9059,-161 1734.9059,-161 1181.3891,-161 1181.3891,-161"/>
<polygon fill="#000000" stroke="#000000" points="1181.3892,-157.5001 1171.3891,-161 1181.3891,-164.5001 1181.3892,-157.5001"/>
</g>
<!-- AppReviewsPageComponent -->
<g id="node5" class="node">
<title>AppReviewsPageComponent</title>
<polygon fill="#ffffb3" stroke="#000000" points="1704.3585,-122 1523.6415,-122 1523.6415,-86 1704.3585,-86 1704.3585,-122"/>
<text text-anchor="middle" x="1614" y="-99.8" font-family="Times,serif" font-size="14.00" fill="#000000">AppReviewsPageComponent</text>
</g>
<!-- AppReviewsPageComponent&#45;&gt;WickeyAppStoreModule -->
<g id="edge5" class="edge">
<title>AppReviewsPageComponent&#45;&gt;WickeyAppStoreModule</title>
<path fill="none" stroke="#000000" d="M1536.2681,-122.2819C1536.2681,-137.9478 1536.2681,-158 1536.2681,-158 1536.2681,-158 1181.4817,-158 1181.4817,-158"/>
<polygon fill="#000000" stroke="#000000" points="1181.4818,-154.5001 1171.4817,-158 1181.4817,-161.5001 1181.4818,-154.5001"/>
</g>
<!-- AppGroupHorizontalComponent -->
<g id="node6" class="node">
<title>AppGroupHorizontalComponent</title>
<polygon fill="#ffffb3" stroke="#000000" points="1505.5744,-122 1304.4256,-122 1304.4256,-86 1505.5744,-86 1505.5744,-122"/>
<text text-anchor="middle" x="1405" y="-99.8" font-family="Times,serif" font-size="14.00" fill="#000000">AppGroupHorizontalComponent</text>
</g>
<!-- AppGroupHorizontalComponent&#45;&gt;WickeyAppStoreModule -->
<g id="edge6" class="edge">
<title>AppGroupHorizontalComponent&#45;&gt;WickeyAppStoreModule</title>
<path fill="none" stroke="#000000" d="M1338.821,-122.1243C1338.821,-136.7832 1338.821,-155 1338.821,-155 1338.821,-155 1181.4552,-155 1181.4552,-155"/>
<polygon fill="#000000" stroke="#000000" points="1181.4552,-151.5001 1171.4552,-155 1181.4551,-158.5001 1181.4552,-151.5001"/>
</g>
<!-- AppGroupVerticalComponent -->
<g id="node7" class="node">
<title>AppGroupVerticalComponent</title>
<polygon fill="#ffffb3" stroke="#000000" points="1286.2892,-122 1099.7108,-122 1099.7108,-86 1286.2892,-86 1286.2892,-122"/>
<text text-anchor="middle" x="1193" y="-99.8" font-family="Times,serif" font-size="14.00" fill="#000000">AppGroupVerticalComponent</text>
</g>
<!-- AppGroupVerticalComponent&#45;&gt;WickeyAppStoreModule -->
<g id="edge7" class="edge">
<title>AppGroupVerticalComponent&#45;&gt;WickeyAppStoreModule</title>
<path fill="none" stroke="#000000" d="M1135.6126,-122.1061C1135.6126,-122.1061 1135.6126,-140.991 1135.6126,-140.991"/>
<polygon fill="#000000" stroke="#000000" points="1132.1126,-140.9909 1135.6126,-150.991 1139.1126,-140.991 1132.1126,-140.9909"/>
</g>
<!-- DisplayAppMiniComponent -->
<g id="node8" class="node">
<title>DisplayAppMiniComponent</title>
<polygon fill="#ffffb3" stroke="#000000" points="1082.2119,-122 905.7881,-122 905.7881,-86 1082.2119,-86 1082.2119,-122"/>
<text text-anchor="middle" x="994" y="-99.8" font-family="Times,serif" font-size="14.00" fill="#000000">DisplayAppMiniComponent</text>
</g>
<!-- DisplayAppMiniComponent&#45;&gt;WickeyAppStoreModule -->
<g id="edge8" class="edge">
<title>DisplayAppMiniComponent&#45;&gt;WickeyAppStoreModule</title>
<path fill="none" stroke="#000000" d="M1048.3682,-122.1061C1048.3682,-122.1061 1048.3682,-140.991 1048.3682,-140.991"/>
<polygon fill="#000000" stroke="#000000" points="1044.8682,-140.9909 1048.3682,-150.991 1051.8682,-140.991 1044.8682,-140.9909"/>
</g>
<!-- DisplayAppFeaturedComponent -->
<g id="node9" class="node">
<title>DisplayAppFeaturedComponent</title>
<polygon fill="#ffffb3" stroke="#000000" points="887.9636,-122 690.0364,-122 690.0364,-86 887.9636,-86 887.9636,-122"/>
<text text-anchor="middle" x="789" y="-99.8" font-family="Times,serif" font-size="14.00" fill="#000000">DisplayAppFeaturedComponent</text>
</g>
<!-- DisplayAppFeaturedComponent&#45;&gt;WickeyAppStoreModule -->
<g id="edge9" class="edge">
<title>DisplayAppFeaturedComponent&#45;&gt;WickeyAppStoreModule</title>
<path fill="none" stroke="#000000" d="M833.3473,-122.1243C833.3473,-136.7832 833.3473,-155 833.3473,-155 833.3473,-155 1004.7435,-155 1004.7435,-155"/>
<polygon fill="#000000" stroke="#000000" points="1004.7435,-158.5001 1014.7435,-155 1004.7435,-151.5001 1004.7435,-158.5001"/>
</g>
<!-- WickeyAppStoreComponent  -->
<g id="node16" class="node">
<title>WickeyAppStoreComponent </title>
<polygon fill="#fb8072" stroke="#000000" points="1947.0218,-252 1764.9782,-252 1764.9782,-216 1947.0218,-216 1947.0218,-252"/>
<text text-anchor="middle" x="1856" y="-229.8" font-family="Times,serif" font-size="14.00" fill="#000000">WickeyAppStoreComponent </text>
</g>
<!-- WickeyAppStoreModule&#45;&gt;WickeyAppStoreComponent  -->
<g id="edge15" class="edge">
<title>WickeyAppStoreModule&#45;&gt;WickeyAppStoreComponent </title>
<path fill="none" stroke="#000000" stroke-dasharray="5,2" d="M1171.5732,-174C1360.9792,-174 1827.2092,-174 1827.2092,-174 1827.2092,-174 1827.2092,-205.998 1827.2092,-205.998"/>
<polygon fill="#000000" stroke="#000000" points="1823.7092,-205.998 1827.2092,-215.998 1830.7092,-205.9981 1823.7092,-205.998"/>
</g>
<!-- WASAlertPopupComponent  -->
<g id="node17" class="node">
<title>WASAlertPopupComponent </title>
<polygon fill="#fb8072" stroke="#000000" points="1747.4824,-252 1566.5176,-252 1566.5176,-216 1747.4824,-216 1747.4824,-252"/>
<text text-anchor="middle" x="1657" y="-229.8" font-family="Times,serif" font-size="14.00" fill="#000000">WASAlertPopupComponent </text>
</g>
<!-- WickeyAppStoreModule&#45;&gt;WASAlertPopupComponent  -->
<g id="edge16" class="edge">
<title>WickeyAppStoreModule&#45;&gt;WASAlertPopupComponent </title>
<path fill="none" stroke="#000000" stroke-dasharray="5,2" d="M1171.3184,-178C1321.5794,-178 1635.5941,-178 1635.5941,-178 1635.5941,-178 1635.5941,-205.973 1635.5941,-205.973"/>
<polygon fill="#000000" stroke="#000000" points="1632.0942,-205.973 1635.5941,-215.973 1639.0942,-205.973 1632.0942,-205.973"/>
</g>
<!-- DisplayAppsComponent  -->
<g id="node18" class="node">
<title>DisplayAppsComponent </title>
<polygon fill="#fb8072" stroke="#000000" points="1548.9306,-252 1391.0694,-252 1391.0694,-216 1548.9306,-216 1548.9306,-252"/>
<text text-anchor="middle" x="1470" y="-229.8" font-family="Times,serif" font-size="14.00" fill="#000000">DisplayAppsComponent </text>
</g>
<!-- WickeyAppStoreModule&#45;&gt;DisplayAppsComponent  -->
<g id="edge17" class="edge">
<title>WickeyAppStoreModule&#45;&gt;DisplayAppsComponent </title>
<path fill="none" stroke="#000000" stroke-dasharray="5,2" d="M1171.4088,-181C1276.0368,-181 1448.286,-181 1448.286,-181 1448.286,-181 1448.286,-205.7604 1448.286,-205.7604"/>
<polygon fill="#000000" stroke="#000000" points="1444.786,-205.7604 1448.286,-215.7604 1451.786,-205.7604 1444.786,-205.7604"/>
</g>
<!-- AppDetailPageComponent  -->
<g id="node19" class="node">
<title>AppDetailPageComponent </title>
<polygon fill="#fb8072" stroke="#000000" points="1373.3588,-252 1202.6412,-252 1202.6412,-216 1373.3588,-216 1373.3588,-252"/>
<text text-anchor="middle" x="1288" y="-229.8" font-family="Times,serif" font-size="14.00" fill="#000000">AppDetailPageComponent </text>
</g>
<!-- WickeyAppStoreModule&#45;&gt;AppDetailPageComponent  -->
<g id="edge18" class="edge">
<title>WickeyAppStoreModule&#45;&gt;AppDetailPageComponent </title>
<path fill="none" stroke="#000000" stroke-dasharray="5,2" d="M1171.4036,-184C1208.3664,-184 1244.4827,-184 1244.4827,-184 1244.4827,-184 1244.4827,-205.9489 1244.4827,-205.9489"/>
<polygon fill="#000000" stroke="#000000" points="1240.9827,-205.9488 1244.4827,-215.9489 1247.9827,-205.9489 1240.9827,-205.9488"/>
</g>
<!-- AppReviewsPageComponent  -->
<g id="node20" class="node">
<title>AppReviewsPageComponent </title>
<polygon fill="#fb8072" stroke="#000000" points="1185.3587,-252 1000.6413,-252 1000.6413,-216 1185.3587,-216 1185.3587,-252"/>
<text text-anchor="middle" x="1093" y="-229.8" font-family="Times,serif" font-size="14.00" fill="#000000">AppReviewsPageComponent </text>
</g>
<!-- WickeyAppStoreModule&#45;&gt;AppReviewsPageComponent  -->
<g id="edge19" class="edge">
<title>WickeyAppStoreModule&#45;&gt;AppReviewsPageComponent </title>
<path fill="none" stroke="#000000" stroke-dasharray="5,2" d="M1093,-187.1061C1093,-187.1061 1093,-205.991 1093,-205.991"/>
<polygon fill="#000000" stroke="#000000" points="1089.5001,-205.9909 1093,-215.991 1096.5001,-205.991 1089.5001,-205.9909"/>
</g>
<!-- AppGroupHorizontalComponent  -->
<g id="node21" class="node">
<title>AppGroupHorizontalComponent </title>
<polygon fill="#fb8072" stroke="#000000" points="983.0748,-252 778.9252,-252 778.9252,-216 983.0748,-216 983.0748,-252"/>
<text text-anchor="middle" x="881" y="-229.8" font-family="Times,serif" font-size="14.00" fill="#000000">AppGroupHorizontalComponent </text>
</g>
<!-- WickeyAppStoreModule&#45;&gt;AppGroupHorizontalComponent  -->
<g id="edge20" class="edge">
<title>WickeyAppStoreModule&#45;&gt;AppGroupHorizontalComponent </title>
<path fill="none" stroke="#000000" stroke-dasharray="5,2" d="M1014.4496,-184C978.851,-184 944.5907,-184 944.5907,-184 944.5907,-184 944.5907,-205.9489 944.5907,-205.9489"/>
<polygon fill="#000000" stroke="#000000" points="941.0907,-205.9488 944.5907,-215.9489 948.0907,-205.9489 941.0907,-205.9488"/>
</g>
<!-- AppGroupVerticalComponent  -->
<g id="node22" class="node">
<title>AppGroupVerticalComponent </title>
<polygon fill="#fb8072" stroke="#000000" points="760.7891,-252 571.2109,-252 571.2109,-216 760.7891,-216 760.7891,-252"/>
<text text-anchor="middle" x="666" y="-229.8" font-family="Times,serif" font-size="14.00" fill="#000000">AppGroupVerticalComponent </text>
</g>
<!-- WickeyAppStoreModule&#45;&gt;AppGroupVerticalComponent  -->
<g id="edge21" class="edge">
<title>WickeyAppStoreModule&#45;&gt;AppGroupVerticalComponent </title>
<path fill="none" stroke="#000000" stroke-dasharray="5,2" d="M1014.6035,-181C906.6599,-181 725.4563,-181 725.4563,-181 725.4563,-181 725.4563,-205.7604 725.4563,-205.7604"/>
<polygon fill="#000000" stroke="#000000" points="721.9564,-205.7604 725.4563,-215.7604 728.9564,-205.7604 721.9564,-205.7604"/>
</g>
<!-- DisplayAppMiniComponent  -->
<g id="node23" class="node">
<title>DisplayAppMiniComponent </title>
<polygon fill="#fb8072" stroke="#000000" points="552.712,-252 373.288,-252 373.288,-216 552.712,-216 552.712,-252"/>
<text text-anchor="middle" x="463" y="-229.8" font-family="Times,serif" font-size="14.00" fill="#000000">DisplayAppMiniComponent </text>
</g>
<!-- WickeyAppStoreModule&#45;&gt;DisplayAppMiniComponent  -->
<g id="edge22" class="edge">
<title>WickeyAppStoreModule&#45;&gt;DisplayAppMiniComponent </title>
<path fill="none" stroke="#000000" stroke-dasharray="5,2" d="M1014.7292,-178C863.2281,-178 544.6713,-178 544.6713,-178 544.6713,-178 544.6713,-205.973 544.6713,-205.973"/>
<polygon fill="#000000" stroke="#000000" points="541.1714,-205.973 544.6713,-215.973 548.1714,-205.973 541.1714,-205.973"/>
</g>
<!-- DisplayAppFeaturedComponent  -->
<g id="node24" class="node">
<title>DisplayAppFeaturedComponent </title>
<polygon fill="#fb8072" stroke="#000000" points="354.9641,-252 153.0359,-252 153.0359,-216 354.9641,-216 354.9641,-252"/>
<text text-anchor="middle" x="254" y="-229.8" font-family="Times,serif" font-size="14.00" fill="#000000">DisplayAppFeaturedComponent </text>
</g>
<!-- WickeyAppStoreModule&#45;&gt;DisplayAppFeaturedComponent  -->
<g id="edge23" class="edge">
<title>WickeyAppStoreModule&#45;&gt;DisplayAppFeaturedComponent </title>
<path fill="none" stroke="#000000" stroke-dasharray="5,2" d="M1014.4364,-174C820.6673,-174 335.5339,-174 335.5339,-174 335.5339,-174 335.5339,-205.998 335.5339,-205.998"/>
<polygon fill="#000000" stroke="#000000" points="332.0339,-205.998 335.5339,-215.998 339.0339,-205.9981 332.0339,-205.998"/>
</g>
<!-- CommonModule -->
<g id="node11" class="node">
<title>CommonModule</title>
<polygon fill="#8dd3c7" stroke="#000000" points="665.6681,-122 662.6681,-126 641.6681,-126 638.6681,-122 554.3319,-122 554.3319,-86 665.6681,-86 665.6681,-122"/>
<text text-anchor="middle" x="610" y="-99.8" font-family="Times,serif" font-size="14.00" fill="#000000">CommonModule</text>
</g>
<!-- CommonModule&#45;&gt;WickeyAppStoreModule -->
<g id="edge10" class="edge">
<title>CommonModule&#45;&gt;WickeyAppStoreModule</title>
<path fill="none" stroke="#000000" d="M618.4697,-122.2819C618.4697,-137.9478 618.4697,-158 618.4697,-158 618.4697,-158 1004.641,-158 1004.641,-158"/>
<polygon fill="#000000" stroke="#000000" points="1004.641,-161.5001 1014.641,-158 1004.6409,-154.5001 1004.641,-161.5001"/>
</g>
<!-- BrowserModule -->
<g id="node12" class="node">
<title>BrowserModule</title>
<polygon fill="#8dd3c7" stroke="#000000" points="536.4734,-122 533.4734,-126 512.4734,-126 509.4734,-122 429.5266,-122 429.5266,-86 536.4734,-86 536.4734,-122"/>
<text text-anchor="middle" x="483" y="-99.8" font-family="Times,serif" font-size="14.00" fill="#000000">BrowserModule</text>
</g>
<!-- BrowserModule&#45;&gt;WickeyAppStoreModule -->
<g id="edge11" class="edge">
<title>BrowserModule&#45;&gt;WickeyAppStoreModule</title>
<path fill="none" stroke="#000000" d="M483,-122.0352C483,-138.7344 483,-161 483,-161 483,-161 1004.502,-161 1004.502,-161"/>
<polygon fill="#000000" stroke="#000000" points="1004.502,-164.5001 1014.502,-161 1004.5019,-157.5001 1004.502,-164.5001"/>
</g>
<!-- FormsModule -->
<g id="node13" class="node">
<title>FormsModule</title>
<polygon fill="#8dd3c7" stroke="#000000" points="411.8288,-122 408.8288,-126 387.8288,-126 384.8288,-122 316.1712,-122 316.1712,-86 411.8288,-86 411.8288,-122"/>
<text text-anchor="middle" x="364" y="-99.8" font-family="Times,serif" font-size="14.00" fill="#000000">FormsModule</text>
</g>
<!-- FormsModule&#45;&gt;WickeyAppStoreModule -->
<g id="edge12" class="edge">
<title>FormsModule&#45;&gt;WickeyAppStoreModule</title>
<path fill="none" stroke="#000000" d="M392.4041,-122.302C392.4041,-140.2699 392.4041,-165 392.4041,-165 392.4041,-165 1004.672,-165 1004.672,-165"/>
<polygon fill="#000000" stroke="#000000" points="1004.6721,-168.5001 1014.672,-165 1004.672,-161.5001 1004.6721,-168.5001"/>
</g>
<!-- HttpModule -->
<g id="node14" class="node">
<title>HttpModule</title>
<polygon fill="#8dd3c7" stroke="#000000" points="298.4387,-122 295.4387,-126 274.4387,-126 271.4387,-122 213.5613,-122 213.5613,-86 298.4387,-86 298.4387,-122"/>
<text text-anchor="middle" x="256" y="-99.8" font-family="Times,serif" font-size="14.00" fill="#000000">HttpModule</text>
</g>
<!-- HttpModule&#45;&gt;WickeyAppStoreModule -->
<g id="edge13" class="edge">
<title>HttpModule&#45;&gt;WickeyAppStoreModule</title>
<path fill="none" stroke="#000000" d="M256,-122.1686C256,-141.0898 256,-168 256,-168 256,-168 1004.6333,-168 1004.6333,-168"/>
<polygon fill="#000000" stroke="#000000" points="1004.6333,-171.5001 1014.6333,-168 1004.6332,-164.5001 1004.6333,-171.5001"/>
</g>
<!-- BrowserAnimationsModule -->
<g id="node15" class="node">
<title>BrowserAnimationsModule</title>
<polygon fill="#8dd3c7" stroke="#000000" points="196.3019,-122 193.3019,-126 172.3019,-126 169.3019,-122 23.6981,-122 23.6981,-86 196.3019,-86 196.3019,-122"/>
<text text-anchor="middle" x="110" y="-99.8" font-family="Times,serif" font-size="14.00" fill="#000000">BrowserAnimationsModule</text>
</g>
<!-- BrowserAnimationsModule&#45;&gt;WickeyAppStoreModule -->
<g id="edge14" class="edge">
<title>BrowserAnimationsModule&#45;&gt;WickeyAppStoreModule</title>
<path fill="none" stroke="#000000" d="M174.7095,-122.308C174.7095,-142.1455 174.7095,-171 174.7095,-171 174.7095,-171 1004.7071,-171 1004.7071,-171"/>
<polygon fill="#000000" stroke="#000000" points="1004.7071,-174.5001 1014.7071,-171 1004.707,-167.5001 1004.7071,-174.5001"/>
</g>
</g>
</svg>
