<?xml version="1.0" encoding="UTF-8" standalone="no"?>
<!DOCTYPE svg PUBLIC "-//W3C//DTD SVG 1.1//EN"
 "http://www.w3.org/Graphics/SVG/1.1/DTD/svg11.dtd">
<!-- Generated by graphviz version 2.40.1 (20161225.0304)
 -->
<!-- Title: dependencies Pages: 1 -->
<svg width="3090pt" height="284pt"
 viewBox="0.00 0.00 3090.00 284.00" xmlns="http://www.w3.org/2000/svg" xmlns:xlink="http://www.w3.org/1999/xlink">
<g id="graph0" class="graph" transform="scale(1 1) rotate(0) translate(4 280)">
<title>dependencies</title>
<polygon fill="#ffffff" stroke="transparent" points="-4,4 -4,-280 3086,-280 3086,4 -4,4"/>
<text text-anchor="start" x="1520.0091" y="-42.4" font-family="sans-serif" font-weight="bold" font-size="14.00" fill="#000000">Legend</text>
<polygon fill="#ffffb3" stroke="transparent" points="1307,-10 1307,-30 1327,-30 1327,-10 1307,-10"/>
<text text-anchor="start" x="1330.629" y="-15.4" font-family="sans-serif" font-size="14.00" fill="#000000"> &#160;Declarations</text>
<polygon fill="#8dd3c7" stroke="transparent" points="1420,-10 1420,-30 1440,-30 1440,-10 1420,-10"/>
<text text-anchor="start" x="1443.7251" y="-15.4" font-family="sans-serif" font-size="14.00" fill="#000000"> &#160;Module</text>
<polygon fill="#80b1d3" stroke="transparent" points="1506,-10 1506,-30 1526,-30 1526,-10 1506,-10"/>
<text text-anchor="start" x="1529.7812" y="-15.4" font-family="sans-serif" font-size="14.00" fill="#000000"> &#160;Bootstrap</text>
<polygon fill="#fdb462" stroke="transparent" points="1603,-10 1603,-30 1623,-30 1623,-10 1603,-10"/>
<text text-anchor="start" x="1626.6732" y="-15.4" font-family="sans-serif" font-size="14.00" fill="#000000"> &#160;Providers</text>
<polygon fill="#fb8072" stroke="transparent" points="1699,-10 1699,-30 1719,-30 1719,-10 1699,-10"/>
<text text-anchor="start" x="1722.7258" y="-15.4" font-family="sans-serif" font-size="14.00" fill="#000000"> &#160;Exports</text>
<g id="clust1" class="cluster">
<title>cluster_WickeyAppStoreModule</title>
<polygon fill="none" stroke="#000000" stroke-dasharray="1,5" points="8,-70 8,-268 3074,-268 3074,-70 8,-70"/>
</g>
<g id="clust2" class="cluster">
<title>cluster_WickeyAppStoreModule_declarations</title>
<polygon fill="none" stroke="#000000" points="716,-78 716,-130 3066,-130 3066,-78 716,-78"/>
</g>
<g id="clust15" class="cluster">
<title>cluster_WickeyAppStoreModule_imports</title>
<polygon fill="none" stroke="#000000" points="16,-78 16,-130 708,-130 708,-78 16,-78"/>
</g>
<g id="clust16" class="cluster">
<title>cluster_WickeyAppStoreModule_exports</title>
<polygon fill="none" stroke="#000000" points="186,-208 186,-260 2575,-260 2575,-208 186,-208"/>
</g>
<!-- WickeyAppStoreComponent -->
<g id="node1" class="node">
<title>WickeyAppStoreComponent</title>
<polygon fill="#ffffb3" stroke="#000000" points="3058.0224,-122 2879.9776,-122 2879.9776,-86 3058.0224,-86 3058.0224,-122"/>
<text text-anchor="middle" x="2969" y="-99.8" font-family="Times,serif" font-size="14.00" fill="#000000">WickeyAppStoreComponent</text>
</g>
<!-- WickeyAppStoreModule -->
<g id="node13" class="node">
<title>WickeyAppStoreModule</title>
<polygon fill="#8dd3c7" stroke="#000000" points="1471.2394,-187 1468.2394,-191 1447.2394,-191 1444.2394,-187 1314.7606,-187 1314.7606,-151 1471.2394,-151 1471.2394,-187"/>
<text text-anchor="middle" x="1393" y="-164.8" font-family="Times,serif" font-size="14.00" fill="#000000">WickeyAppStoreModule</text>
</g>
<!-- WickeyAppStoreComponent&#45;&gt;WickeyAppStoreModule -->
<g id="edge1" class="edge">
<title>WickeyAppStoreComponent&#45;&gt;WickeyAppStoreModule</title>
<path fill="none" stroke="#000000" d="M2969,-122.2228C2969,-142.3652 2969,-172 2969,-172 2969,-172 1481.4235,-172 1481.4235,-172"/>
<polygon fill="#000000" stroke="#000000" points="1481.4235,-168.5001 1471.4235,-172 1481.4234,-175.5001 1481.4235,-168.5001"/>
</g>
<!-- WASAlertPopupComponent -->
<g id="node2" class="node">
<title>WASAlertPopupComponent</title>
<polygon fill="#ffffb3" stroke="#000000" points="2861.4818,-122 2684.5182,-122 2684.5182,-86 2861.4818,-86 2861.4818,-122"/>
<text text-anchor="middle" x="2773" y="-99.8" font-family="Times,serif" font-size="14.00" fill="#000000">WASAlertPopupComponent</text>
</g>
<!-- WASAlertPopupComponent&#45;&gt;WickeyAppStoreModule -->
<g id="edge2" class="edge">
<title>WASAlertPopupComponent&#45;&gt;WickeyAppStoreModule</title>
<path fill="none" stroke="#000000" d="M2773,-122.1061C2773,-141.3391 2773,-169 2773,-169 2773,-169 1481.3989,-169 1481.3989,-169"/>
<polygon fill="#000000" stroke="#000000" points="1481.3989,-165.5001 1471.3989,-169 1481.3988,-172.5001 1481.3989,-165.5001"/>
</g>
<!-- DisplayAppsComponent -->
<g id="node3" class="node">
<title>DisplayAppsComponent</title>
<polygon fill="#ffffb3" stroke="#000000" points="2666.4312,-122 2511.5688,-122 2511.5688,-86 2666.4312,-86 2666.4312,-122"/>
<text text-anchor="middle" x="2589" y="-99.8" font-family="Times,serif" font-size="14.00" fill="#000000">DisplayAppsComponent</text>
</g>
<!-- DisplayAppsComponent&#45;&gt;WickeyAppStoreModule -->
<g id="edge3" class="edge">
<title>DisplayAppsComponent&#45;&gt;WickeyAppStoreModule</title>
<path fill="none" stroke="#000000" d="M2539.3978,-122.2222C2539.3978,-140.8285 2539.3978,-167 2539.3978,-167 2539.3978,-167 1481.3454,-167 1481.3454,-167"/>
<polygon fill="#000000" stroke="#000000" points="1481.3454,-163.5001 1471.3454,-167 1481.3453,-170.5001 1481.3454,-163.5001"/>
</g>
<!-- AppDetailPageComponent -->
<g id="node4" class="node">
<title>AppDetailPageComponent</title>
<polygon fill="#ffffb3" stroke="#000000" points="2493.3585,-122 2326.6415,-122 2326.6415,-86 2493.3585,-86 2493.3585,-122"/>
<text text-anchor="middle" x="2410" y="-99.8" font-family="Times,serif" font-size="14.00" fill="#000000">AppDetailPageComponent</text>
</g>
<!-- AppDetailPageComponent&#45;&gt;WickeyAppStoreModule -->
<g id="edge4" class="edge">
<title>AppDetailPageComponent&#45;&gt;WickeyAppStoreModule</title>
<path fill="none" stroke="#000000" d="M2346.9059,-122.002C2346.9059,-139.6754 2346.9059,-164 2346.9059,-164 2346.9059,-164 1481.4675,-164 1481.4675,-164"/>
<polygon fill="#000000" stroke="#000000" points="1481.4675,-160.5001 1471.4675,-164 1481.4674,-167.5001 1481.4675,-160.5001"/>
</g>
<!-- AppReviewsPageComponent -->
<g id="node5" class="node">
<title>AppReviewsPageComponent</title>
<polygon fill="#ffffb3" stroke="#000000" points="2308.3585,-122 2127.6415,-122 2127.6415,-86 2308.3585,-86 2308.3585,-122"/>
<text text-anchor="middle" x="2218" y="-99.8" font-family="Times,serif" font-size="14.00" fill="#000000">AppReviewsPageComponent</text>
</g>
<!-- AppReviewsPageComponent&#45;&gt;WickeyAppStoreModule -->
<g id="edge5" class="edge">
<title>AppReviewsPageComponent&#45;&gt;WickeyAppStoreModule</title>
<path fill="none" stroke="#000000" d="M2148.268,-122.0336C2148.268,-139.0597 2148.268,-162 2148.268,-162 2148.268,-162 1481.3356,-162 1481.3356,-162"/>
<polygon fill="#000000" stroke="#000000" points="1481.3356,-158.5001 1471.3356,-162 1481.3355,-165.5001 1481.3356,-158.5001"/>
</g>
<!-- AppGroupHorizontalComponent -->
<g id="node6" class="node">
<title>AppGroupHorizontalComponent</title>
<polygon fill="#ffffb3" stroke="#000000" points="2109.5744,-122 1908.4256,-122 1908.4256,-86 2109.5744,-86 2109.5744,-122"/>
<text text-anchor="middle" x="2009" y="-99.8" font-family="Times,serif" font-size="14.00" fill="#000000">AppGroupHorizontalComponent</text>
</g>
<!-- AppGroupHorizontalComponent&#45;&gt;WickeyAppStoreModule -->
<g id="edge6" class="edge">
<title>AppGroupHorizontalComponent&#45;&gt;WickeyAppStoreModule</title>
<path fill="none" stroke="#000000" d="M1950.821,-122.0091C1950.821,-138.0494 1950.821,-159 1950.821,-159 1950.821,-159 1481.4443,-159 1481.4443,-159"/>
<polygon fill="#000000" stroke="#000000" points="1481.4443,-155.5001 1471.4443,-159 1481.4443,-162.5001 1481.4443,-155.5001"/>
</g>
<!-- AppGroupVerticalComponent -->
<g id="node7" class="node">
<title>AppGroupVerticalComponent</title>
<polygon fill="#ffffb3" stroke="#000000" points="1890.2892,-122 1703.7108,-122 1703.7108,-86 1890.2892,-86 1890.2892,-122"/>
<text text-anchor="middle" x="1797" y="-99.8" font-family="Times,serif" font-size="14.00" fill="#000000">AppGroupVerticalComponent</text>
</g>
<!-- AppGroupVerticalComponent&#45;&gt;WickeyAppStoreModule -->
<g id="edge7" class="edge">
<title>AppGroupVerticalComponent&#45;&gt;WickeyAppStoreModule</title>
<path fill="none" stroke="#000000" d="M1754.5174,-122.2396C1754.5174,-137.5706 1754.5174,-157 1754.5174,-157 1754.5174,-157 1481.4439,-157 1481.4439,-157"/>
<polygon fill="#000000" stroke="#000000" points="1481.4439,-153.5001 1471.4439,-157 1481.4438,-160.5001 1481.4439,-153.5001"/>
</g>
<!-- DisplayAppMiniComponent -->
<g id="node8" class="node">
<title>DisplayAppMiniComponent</title>
<polygon fill="#ffffb3" stroke="#000000" points="1686.2119,-122 1509.7881,-122 1509.7881,-86 1686.2119,-86 1686.2119,-122"/>
<text text-anchor="middle" x="1598" y="-99.8" font-family="Times,serif" font-size="14.00" fill="#000000">DisplayAppMiniComponent</text>
</g>
<!-- DisplayAppMiniComponent&#45;&gt;WickeyAppStoreModule -->
<g id="edge8" class="edge">
<title>DisplayAppMiniComponent&#45;&gt;WickeyAppStoreModule</title>
<path fill="none" stroke="#000000" d="M1556.5907,-122.0511C1556.5907,-136.373 1556.5907,-154 1556.5907,-154 1556.5907,-154 1481.4413,-154 1481.4413,-154"/>
<polygon fill="#000000" stroke="#000000" points="1481.4413,-150.5001 1471.4413,-154 1481.4412,-157.5001 1481.4413,-150.5001"/>
</g>
<!-- DisplayAppFeaturedComponent -->
<g id="node9" class="node">
<title>DisplayAppFeaturedComponent</title>
<polygon fill="#ffffb3" stroke="#000000" points="1491.9636,-122 1294.0364,-122 1294.0364,-86 1491.9636,-86 1491.9636,-122"/>
<text text-anchor="middle" x="1393" y="-99.8" font-family="Times,serif" font-size="14.00" fill="#000000">DisplayAppFeaturedComponent</text>
</g>
<!-- DisplayAppFeaturedComponent&#45;&gt;WickeyAppStoreModule -->
<g id="edge9" class="edge">
<title>DisplayAppFeaturedComponent&#45;&gt;WickeyAppStoreModule</title>
<path fill="none" stroke="#000000" d="M1393,-122.1061C1393,-122.1061 1393,-140.991 1393,-140.991"/>
<polygon fill="#000000" stroke="#000000" points="1389.5001,-140.9909 1393,-150.991 1396.5001,-140.991 1389.5001,-140.9909"/>
</g>
<!-- PopoverBaseComponent -->
<g id="node10" class="node">
<title>PopoverBaseComponent</title>
<polygon fill="#ffffb3" stroke="#000000" points="1275.7007,-122 1120.2993,-122 1120.2993,-86 1275.7007,-86 1275.7007,-122"/>
<text text-anchor="middle" x="1198" y="-99.8" font-family="Times,serif" font-size="14.00" fill="#000000">PopoverBaseComponent</text>
</g>
<!-- PopoverBaseComponent&#45;&gt;WickeyAppStoreModule -->
<g id="edge10" class="edge">
<title>PopoverBaseComponent&#45;&gt;WickeyAppStoreModule</title>
<path fill="none" stroke="#000000" d="M1233.3529,-122.0511C1233.3529,-136.373 1233.3529,-154 1233.3529,-154 1233.3529,-154 1304.5795,-154 1304.5795,-154"/>
<polygon fill="#000000" stroke="#000000" points="1304.5796,-157.5001 1314.5795,-154 1304.5795,-150.5001 1304.5796,-157.5001"/>
</g>
<!-- PopoverAccountInfoComponent -->
<g id="node11" class="node">
<title>PopoverAccountInfoComponent</title>
<polygon fill="#ffffb3" stroke="#000000" points="1102.238,-122 903.762,-122 903.762,-86 1102.238,-86 1102.238,-122"/>
<text text-anchor="middle" x="1003" y="-99.8" font-family="Times,serif" font-size="14.00" fill="#000000">PopoverAccountInfoComponent</text>
</g>
<!-- PopoverAccountInfoComponent&#45;&gt;WickeyAppStoreModule -->
<g id="edge11" class="edge">
<title>PopoverAccountInfoComponent&#45;&gt;WickeyAppStoreModule</title>
<path fill="none" stroke="#000000" d="M1047.7565,-122.2396C1047.7565,-137.5706 1047.7565,-157 1047.7565,-157 1047.7565,-157 1304.6589,-157 1304.6589,-157"/>
<polygon fill="#000000" stroke="#000000" points="1304.6589,-160.5001 1314.6589,-157 1304.6589,-153.5001 1304.6589,-160.5001"/>
</g>
<!-- PopoverLoginComponent -->
<g id="node12" class="node">
<title>PopoverLoginComponent</title>
<polygon fill="#ffffb3" stroke="#000000" points="885.934,-122 724.066,-122 724.066,-86 885.934,-86 885.934,-122"/>
<text text-anchor="middle" x="805" y="-99.8" font-family="Times,serif" font-size="14.00" fill="#000000">PopoverLoginComponent</text>
</g>
<!-- PopoverLoginComponent&#45;&gt;WickeyAppStoreModule -->
<g id="edge12" class="edge">
<title>PopoverLoginComponent&#45;&gt;WickeyAppStoreModule</title>
<path fill="none" stroke="#000000" d="M829.4925,-122.0091C829.4925,-138.0494 829.4925,-159 829.4925,-159 829.4925,-159 1304.6467,-159 1304.6467,-159"/>
<polygon fill="#000000" stroke="#000000" points="1304.6467,-162.5001 1314.6467,-159 1304.6467,-155.5001 1304.6467,-162.5001"/>
</g>
<!-- WickeyAppStoreComponent  -->
<g id="node19" class="node">
<title>WickeyAppStoreComponent </title>
<polygon fill="#fb8072" stroke="#000000" points="2567.0218,-252 2384.9782,-252 2384.9782,-216 2567.0218,-216 2567.0218,-252"/>
<text text-anchor="middle" x="2476" y="-229.8" font-family="Times,serif" font-size="14.00" fill="#000000">WickeyAppStoreComponent </text>
</g>
<!-- WickeyAppStoreModule&#45;&gt;WickeyAppStoreComponent  -->
<g id="edge18" class="edge">
<title>WickeyAppStoreModule&#45;&gt;WickeyAppStoreComponent </title>
<path fill="none" stroke="#000000" stroke-dasharray="5,2" d="M1471.6357,-175C1714.9437,-175 2439.2091,-175 2439.2091,-175 2439.2091,-175 2439.2091,-205.9775 2439.2091,-205.9775"/>
<polygon fill="#000000" stroke="#000000" points="2435.7092,-205.9774 2439.2091,-215.9775 2442.7092,-205.9775 2435.7092,-205.9774"/>
</g>
<!-- WASAlertPopupComponent  -->
<g id="node20" class="node">
<title>WASAlertPopupComponent </title>
<polygon fill="#fb8072" stroke="#000000" points="2367.4824,-252 2186.5176,-252 2186.5176,-216 2367.4824,-216 2367.4824,-252"/>
<text text-anchor="middle" x="2277" y="-229.8" font-family="Times,serif" font-size="14.00" fill="#000000">WASAlertPopupComponent </text>
</g>
<!-- WickeyAppStoreModule&#45;&gt;WASAlertPopupComponent  -->
<g id="edge19" class="edge">
<title>WickeyAppStoreModule&#45;&gt;WASAlertPopupComponent </title>
<path fill="none" stroke="#000000" stroke-dasharray="5,2" d="M1471.4853,-177C1682.7502,-177 2247.5942,-177 2247.5942,-177 2247.5942,-177 2247.5942,-205.9648 2247.5942,-205.9648"/>
<polygon fill="#000000" stroke="#000000" points="2244.0942,-205.9648 2247.5942,-215.9648 2251.0942,-205.9649 2244.0942,-205.9648"/>
</g>
<!-- DisplayAppsComponent  -->
<g id="node21" class="node">
<title>DisplayAppsComponent </title>
<polygon fill="#fb8072" stroke="#000000" points="2168.9306,-252 2011.0694,-252 2011.0694,-216 2168.9306,-216 2168.9306,-252"/>
<text text-anchor="middle" x="2090" y="-229.8" font-family="Times,serif" font-size="14.00" fill="#000000">DisplayAppsComponent </text>
</g>
<!-- WickeyAppStoreModule&#45;&gt;DisplayAppsComponent  -->
<g id="edge20" class="edge">
<title>WickeyAppStoreModule&#45;&gt;DisplayAppsComponent </title>
<path fill="none" stroke="#000000" stroke-dasharray="5,2" d="M1471.5084,-180C1647.9,-180 2060.286,-180 2060.286,-180 2060.286,-180 2060.286,-205.7181 2060.286,-205.7181"/>
<polygon fill="#000000" stroke="#000000" points="2056.786,-205.718 2060.286,-215.7181 2063.786,-205.7181 2056.786,-205.718"/>
</g>
<!-- AppDetailPageComponent  -->
<g id="node22" class="node">
<title>AppDetailPageComponent </title>
<polygon fill="#fb8072" stroke="#000000" points="1993.3588,-252 1822.6412,-252 1822.6412,-216 1993.3588,-216 1993.3588,-252"/>
<text text-anchor="middle" x="1908" y="-229.8" font-family="Times,serif" font-size="14.00" fill="#000000">AppDetailPageComponent </text>
</g>
<!-- WickeyAppStoreModule&#45;&gt;AppDetailPageComponent  -->
<g id="edge21" class="edge">
<title>WickeyAppStoreModule&#45;&gt;AppDetailPageComponent </title>
<path fill="none" stroke="#000000" stroke-dasharray="5,2" d="M1471.3613,-182C1603.5229,-182 1856.4827,-182 1856.4827,-182 1856.4827,-182 1856.4827,-205.8129 1856.4827,-205.8129"/>
<polygon fill="#000000" stroke="#000000" points="1852.9827,-205.8129 1856.4827,-215.8129 1859.9827,-205.813 1852.9827,-205.8129"/>
</g>
<!-- AppReviewsPageComponent  -->
<g id="node23" class="node">
<title>AppReviewsPageComponent </title>
<polygon fill="#fb8072" stroke="#000000" points="1805.3587,-252 1620.6413,-252 1620.6413,-216 1805.3587,-216 1805.3587,-252"/>
<text text-anchor="middle" x="1713" y="-229.8" font-family="Times,serif" font-size="14.00" fill="#000000">AppReviewsPageComponent </text>
</g>
<!-- WickeyAppStoreModule&#45;&gt;AppReviewsPageComponent  -->
<g id="edge22" class="edge">
<title>WickeyAppStoreModule&#45;&gt;AppReviewsPageComponent </title>
<path fill="none" stroke="#000000" stroke-dasharray="5,2" d="M1471.5008,-185C1548.1924,-185 1653.4634,-185 1653.4634,-185 1653.4634,-185 1653.4634,-205.7542 1653.4634,-205.7542"/>
<polygon fill="#000000" stroke="#000000" points="1649.9634,-205.7542 1653.4634,-215.7542 1656.9634,-205.7542 1649.9634,-205.7542"/>
</g>
<!-- AppGroupHorizontalComponent  -->
<g id="node24" class="node">
<title>AppGroupHorizontalComponent </title>
<polygon fill="#fb8072" stroke="#000000" points="1603.0748,-252 1398.9252,-252 1398.9252,-216 1603.0748,-216 1603.0748,-252"/>
<text text-anchor="middle" x="1501" y="-229.8" font-family="Times,serif" font-size="14.00" fill="#000000">AppGroupHorizontalComponent </text>
</g>
<!-- WickeyAppStoreModule&#45;&gt;AppGroupHorizontalComponent  -->
<g id="edge23" class="edge">
<title>WickeyAppStoreModule&#45;&gt;AppGroupHorizontalComponent </title>
<path fill="none" stroke="#000000" stroke-dasharray="5,2" d="M1435.0412,-187.1061C1435.0412,-187.1061 1435.0412,-205.991 1435.0412,-205.991"/>
<polygon fill="#000000" stroke="#000000" points="1431.5413,-205.9909 1435.0412,-215.991 1438.5413,-205.991 1431.5413,-205.9909"/>
</g>
<!-- AppGroupVerticalComponent  -->
<g id="node25" class="node">
<title>AppGroupVerticalComponent </title>
<polygon fill="#fb8072" stroke="#000000" points="1380.7891,-252 1191.2109,-252 1191.2109,-216 1380.7891,-216 1380.7891,-252"/>
<text text-anchor="middle" x="1286" y="-229.8" font-family="Times,serif" font-size="14.00" fill="#000000">AppGroupVerticalComponent </text>
</g>
<!-- WickeyAppStoreModule&#45;&gt;AppGroupVerticalComponent  -->
<g id="edge24" class="edge">
<title>WickeyAppStoreModule&#45;&gt;AppGroupVerticalComponent </title>
<path fill="none" stroke="#000000" stroke-dasharray="5,2" d="M1347.7625,-187.1061C1347.7625,-187.1061 1347.7625,-205.991 1347.7625,-205.991"/>
<polygon fill="#000000" stroke="#000000" points="1344.2625,-205.9909 1347.7625,-215.991 1351.2625,-205.991 1344.2625,-205.9909"/>
</g>
<!-- DisplayAppMiniComponent  -->
<g id="node26" class="node">
<title>DisplayAppMiniComponent </title>
<polygon fill="#fb8072" stroke="#000000" points="1172.712,-252 993.288,-252 993.288,-216 1172.712,-216 1172.712,-252"/>
<text text-anchor="middle" x="1083" y="-229.8" font-family="Times,serif" font-size="14.00" fill="#000000">DisplayAppMiniComponent </text>
</g>
<!-- WickeyAppStoreModule&#45;&gt;DisplayAppMiniComponent  -->
<g id="edge25" class="edge">
<title>WickeyAppStoreModule&#45;&gt;DisplayAppMiniComponent </title>
<path fill="none" stroke="#000000" stroke-dasharray="5,2" d="M1314.7078,-185C1242.5664,-185 1146.6278,-185 1146.6278,-185 1146.6278,-185 1146.6278,-205.7542 1146.6278,-205.7542"/>
<polygon fill="#000000" stroke="#000000" points="1143.1279,-205.7542 1146.6278,-215.7542 1150.1279,-205.7542 1143.1279,-205.7542"/>
</g>
<!-- DisplayAppFeaturedComponent  -->
<g id="node27" class="node">
<title>DisplayAppFeaturedComponent </title>
<polygon fill="#fb8072" stroke="#000000" points="974.9641,-252 773.0359,-252 773.0359,-216 974.9641,-216 974.9641,-252"/>
<text text-anchor="middle" x="874" y="-229.8" font-family="Times,serif" font-size="14.00" fill="#000000">DisplayAppFeaturedComponent </text>
</g>
<!-- WickeyAppStoreModule&#45;&gt;DisplayAppFeaturedComponent  -->
<g id="edge26" class="edge">
<title>WickeyAppStoreModule&#45;&gt;DisplayAppFeaturedComponent </title>
<path fill="none" stroke="#000000" stroke-dasharray="5,2" d="M1314.7275,-182C1184.9062,-182 939.1815,-182 939.1815,-182 939.1815,-182 939.1815,-205.8129 939.1815,-205.8129"/>
<polygon fill="#000000" stroke="#000000" points="935.6815,-205.8129 939.1815,-215.8129 942.6815,-205.813 935.6815,-205.8129"/>
</g>
<!-- PopoverBaseComponent  -->
<g id="node28" class="node">
<title>PopoverBaseComponent </title>
<polygon fill="#fb8072" stroke="#000000" points="755.2009,-252 596.7991,-252 596.7991,-216 755.2009,-216 755.2009,-252"/>
<text text-anchor="middle" x="676" y="-229.8" font-family="Times,serif" font-size="14.00" fill="#000000">PopoverBaseComponent </text>
</g>
<!-- WickeyAppStoreModule&#45;&gt;PopoverBaseComponent  -->
<g id="edge27" class="edge">
<title>WickeyAppStoreModule&#45;&gt;PopoverBaseComponent </title>
<path fill="none" stroke="#000000" stroke-dasharray="5,2" d="M1314.5355,-180C1140.9838,-180 739.8168,-180 739.8168,-180 739.8168,-180 739.8168,-205.7181 739.8168,-205.7181"/>
<polygon fill="#000000" stroke="#000000" points="736.3169,-205.718 739.8168,-215.7181 743.3169,-205.7181 736.3169,-205.718"/>
</g>
<!-- PopoverAccountInfoComponent  -->
<g id="node29" class="node">
<title>PopoverAccountInfoComponent </title>
<polygon fill="#fb8072" stroke="#000000" points="579.2379,-252 376.7621,-252 376.7621,-216 579.2379,-216 579.2379,-252"/>
<text text-anchor="middle" x="478" y="-229.8" font-family="Times,serif" font-size="14.00" fill="#000000">PopoverAccountInfoComponent </text>
</g>
<!-- WickeyAppStoreModule&#45;&gt;PopoverAccountInfoComponent  -->
<g id="edge28" class="edge">
<title>WickeyAppStoreModule&#45;&gt;PopoverAccountInfoComponent </title>
<path fill="none" stroke="#000000" stroke-dasharray="5,2" d="M1314.5478,-177C1109.7596,-177 574.8028,-177 574.8028,-177 574.8028,-177 574.8028,-205.9648 574.8028,-205.9648"/>
<polygon fill="#000000" stroke="#000000" points="571.3029,-205.9648 574.8028,-215.9648 578.3029,-205.9649 571.3029,-205.9648"/>
</g>
<!-- PopoverLoginComponent  -->
<g id="node30" class="node">
<title>PopoverLoginComponent </title>
<polygon fill="#fb8072" stroke="#000000" points="358.4334,-252 193.5666,-252 193.5666,-216 358.4334,-216 358.4334,-252"/>
<text text-anchor="middle" x="276" y="-229.8" font-family="Times,serif" font-size="14.00" fill="#000000">PopoverLoginComponent </text>
</g>
<!-- WickeyAppStoreModule&#45;&gt;PopoverLoginComponent  -->
<g id="edge29" class="edge">
<title>WickeyAppStoreModule&#45;&gt;PopoverLoginComponent </title>
<path fill="none" stroke="#000000" stroke-dasharray="5,2" d="M1314.5106,-175C1072.5546,-175 354.4013,-175 354.4013,-175 354.4013,-175 354.4013,-205.9775 354.4013,-205.9775"/>
<polygon fill="#000000" stroke="#000000" points="350.9014,-205.9774 354.4013,-215.9775 357.9014,-205.9775 350.9014,-205.9774"/>
</g>
<!-- CommonModule -->
<g id="node14" class="node">
<title>CommonModule</title>
<polygon fill="#8dd3c7" stroke="#000000" points="699.6681,-122 696.6681,-126 675.6681,-126 672.6681,-122 588.3319,-122 588.3319,-86 699.6681,-86 699.6681,-122"/>
<text text-anchor="middle" x="644" y="-99.8" font-family="Times,serif" font-size="14.00" fill="#000000">CommonModule</text>
</g>
<!-- CommonModule&#45;&gt;WickeyAppStoreModule -->
<g id="edge13" class="edge">
<title>CommonModule&#45;&gt;WickeyAppStoreModule</title>
<path fill="none" stroke="#000000" d="M648.2418,-122.0336C648.2418,-139.0597 648.2418,-162 648.2418,-162 648.2418,-162 1304.7055,-162 1304.7055,-162"/>
<polygon fill="#000000" stroke="#000000" points="1304.7055,-165.5001 1314.7055,-162 1304.7054,-158.5001 1304.7055,-165.5001"/>
</g>
<!-- BrowserModule -->
<g id="node15" class="node">
<title>BrowserModule</title>
<polygon fill="#8dd3c7" stroke="#000000" points="570.4734,-122 567.4734,-126 546.4734,-126 543.4734,-122 463.5266,-122 463.5266,-86 570.4734,-86 570.4734,-122"/>
<text text-anchor="middle" x="517" y="-99.8" font-family="Times,serif" font-size="14.00" fill="#000000">BrowserModule</text>
</g>
<!-- BrowserModule&#45;&gt;WickeyAppStoreModule -->
<g id="edge14" class="edge">
<title>BrowserModule&#45;&gt;WickeyAppStoreModule</title>
<path fill="none" stroke="#000000" d="M517,-122.002C517,-139.6754 517,-164 517,-164 517,-164 1304.4899,-164 1304.4899,-164"/>
<polygon fill="#000000" stroke="#000000" points="1304.49,-167.5001 1314.4899,-164 1304.4899,-160.5001 1304.49,-167.5001"/>
</g>
<!-- FormsModule -->
<g id="node16" class="node">
<title>FormsModule</title>
<polygon fill="#8dd3c7" stroke="#000000" points="445.8288,-122 442.8288,-126 421.8288,-126 418.8288,-122 350.1712,-122 350.1712,-86 445.8288,-86 445.8288,-122"/>
<text text-anchor="middle" x="398" y="-99.8" font-family="Times,serif" font-size="14.00" fill="#000000">FormsModule</text>
</g>
<!-- FormsModule&#45;&gt;WickeyAppStoreModule -->
<g id="edge15" class="edge">
<title>FormsModule&#45;&gt;WickeyAppStoreModule</title>
<path fill="none" stroke="#000000" d="M411.2726,-122.2222C411.2726,-140.8285 411.2726,-167 411.2726,-167 411.2726,-167 1304.7332,-167 1304.7332,-167"/>
<polygon fill="#000000" stroke="#000000" points="1304.7333,-170.5001 1314.7332,-167 1304.7332,-163.5001 1304.7333,-170.5001"/>
</g>
<!-- HttpClientModule -->
<g id="node17" class="node">
<title>HttpClientModule</title>
<polygon fill="#8dd3c7" stroke="#000000" points="332.1611,-122 329.1611,-126 308.1611,-126 305.1611,-122 213.8389,-122 213.8389,-86 332.1611,-86 332.1611,-122"/>
<text text-anchor="middle" x="273" y="-99.8" font-family="Times,serif" font-size="14.00" fill="#000000">HttpClientModule</text>
</g>
<!-- HttpClientModule&#45;&gt;WickeyAppStoreModule -->
<g id="edge16" class="edge">
<title>HttpClientModule&#45;&gt;WickeyAppStoreModule</title>
<path fill="none" stroke="#000000" d="M273,-122.1061C273,-141.3391 273,-169 273,-169 273,-169 1304.6889,-169 1304.6889,-169"/>
<polygon fill="#000000" stroke="#000000" points="1304.689,-172.5001 1314.6889,-169 1304.6889,-165.5001 1304.689,-172.5001"/>
</g>
<!-- BrowserAnimationsModule -->
<g id="node18" class="node">
<title>BrowserAnimationsModule</title>
<polygon fill="#8dd3c7" stroke="#000000" points="196.3019,-122 193.3019,-126 172.3019,-126 169.3019,-122 23.6981,-122 23.6981,-86 196.3019,-86 196.3019,-122"/>
<text text-anchor="middle" x="110" y="-99.8" font-family="Times,serif" font-size="14.00" fill="#000000">BrowserAnimationsModule</text>
</g>
<!-- BrowserAnimationsModule&#45;&gt;WickeyAppStoreModule -->
<g id="edge17" class="edge">
<title>BrowserAnimationsModule&#45;&gt;WickeyAppStoreModule</title>
<path fill="none" stroke="#000000" d="M108.6913,-122.2228C108.6913,-142.3652 108.6913,-172 108.6913,-172 108.6913,-172 1304.594,-172 1304.594,-172"/>
<polygon fill="#000000" stroke="#000000" points="1304.5941,-175.5001 1314.594,-172 1304.594,-168.5001 1304.5941,-175.5001"/>
</g>
</g>
</svg>
