<?xml version="1.0" encoding="UTF-8" standalone="no"?>
<!DOCTYPE svg PUBLIC "-//W3C//DTD SVG 1.1//EN"
 "http://www.w3.org/Graphics/SVG/1.1/DTD/svg11.dtd">
<!-- Generated by graphviz version 2.40.1 (20161225.0304)
 -->
<!-- Title: dependencies Pages: 1 -->
<svg width="4634pt" height="349pt"
 viewBox="0.00 0.00 4634.00 349.00" xmlns="http://www.w3.org/2000/svg" xmlns:xlink="http://www.w3.org/1999/xlink">
<g id="graph0" class="graph" transform="scale(1 1) rotate(0) translate(4 345)">
<title>dependencies</title>
<polygon fill="#ffffff" stroke="transparent" points="-4,4 -4,-345 4630,-345 4630,4 -4,4"/>
<text text-anchor="start" x="2292.0091" y="-42.4" font-family="sans-serif" font-weight="bold" font-size="14.00" fill="#000000">Legend</text>
<polygon fill="#ffffb3" stroke="transparent" points="2079,-10 2079,-30 2099,-30 2099,-10 2079,-10"/>
<text text-anchor="start" x="2102.629" y="-15.4" font-family="sans-serif" font-size="14.00" fill="#000000"> &#160;Declarations</text>
<polygon fill="#8dd3c7" stroke="transparent" points="2192,-10 2192,-30 2212,-30 2212,-10 2192,-10"/>
<text text-anchor="start" x="2215.7251" y="-15.4" font-family="sans-serif" font-size="14.00" fill="#000000"> &#160;Module</text>
<polygon fill="#80b1d3" stroke="transparent" points="2278,-10 2278,-30 2298,-30 2298,-10 2278,-10"/>
<text text-anchor="start" x="2301.7812" y="-15.4" font-family="sans-serif" font-size="14.00" fill="#000000"> &#160;Bootstrap</text>
<polygon fill="#fdb462" stroke="transparent" points="2375,-10 2375,-30 2395,-30 2395,-10 2375,-10"/>
<text text-anchor="start" x="2398.6732" y="-15.4" font-family="sans-serif" font-size="14.00" fill="#000000"> &#160;Providers</text>
<polygon fill="#fb8072" stroke="transparent" points="2471,-10 2471,-30 2491,-30 2491,-10 2471,-10"/>
<text text-anchor="start" x="2494.7258" y="-15.4" font-family="sans-serif" font-size="14.00" fill="#000000"> &#160;Exports</text>
<g id="clust1" class="cluster">
<title>cluster_WickeyAppStoreModule</title>
<polygon fill="none" stroke="#000000" stroke-dasharray="1,5" points="8,-70 8,-333 4618,-333 4618,-70 8,-70"/>
</g>
<g id="clust2" class="cluster">
<title>cluster_WickeyAppStoreModule_declarations</title>
<polygon fill="none" stroke="#000000" points="877,-143 877,-195 4610,-195 4610,-143 877,-143"/>
</g>
<g id="clust17" class="cluster">
<title>cluster_WickeyAppStoreModule_CustomValidatorDirective_providers</title>
<polygon fill="none" stroke="#000000" points="1811,-78 1811,-130 1957,-130 1957,-78 1811,-78"/>
</g>
<g id="clust23" class="cluster">
<title>cluster_WickeyAppStoreModule_imports</title>
<polygon fill="none" stroke="#000000" points="739,-143 739,-195 869,-195 869,-143 739,-143"/>
</g>
<g id="clust24" class="cluster">
<title>cluster_WickeyAppStoreModule_exports</title>
<polygon fill="none" stroke="#000000" points="386,-273 386,-325 4188,-325 4188,-273 386,-273"/>
</g>
<g id="clust26" class="cluster">
<title>cluster_WickeyAppStoreModule_providers</title>
<polygon fill="none" stroke="#000000" points="16,-143 16,-195 731,-195 731,-143 16,-143"/>
</g>
<!-- WasSpinnerComponent -->
<g id="node1" class="node">
<title>WasSpinnerComponent</title>
<polygon fill="#ffffb3" stroke="#000000" points="4601.7548,-187 4452.2452,-187 4452.2452,-151 4601.7548,-151 4601.7548,-187"/>
<text text-anchor="middle" x="4527" y="-164.8" font-family="Times,serif" font-size="14.00" fill="#000000">WasSpinnerComponent</text>
</g>
<!-- WickeyAppStoreModule -->
<g id="node21" class="node">
<title>WickeyAppStoreModule</title>
<polygon fill="#8dd3c7" stroke="#000000" points="2296.2394,-252 2293.2394,-256 2272.2394,-256 2269.2394,-252 2139.7606,-252 2139.7606,-216 2296.2394,-216 2296.2394,-252"/>
<text text-anchor="middle" x="2218" y="-229.8" font-family="Times,serif" font-size="14.00" fill="#000000">WickeyAppStoreModule</text>
</g>
<!-- WasSpinnerComponent&#45;&gt;WickeyAppStoreModule -->
<g id="edge1" class="edge">
<title>WasSpinnerComponent&#45;&gt;WickeyAppStoreModule</title>
<path fill="none" stroke="#000000" d="M4527,-187.0348C4527,-206.5762 4527,-235 4527,-235 4527,-235 2306.48,-235 2306.48,-235"/>
<polygon fill="#000000" stroke="#000000" points="2306.48,-231.5001 2296.48,-235 2306.48,-238.5001 2306.48,-231.5001"/>
</g>
<!-- WickeyAppStoreComponent -->
<g id="node2" class="node">
<title>WickeyAppStoreComponent</title>
<polygon fill="#ffffb3" stroke="#000000" points="4434.0224,-187 4255.9776,-187 4255.9776,-151 4434.0224,-151 4434.0224,-187"/>
<text text-anchor="middle" x="4345" y="-164.8" font-family="Times,serif" font-size="14.00" fill="#000000">WickeyAppStoreComponent</text>
</g>
<!-- WickeyAppStoreComponent&#45;&gt;WickeyAppStoreModule -->
<g id="edge2" class="edge">
<title>WickeyAppStoreComponent&#45;&gt;WickeyAppStoreModule</title>
<path fill="none" stroke="#000000" d="M4345,-187.1061C4345,-206.3391 4345,-234 4345,-234 4345,-234 2306.5416,-234 2306.5416,-234"/>
<polygon fill="#000000" stroke="#000000" points="2306.5416,-230.5001 2296.5416,-234 2306.5415,-237.5001 2306.5416,-230.5001"/>
</g>
<!-- DisplayAppsComponent -->
<g id="node3" class="node">
<title>DisplayAppsComponent</title>
<polygon fill="#ffffb3" stroke="#000000" points="4238.4312,-187 4083.5688,-187 4083.5688,-151 4238.4312,-151 4238.4312,-187"/>
<text text-anchor="middle" x="4161" y="-164.8" font-family="Times,serif" font-size="14.00" fill="#000000">DisplayAppsComponent</text>
</g>
<!-- DisplayAppsComponent&#45;&gt;WickeyAppStoreModule -->
<g id="edge3" class="edge">
<title>DisplayAppsComponent&#45;&gt;WickeyAppStoreModule</title>
<path fill="none" stroke="#000000" d="M4131.706,-187.2222C4131.706,-205.8285 4131.706,-232 4131.706,-232 4131.706,-232 2306.2871,-232 2306.2871,-232"/>
<polygon fill="#000000" stroke="#000000" points="2306.2872,-228.5001 2296.2871,-232 2306.2871,-235.5001 2306.2872,-228.5001"/>
</g>
<!-- AppDetailPageComponent -->
<g id="node4" class="node">
<title>AppDetailPageComponent</title>
<polygon fill="#ffffb3" stroke="#000000" points="4065.3585,-187 3898.6415,-187 3898.6415,-151 4065.3585,-151 4065.3585,-187"/>
<text text-anchor="middle" x="3982" y="-164.8" font-family="Times,serif" font-size="14.00" fill="#000000">AppDetailPageComponent</text>
</g>
<!-- AppDetailPageComponent&#45;&gt;WickeyAppStoreModule -->
<g id="edge4" class="edge">
<title>AppDetailPageComponent&#45;&gt;WickeyAppStoreModule</title>
<path fill="none" stroke="#000000" d="M3953.2909,-187.302C3953.2909,-205.2699 3953.2909,-230 3953.2909,-230 3953.2909,-230 2306.5011,-230 2306.5011,-230"/>
<polygon fill="#000000" stroke="#000000" points="2306.5011,-226.5001 2296.5011,-230 2306.501,-233.5001 2306.5011,-226.5001"/>
</g>
<!-- AppGroupHorizontalComponent -->
<g id="node5" class="node">
<title>AppGroupHorizontalComponent</title>
<polygon fill="#ffffb3" stroke="#000000" points="3880.5744,-187 3679.4256,-187 3679.4256,-151 3880.5744,-151 3880.5744,-187"/>
<text text-anchor="middle" x="3780" y="-164.8" font-family="Times,serif" font-size="14.00" fill="#000000">AppGroupHorizontalComponent</text>
</g>
<!-- AppGroupHorizontalComponent&#45;&gt;WickeyAppStoreModule -->
<g id="edge5" class="edge">
<title>AppGroupHorizontalComponent&#45;&gt;WickeyAppStoreModule</title>
<path fill="none" stroke="#000000" d="M3743.714,-187.0225C3743.714,-204.3734 3743.714,-228 3743.714,-228 3743.714,-228 2306.2863,-228 2306.2863,-228"/>
<polygon fill="#000000" stroke="#000000" points="2306.2863,-224.5001 2296.2863,-228 2306.2863,-231.5001 2306.2863,-224.5001"/>
</g>
<!-- AppGroupVerticalComponent -->
<g id="node6" class="node">
<title>AppGroupVerticalComponent</title>
<polygon fill="#ffffb3" stroke="#000000" points="3661.2892,-187 3474.7108,-187 3474.7108,-151 3661.2892,-151 3661.2892,-187"/>
<text text-anchor="middle" x="3568" y="-164.8" font-family="Times,serif" font-size="14.00" fill="#000000">AppGroupVerticalComponent</text>
</g>
<!-- AppGroupVerticalComponent&#45;&gt;WickeyAppStoreModule -->
<g id="edge6" class="edge">
<title>AppGroupVerticalComponent&#45;&gt;WickeyAppStoreModule</title>
<path fill="none" stroke="#000000" d="M3553.5174,-187.0336C3553.5174,-204.0597 3553.5174,-227 3553.5174,-227 3553.5174,-227 2306.5567,-227 2306.5567,-227"/>
<polygon fill="#000000" stroke="#000000" points="2306.5568,-223.5001 2296.5567,-227 2306.5567,-230.5001 2306.5568,-223.5001"/>
</g>
<!-- DisplayAppMiniComponent -->
<g id="node7" class="node">
<title>DisplayAppMiniComponent</title>
<polygon fill="#ffffb3" stroke="#000000" points="3457.2119,-187 3280.7881,-187 3280.7881,-151 3457.2119,-151 3457.2119,-187"/>
<text text-anchor="middle" x="3369" y="-164.8" font-family="Times,serif" font-size="14.00" fill="#000000">DisplayAppMiniComponent</text>
</g>
<!-- DisplayAppMiniComponent&#45;&gt;WickeyAppStoreModule -->
<g id="edge7" class="edge">
<title>DisplayAppMiniComponent&#45;&gt;WickeyAppStoreModule</title>
<path fill="none" stroke="#000000" d="M3362.5907,-187.027C3362.5907,-203.3976 3362.5907,-225 3362.5907,-225 3362.5907,-225 2306.6724,-225 2306.6724,-225"/>
<polygon fill="#000000" stroke="#000000" points="2306.6724,-221.5001 2296.6724,-225 2306.6723,-228.5001 2306.6724,-221.5001"/>
</g>
<!-- DisplayAppFeaturedComponent -->
<g id="node8" class="node">
<title>DisplayAppFeaturedComponent</title>
<polygon fill="#ffffb3" stroke="#000000" points="3262.9636,-187 3065.0364,-187 3065.0364,-151 3262.9636,-151 3262.9636,-187"/>
<text text-anchor="middle" x="3164" y="-164.8" font-family="Times,serif" font-size="14.00" fill="#000000">DisplayAppFeaturedComponent</text>
</g>
<!-- DisplayAppFeaturedComponent&#45;&gt;WickeyAppStoreModule -->
<g id="edge8" class="edge">
<title>DisplayAppFeaturedComponent&#45;&gt;WickeyAppStoreModule</title>
<path fill="none" stroke="#000000" d="M3143.4564,-187.2819C3143.4564,-202.9478 3143.4564,-223 3143.4564,-223 3143.4564,-223 2306.5047,-223 2306.5047,-223"/>
<polygon fill="#000000" stroke="#000000" points="2306.5047,-219.5001 2296.5047,-223 2306.5046,-226.5001 2306.5047,-219.5001"/>
</g>
<!-- PopoverBaseComponent -->
<g id="node9" class="node">
<title>PopoverBaseComponent</title>
<polygon fill="#ffffb3" stroke="#000000" points="3046.7007,-187 2891.2993,-187 2891.2993,-151 3046.7007,-151 3046.7007,-187"/>
<text text-anchor="middle" x="2969" y="-164.8" font-family="Times,serif" font-size="14.00" fill="#000000">PopoverBaseComponent</text>
</g>
<!-- PopoverBaseComponent&#45;&gt;WickeyAppStoreModule -->
<g id="edge9" class="edge">
<title>PopoverBaseComponent&#45;&gt;WickeyAppStoreModule</title>
<path fill="none" stroke="#000000" d="M2952.6278,-187.2396C2952.6278,-202.5706 2952.6278,-222 2952.6278,-222 2952.6278,-222 2306.27,-222 2306.27,-222"/>
<polygon fill="#000000" stroke="#000000" points="2306.27,-218.5001 2296.27,-222 2306.2699,-225.5001 2306.27,-218.5001"/>
</g>
<!-- PopoverAccountInfoComponent -->
<g id="node10" class="node">
<title>PopoverAccountInfoComponent</title>
<polygon fill="#ffffb3" stroke="#000000" points="2873.238,-187 2674.762,-187 2674.762,-151 2873.238,-151 2873.238,-187"/>
<text text-anchor="middle" x="2774" y="-164.8" font-family="Times,serif" font-size="14.00" fill="#000000">PopoverAccountInfoComponent</text>
</g>
<!-- PopoverAccountInfoComponent&#45;&gt;WickeyAppStoreModule -->
<g id="edge10" class="edge">
<title>PopoverAccountInfoComponent&#45;&gt;WickeyAppStoreModule</title>
<path fill="none" stroke="#000000" d="M2745.1815,-187.1243C2745.1815,-201.7832 2745.1815,-220 2745.1815,-220 2745.1815,-220 2306.3551,-220 2306.3551,-220"/>
<polygon fill="#000000" stroke="#000000" points="2306.3552,-216.5001 2296.3551,-220 2306.3551,-223.5001 2306.3552,-216.5001"/>
</g>
<!-- PopoverLoginComponent -->
<g id="node11" class="node">
<title>PopoverLoginComponent</title>
<polygon fill="#ffffb3" stroke="#000000" points="2656.934,-187 2495.066,-187 2495.066,-151 2656.934,-151 2656.934,-187"/>
<text text-anchor="middle" x="2576" y="-164.8" font-family="Times,serif" font-size="14.00" fill="#000000">PopoverLoginComponent</text>
</g>
<!-- PopoverLoginComponent&#45;&gt;WickeyAppStoreModule -->
<g id="edge11" class="edge">
<title>PopoverLoginComponent&#45;&gt;WickeyAppStoreModule</title>
<path fill="none" stroke="#000000" d="M2545.8168,-187.2458C2545.8168,-201.1772 2545.8168,-218 2545.8168,-218 2545.8168,-218 2306.5203,-218 2306.5203,-218"/>
<polygon fill="#000000" stroke="#000000" points="2306.5203,-214.5001 2296.5203,-218 2306.5203,-221.5001 2306.5203,-214.5001"/>
</g>
<!-- PopoverReviewComponent -->
<g id="node12" class="node">
<title>PopoverReviewComponent</title>
<polygon fill="#ffffb3" stroke="#000000" points="2477.2534,-187 2306.7466,-187 2306.7466,-151 2477.2534,-151 2477.2534,-187"/>
<text text-anchor="middle" x="2392" y="-164.8" font-family="Times,serif" font-size="14.00" fill="#000000">PopoverReviewComponent</text>
</g>
<!-- PopoverReviewComponent&#45;&gt;WickeyAppStoreModule -->
<g id="edge12" class="edge">
<title>PopoverReviewComponent&#45;&gt;WickeyAppStoreModule</title>
<path fill="none" stroke="#000000" d="M2306.7427,-169C2298.1349,-169 2292.4846,-169 2292.4846,-169 2292.4846,-169 2292.4846,-205.8939 2292.4846,-205.8939"/>
<polygon fill="#000000" stroke="#000000" points="2288.9847,-205.8938 2292.4846,-215.8939 2295.9847,-205.8939 2288.9847,-205.8938"/>
</g>
<!-- WASAlertComponent -->
<g id="node13" class="node">
<title>WASAlertComponent</title>
<polygon fill="#ffffb3" stroke="#000000" points="2288.6993,-187 2147.3007,-187 2147.3007,-151 2288.6993,-151 2288.6993,-187"/>
<text text-anchor="middle" x="2218" y="-164.8" font-family="Times,serif" font-size="14.00" fill="#000000">WASAlertComponent</text>
</g>
<!-- WASAlertComponent&#45;&gt;WickeyAppStoreModule -->
<g id="edge13" class="edge">
<title>WASAlertComponent&#45;&gt;WickeyAppStoreModule</title>
<path fill="none" stroke="#000000" d="M2218,-187.1061C2218,-187.1061 2218,-205.991 2218,-205.991"/>
<polygon fill="#000000" stroke="#000000" points="2214.5001,-205.9909 2218,-215.991 2221.5001,-205.991 2214.5001,-205.9909"/>
</g>
<!-- PopoverUpComponent -->
<g id="node14" class="node">
<title>PopoverUpComponent</title>
<polygon fill="#ffffb3" stroke="#000000" points="2129.5968,-187 1984.4032,-187 1984.4032,-151 2129.5968,-151 2129.5968,-187"/>
<text text-anchor="middle" x="2057" y="-164.8" font-family="Times,serif" font-size="14.00" fill="#000000">PopoverUpComponent</text>
</g>
<!-- PopoverUpComponent&#45;&gt;WickeyAppStoreModule -->
<g id="edge14" class="edge">
<title>PopoverUpComponent&#45;&gt;WickeyAppStoreModule</title>
<path fill="none" stroke="#000000" d="M2129.6152,-169C2137.9379,-169 2143.5154,-169 2143.5154,-169 2143.5154,-169 2143.5154,-205.8939 2143.5154,-205.8939"/>
<polygon fill="#000000" stroke="#000000" points="2140.0155,-205.8938 2143.5154,-215.8939 2147.0155,-205.8939 2140.0155,-205.8938"/>
</g>
<!-- CustomValidatorDirective -->
<g id="node15" class="node">
<title>CustomValidatorDirective</title>
<polygon fill="#ffffb3" stroke="#000000" points="1966.0141,-187 1801.9859,-187 1801.9859,-151 1966.0141,-151 1966.0141,-187"/>
<text text-anchor="middle" x="1884" y="-164.8" font-family="Times,serif" font-size="14.00" fill="#000000">CustomValidatorDirective</text>
</g>
<!-- CustomValidatorDirective&#45;&gt;WickeyAppStoreModule -->
<g id="edge15" class="edge">
<title>CustomValidatorDirective&#45;&gt;WickeyAppStoreModule</title>
<path fill="none" stroke="#000000" d="M1904.0651,-187.2458C1904.0651,-201.1772 1904.0651,-218 1904.0651,-218 1904.0651,-218 2129.5908,-218 2129.5908,-218"/>
<polygon fill="#000000" stroke="#000000" points="2129.5908,-221.5001 2139.5908,-218 2129.5907,-214.5001 2129.5908,-221.5001"/>
</g>
<!-- DisplayAppFullwidthComponent -->
<g id="node16" class="node">
<title>DisplayAppFullwidthComponent</title>
<polygon fill="#ffffb3" stroke="#000000" points="1783.9381,-187 1580.0619,-187 1580.0619,-151 1783.9381,-151 1783.9381,-187"/>
<text text-anchor="middle" x="1682" y="-164.8" font-family="Times,serif" font-size="14.00" fill="#000000">DisplayAppFullwidthComponent</text>
</g>
<!-- DisplayAppFullwidthComponent&#45;&gt;WickeyAppStoreModule -->
<g id="edge17" class="edge">
<title>DisplayAppFullwidthComponent&#45;&gt;WickeyAppStoreModule</title>
<path fill="none" stroke="#000000" d="M1731.6846,-187.1243C1731.6846,-201.7832 1731.6846,-220 1731.6846,-220 1731.6846,-220 2129.5949,-220 2129.5949,-220"/>
<polygon fill="#000000" stroke="#000000" points="2129.595,-223.5001 2139.5949,-220 2129.5949,-216.5001 2129.595,-223.5001"/>
</g>
<!-- ReviewsComponent -->
<g id="node17" class="node">
<title>ReviewsComponent</title>
<polygon fill="#ffffb3" stroke="#000000" points="1562.5408,-187 1433.4592,-187 1433.4592,-151 1562.5408,-151 1562.5408,-187"/>
<text text-anchor="middle" x="1498" y="-164.8" font-family="Times,serif" font-size="14.00" fill="#000000">ReviewsComponent</text>
</g>
<!-- ReviewsComponent&#45;&gt;WickeyAppStoreModule -->
<g id="edge18" class="edge">
<title>ReviewsComponent&#45;&gt;WickeyAppStoreModule</title>
<path fill="none" stroke="#000000" d="M1537.7358,-187.2396C1537.7358,-202.5706 1537.7358,-222 1537.7358,-222 1537.7358,-222 2129.6331,-222 2129.6331,-222"/>
<polygon fill="#000000" stroke="#000000" points="2129.6331,-225.5001 2139.6331,-222 2129.633,-218.5001 2129.6331,-225.5001"/>
</g>
<!-- DisplayAppReviewComponent -->
<g id="node18" class="node">
<title>DisplayAppReviewComponent</title>
<polygon fill="#ffffb3" stroke="#000000" points="1414.7492,-187 1223.2508,-187 1223.2508,-151 1414.7492,-151 1414.7492,-187"/>
<text text-anchor="middle" x="1319" y="-164.8" font-family="Times,serif" font-size="14.00" fill="#000000">DisplayAppReviewComponent</text>
</g>
<!-- DisplayAppReviewComponent&#45;&gt;WickeyAppStoreModule -->
<g id="edge19" class="edge">
<title>DisplayAppReviewComponent&#45;&gt;WickeyAppStoreModule</title>
<path fill="none" stroke="#000000" d="M1370.9339,-187.2819C1370.9339,-202.9478 1370.9339,-223 1370.9339,-223 1370.9339,-223 2129.4499,-223 2129.4499,-223"/>
<polygon fill="#000000" stroke="#000000" points="2129.45,-226.5001 2139.4499,-223 2129.4499,-219.5001 2129.45,-226.5001"/>
</g>
<!-- AppGroupReviewsComponent -->
<g id="node19" class="node">
<title>AppGroupReviewsComponent</title>
<polygon fill="#ffffb3" stroke="#000000" points="1204.9143,-187 1015.0857,-187 1015.0857,-151 1204.9143,-151 1204.9143,-187"/>
<text text-anchor="middle" x="1110" y="-164.8" font-family="Times,serif" font-size="14.00" fill="#000000">AppGroupReviewsComponent</text>
</g>
<!-- AppGroupReviewsComponent&#45;&gt;WickeyAppStoreModule -->
<g id="edge20" class="edge">
<title>AppGroupReviewsComponent&#45;&gt;WickeyAppStoreModule</title>
<path fill="none" stroke="#000000" d="M1153.6191,-187.027C1153.6191,-203.3976 1153.6191,-225 1153.6191,-225 1153.6191,-225 2129.7335,-225 2129.7335,-225"/>
<polygon fill="#000000" stroke="#000000" points="2129.7336,-228.5001 2139.7335,-225 2129.7335,-221.5001 2129.7336,-228.5001"/>
</g>
<!-- GetCategoryPipe -->
<g id="node20" class="node">
<title>GetCategoryPipe</title>
<polygon fill="#ffffb3" stroke="#000000" points="997.4174,-187 884.5826,-187 884.5826,-151 997.4174,-151 997.4174,-187"/>
<text text-anchor="middle" x="941" y="-164.8" font-family="Times,serif" font-size="14.00" fill="#000000">GetCategoryPipe</text>
</g>
<!-- GetCategoryPipe&#45;&gt;WickeyAppStoreModule -->
<g id="edge21" class="edge">
<title>GetCategoryPipe&#45;&gt;WickeyAppStoreModule</title>
<path fill="none" stroke="#000000" d="M974.3442,-187.0336C974.3442,-204.0597 974.3442,-227 974.3441,-227 974.3441,-227 2129.7326,-227 2129.7326,-227"/>
<polygon fill="#000000" stroke="#000000" points="2129.7327,-230.5001 2139.7326,-227 2129.7326,-223.5001 2129.7327,-230.5001"/>
</g>
<!-- WasSpinnerComponent  -->
<g id="node24" class="node">
<title>WasSpinnerComponent </title>
<polygon fill="#fb8072" stroke="#000000" points="4179.7548,-317 4026.2452,-317 4026.2452,-281 4179.7548,-281 4179.7548,-317"/>
<text text-anchor="middle" x="4103" y="-294.8" font-family="Times,serif" font-size="14.00" fill="#000000">WasSpinnerComponent </text>
</g>
<!-- WickeyAppStoreModule&#45;&gt;WasSpinnerComponent  -->
<g id="edge23" class="edge">
<title>WickeyAppStoreModule&#45;&gt;WasSpinnerComponent </title>
<path fill="none" stroke="#000000" stroke-dasharray="5,2" d="M2296.25,-237C2645.6332,-237 4045.901,-237 4045.901,-237 4045.901,-237 4045.901,-270.7333 4045.901,-270.7333"/>
<polygon fill="#000000" stroke="#000000" points="4042.401,-270.7333 4045.901,-280.7333 4049.401,-270.7333 4042.401,-270.7333"/>
</g>
<!-- WickeyAppStoreComponent  -->
<g id="node25" class="node">
<title>WickeyAppStoreComponent </title>
<polygon fill="#fb8072" stroke="#000000" points="4008.0218,-317 3825.9782,-317 3825.9782,-281 4008.0218,-281 4008.0218,-317"/>
<text text-anchor="middle" x="3917" y="-294.8" font-family="Times,serif" font-size="14.00" fill="#000000">WickeyAppStoreComponent </text>
</g>
<!-- WickeyAppStoreModule&#45;&gt;WickeyAppStoreComponent  -->
<g id="edge24" class="edge">
<title>WickeyAppStoreModule&#45;&gt;WickeyAppStoreComponent </title>
<path fill="none" stroke="#000000" stroke-dasharray="5,2" d="M2296.3212,-239C2622.1369,-239 3853.2632,-239 3853.2632,-239 3853.2632,-239 3853.2632,-270.998 3853.2632,-270.998"/>
<polygon fill="#000000" stroke="#000000" points="3849.7632,-270.998 3853.2632,-280.998 3856.7632,-270.9981 3849.7632,-270.998"/>
</g>
<!-- DisplayAppsComponent  -->
<g id="node26" class="node">
<title>DisplayAppsComponent </title>
<polygon fill="#fb8072" stroke="#000000" points="3807.9306,-317 3650.0694,-317 3650.0694,-281 3807.9306,-281 3807.9306,-317"/>
<text text-anchor="middle" x="3729" y="-294.8" font-family="Times,serif" font-size="14.00" fill="#000000">DisplayAppsComponent </text>
</g>
<!-- WickeyAppStoreModule&#45;&gt;DisplayAppsComponent  -->
<g id="edge25" class="edge">
<title>WickeyAppStoreModule&#45;&gt;DisplayAppsComponent </title>
<path fill="none" stroke="#000000" stroke-dasharray="5,2" d="M2296.312,-240C2596.3048,-240 3655.5896,-240 3655.5896,-240 3655.5896,-240 3655.5896,-270.9775 3655.5896,-270.9775"/>
<polygon fill="#000000" stroke="#000000" points="3652.0897,-270.9774 3655.5896,-280.9775 3659.0897,-270.9775 3652.0897,-270.9774"/>
</g>
<!-- AppDetailPageComponent  -->
<g id="node27" class="node">
<title>AppDetailPageComponent </title>
<polygon fill="#fb8072" stroke="#000000" points="3632.3588,-317 3461.6412,-317 3461.6412,-281 3632.3588,-281 3632.3588,-317"/>
<text text-anchor="middle" x="3547" y="-294.8" font-family="Times,serif" font-size="14.00" fill="#000000">AppDetailPageComponent </text>
</g>
<!-- WickeyAppStoreModule&#45;&gt;AppDetailPageComponent  -->
<g id="edge26" class="edge">
<title>WickeyAppStoreModule&#45;&gt;AppDetailPageComponent </title>
<path fill="none" stroke="#000000" stroke-dasharray="5,2" d="M2296.6879,-242C2570.9785,-242 3468.3382,-242 3468.3382,-242 3468.3382,-242 3468.3382,-270.9648 3468.3382,-270.9648"/>
<polygon fill="#000000" stroke="#000000" points="3464.8382,-270.9648 3468.3382,-280.9648 3471.8382,-270.9649 3464.8382,-270.9648"/>
</g>
<!-- AppGroupHorizontalComponent  -->
<g id="node28" class="node">
<title>AppGroupHorizontalComponent </title>
<polygon fill="#fb8072" stroke="#000000" points="3444.0748,-317 3239.9252,-317 3239.9252,-281 3444.0748,-281 3444.0748,-317"/>
<text text-anchor="middle" x="3342" y="-294.8" font-family="Times,serif" font-size="14.00" fill="#000000">AppGroupHorizontalComponent </text>
</g>
<!-- WickeyAppStoreModule&#45;&gt;AppGroupHorizontalComponent  -->
<g id="edge27" class="edge">
<title>WickeyAppStoreModule&#45;&gt;AppGroupHorizontalComponent </title>
<path fill="none" stroke="#000000" stroke-dasharray="5,2" d="M2296.5171,-244C2537.664,-244 3251.3473,-244 3251.3473,-244 3251.3473,-244 3251.3473,-270.9909 3251.3473,-270.9909"/>
<polygon fill="#000000" stroke="#000000" points="3247.8474,-270.9909 3251.3473,-280.9909 3254.8474,-270.991 3247.8474,-270.9909"/>
</g>
<!-- AppGroupVerticalComponent  -->
<g id="node29" class="node">
<title>AppGroupVerticalComponent </title>
<polygon fill="#fb8072" stroke="#000000" points="3221.7891,-317 3032.2109,-317 3032.2109,-281 3221.7891,-281 3221.7891,-317"/>
<text text-anchor="middle" x="3127" y="-294.8" font-family="Times,serif" font-size="14.00" fill="#000000">AppGroupVerticalComponent </text>
</g>
<!-- WickeyAppStoreModule&#45;&gt;AppGroupVerticalComponent  -->
<g id="edge28" class="edge">
<title>WickeyAppStoreModule&#45;&gt;AppGroupVerticalComponent </title>
<path fill="none" stroke="#000000" stroke-dasharray="5,2" d="M2296.3827,-246C2501.684,-246 3039.3529,-246 3039.3529,-246 3039.3529,-246 3039.3529,-270.7604 3039.3529,-270.7604"/>
<polygon fill="#000000" stroke="#000000" points="3035.853,-270.7604 3039.3529,-280.7604 3042.853,-270.7604 3035.853,-270.7604"/>
</g>
<!-- DisplayAppMiniComponent  -->
<g id="node30" class="node">
<title>DisplayAppMiniComponent </title>
<polygon fill="#fb8072" stroke="#000000" points="3013.712,-317 2834.288,-317 2834.288,-281 3013.712,-281 3013.712,-317"/>
<text text-anchor="middle" x="2924" y="-294.8" font-family="Times,serif" font-size="14.00" fill="#000000">DisplayAppMiniComponent </text>
</g>
<!-- WickeyAppStoreModule&#45;&gt;DisplayAppMiniComponent  -->
<g id="edge29" class="edge">
<title>WickeyAppStoreModule&#45;&gt;DisplayAppMiniComponent </title>
<path fill="none" stroke="#000000" stroke-dasharray="5,2" d="M2296.2748,-247C2466.2064,-247 2853.7565,-247 2853.7565,-247 2853.7565,-247 2853.7565,-270.8129 2853.7565,-270.8129"/>
<polygon fill="#000000" stroke="#000000" points="2850.2566,-270.8129 2853.7565,-280.8129 2857.2566,-270.813 2850.2566,-270.8129"/>
</g>
<!-- DisplayAppFeaturedComponent  -->
<g id="node31" class="node">
<title>DisplayAppFeaturedComponent </title>
<polygon fill="#fb8072" stroke="#000000" points="2815.9641,-317 2614.0359,-317 2614.0359,-281 2815.9641,-281 2815.9641,-317"/>
<text text-anchor="middle" x="2715" y="-294.8" font-family="Times,serif" font-size="14.00" fill="#000000">DisplayAppFeaturedComponent </text>
</g>
<!-- WickeyAppStoreModule&#45;&gt;DisplayAppFeaturedComponent  -->
<g id="edge30" class="edge">
<title>WickeyAppStoreModule&#45;&gt;DisplayAppFeaturedComponent </title>
<path fill="none" stroke="#000000" stroke-dasharray="5,2" d="M2296.5271,-249C2417.4645,-249 2635.4924,-249 2635.4924,-249 2635.4924,-249 2635.4924,-270.9489 2635.4924,-270.9489"/>
<polygon fill="#000000" stroke="#000000" points="2631.9925,-270.9488 2635.4924,-280.9489 2638.9925,-270.9489 2631.9925,-270.9488"/>
</g>
<!-- PopoverBaseComponent  -->
<g id="node32" class="node">
<title>PopoverBaseComponent </title>
<polygon fill="#fb8072" stroke="#000000" points="2596.2009,-317 2437.7991,-317 2437.7991,-281 2596.2009,-281 2596.2009,-317"/>
<text text-anchor="middle" x="2517" y="-294.8" font-family="Times,serif" font-size="14.00" fill="#000000">PopoverBaseComponent </text>
</g>
<!-- WickeyAppStoreModule&#45;&gt;PopoverBaseComponent  -->
<g id="edge31" class="edge">
<title>WickeyAppStoreModule&#45;&gt;PopoverBaseComponent </title>
<path fill="none" stroke="#000000" stroke-dasharray="5,2" d="M2296.4256,-251C2366.2777,-251 2457.5131,-251 2457.5131,-251 2457.5131,-251 2457.5131,-270.8533 2457.5131,-270.8533"/>
<polygon fill="#000000" stroke="#000000" points="2454.0132,-270.8532 2457.5131,-280.8533 2461.0132,-270.8533 2454.0132,-270.8532"/>
</g>
<!-- PopoverAccountInfoComponent  -->
<g id="node33" class="node">
<title>PopoverAccountInfoComponent </title>
<polygon fill="#fb8072" stroke="#000000" points="2420.2379,-317 2217.7621,-317 2217.7621,-281 2420.2379,-281 2420.2379,-317"/>
<text text-anchor="middle" x="2319" y="-294.8" font-family="Times,serif" font-size="14.00" fill="#000000">PopoverAccountInfoComponent </text>
</g>
<!-- WickeyAppStoreModule&#45;&gt;PopoverAccountInfoComponent  -->
<g id="edge32" class="edge">
<title>WickeyAppStoreModule&#45;&gt;PopoverAccountInfoComponent </title>
<path fill="none" stroke="#000000" stroke-dasharray="5,2" d="M2257.1254,-252.1061C2257.1254,-252.1061 2257.1254,-270.991 2257.1254,-270.991"/>
<polygon fill="#000000" stroke="#000000" points="2253.6254,-270.9909 2257.1254,-280.991 2260.6254,-270.991 2253.6254,-270.9909"/>
</g>
<!-- PopoverLoginComponent  -->
<g id="node34" class="node">
<title>PopoverLoginComponent </title>
<polygon fill="#fb8072" stroke="#000000" points="2199.4334,-317 2034.5666,-317 2034.5666,-281 2199.4334,-281 2199.4334,-317"/>
<text text-anchor="middle" x="2117" y="-294.8" font-family="Times,serif" font-size="14.00" fill="#000000">PopoverLoginComponent </text>
</g>
<!-- WickeyAppStoreModule&#45;&gt;PopoverLoginComponent  -->
<g id="edge33" class="edge">
<title>WickeyAppStoreModule&#45;&gt;PopoverLoginComponent </title>
<path fill="none" stroke="#000000" stroke-dasharray="5,2" d="M2169.5486,-252.1061C2169.5486,-252.1061 2169.5486,-270.991 2169.5486,-270.991"/>
<polygon fill="#000000" stroke="#000000" points="2166.0486,-270.9909 2169.5486,-280.991 2173.0486,-270.991 2166.0486,-270.9909"/>
</g>
<!-- PopoverReviewComponent  -->
<g id="node35" class="node">
<title>PopoverReviewComponent </title>
<polygon fill="#fb8072" stroke="#000000" points="2016.2534,-317 1841.7466,-317 1841.7466,-281 2016.2534,-281 2016.2534,-317"/>
<text text-anchor="middle" x="1929" y="-294.8" font-family="Times,serif" font-size="14.00" fill="#000000">PopoverReviewComponent </text>
</g>
<!-- WickeyAppStoreModule&#45;&gt;PopoverReviewComponent  -->
<g id="edge34" class="edge">
<title>WickeyAppStoreModule&#45;&gt;PopoverReviewComponent </title>
<path fill="none" stroke="#000000" stroke-dasharray="5,2" d="M2139.709,-251C2077.2934,-251 2000.2891,-251 2000.2891,-251 2000.2891,-251 2000.2891,-270.8533 2000.2891,-270.8533"/>
<polygon fill="#000000" stroke="#000000" points="1996.7892,-270.8532 2000.2891,-280.8533 2003.7892,-270.8533 1996.7892,-270.8532"/>
</g>
<!-- WASAlertComponent  -->
<g id="node36" class="node">
<title>WASAlertComponent </title>
<polygon fill="#fb8072" stroke="#000000" points="1824.1995,-317 1679.8005,-317 1679.8005,-281 1824.1995,-281 1824.1995,-317"/>
<text text-anchor="middle" x="1752" y="-294.8" font-family="Times,serif" font-size="14.00" fill="#000000">WASAlertComponent </text>
</g>
<!-- WickeyAppStoreModule&#45;&gt;WASAlertComponent  -->
<g id="edge35" class="edge">
<title>WickeyAppStoreModule&#45;&gt;WASAlertComponent </title>
<path fill="none" stroke="#000000" stroke-dasharray="5,2" d="M2139.4407,-249C2021.678,-249 1813.0465,-249 1813.0465,-249 1813.0465,-249 1813.0465,-270.9489 1813.0465,-270.9489"/>
<polygon fill="#000000" stroke="#000000" points="1809.5465,-270.9488 1813.0465,-280.9489 1816.5465,-270.9489 1809.5465,-270.9488"/>
</g>
<!-- PopoverUpComponent  -->
<g id="node37" class="node">
<title>PopoverUpComponent </title>
<polygon fill="#fb8072" stroke="#000000" points="1661.0973,-317 1512.9027,-317 1512.9027,-281 1661.0973,-281 1661.0973,-317"/>
<text text-anchor="middle" x="1587" y="-294.8" font-family="Times,serif" font-size="14.00" fill="#000000">PopoverUpComponent </text>
</g>
<!-- WickeyAppStoreModule&#45;&gt;PopoverUpComponent  -->
<g id="edge36" class="edge">
<title>WickeyAppStoreModule&#45;&gt;PopoverUpComponent </title>
<path fill="none" stroke="#000000" stroke-dasharray="5,2" d="M2139.6184,-247C1977.5933,-247 1620.7898,-247 1620.7898,-247 1620.7898,-247 1620.7898,-270.8129 1620.7898,-270.8129"/>
<polygon fill="#000000" stroke="#000000" points="1617.2899,-270.8129 1620.7898,-280.8129 1624.2899,-270.813 1617.2899,-270.8129"/>
</g>
<!-- CustomValidatorDirective  -->
<g id="node38" class="node">
<title>CustomValidatorDirective </title>
<polygon fill="#fb8072" stroke="#000000" points="1495.0134,-317 1326.9866,-317 1326.9866,-281 1495.0134,-281 1495.0134,-317"/>
<text text-anchor="middle" x="1411" y="-294.8" font-family="Times,serif" font-size="14.00" fill="#000000">CustomValidatorDirective </text>
</g>
<!-- WickeyAppStoreModule&#45;&gt;CustomValidatorDirective  -->
<g id="edge37" class="edge">
<title>WickeyAppStoreModule&#45;&gt;CustomValidatorDirective </title>
<path fill="none" stroke="#000000" stroke-dasharray="5,2" d="M2139.4549,-246C1946.367,-246 1464.1184,-246 1464.1184,-246 1464.1184,-246 1464.1184,-270.7604 1464.1184,-270.7604"/>
<polygon fill="#000000" stroke="#000000" points="1460.6184,-270.7604 1464.1184,-280.7604 1467.6184,-270.7604 1460.6184,-270.7604"/>
</g>
<!-- DisplayAppFullwidthComponent  -->
<g id="node39" class="node">
<title>DisplayAppFullwidthComponent </title>
<polygon fill="#fb8072" stroke="#000000" points="1309.4376,-317 1102.5624,-317 1102.5624,-281 1309.4376,-281 1309.4376,-317"/>
<text text-anchor="middle" x="1206" y="-294.8" font-family="Times,serif" font-size="14.00" fill="#000000">DisplayAppFullwidthComponent </text>
</g>
<!-- WickeyAppStoreModule&#45;&gt;DisplayAppFullwidthComponent  -->
<g id="edge38" class="edge">
<title>WickeyAppStoreModule&#45;&gt;DisplayAppFullwidthComponent </title>
<path fill="none" stroke="#000000" stroke-dasharray="5,2" d="M2139.7138,-244C1912.0579,-244 1266.2972,-244 1266.2972,-244 1266.2972,-244 1266.2972,-270.9909 1266.2972,-270.9909"/>
<polygon fill="#000000" stroke="#000000" points="1262.7972,-270.9909 1266.2972,-280.9909 1269.7972,-270.991 1262.7972,-270.9909"/>
</g>
<!-- ReviewsComponent  -->
<g id="node40" class="node">
<title>ReviewsComponent </title>
<polygon fill="#fb8072" stroke="#000000" points="1084.54,-317 951.46,-317 951.46,-281 1084.54,-281 1084.54,-317"/>
<text text-anchor="middle" x="1018" y="-294.8" font-family="Times,serif" font-size="14.00" fill="#000000">ReviewsComponent </text>
</g>
<!-- WickeyAppStoreModule&#45;&gt;ReviewsComponent  -->
<g id="edge39" class="edge">
<title>WickeyAppStoreModule&#45;&gt;ReviewsComponent </title>
<path fill="none" stroke="#000000" stroke-dasharray="5,2" d="M2139.5443,-242C1877.6432,-242 1049.9066,-242 1049.9066,-242 1049.9066,-242 1049.9066,-270.9648 1049.9066,-270.9648"/>
<polygon fill="#000000" stroke="#000000" points="1046.4066,-270.9648 1049.9066,-280.9648 1053.4066,-270.9649 1046.4066,-270.9648"/>
</g>
<!-- DisplayAppReviewComponent  -->
<g id="node41" class="node">
<title>DisplayAppReviewComponent </title>
<polygon fill="#fb8072" stroke="#000000" points="933.7492,-317 738.2508,-317 738.2508,-281 933.7492,-281 933.7492,-317"/>
<text text-anchor="middle" x="836" y="-294.8" font-family="Times,serif" font-size="14.00" fill="#000000">DisplayAppReviewComponent </text>
</g>
<!-- WickeyAppStoreModule&#45;&gt;DisplayAppReviewComponent  -->
<g id="edge40" class="edge">
<title>WickeyAppStoreModule&#45;&gt;DisplayAppReviewComponent </title>
<path fill="none" stroke="#000000" stroke-dasharray="5,2" d="M2139.5633,-240C1857.2018,-240 909.2081,-240 909.2081,-240 909.2081,-240 909.2081,-270.9775 909.2081,-270.9775"/>
<polygon fill="#000000" stroke="#000000" points="905.7082,-270.9774 909.2081,-280.9775 912.7082,-270.9775 905.7082,-270.9774"/>
</g>
<!-- AppGroupReviewsComponent  -->
<g id="node42" class="node">
<title>AppGroupReviewsComponent </title>
<polygon fill="#fb8072" stroke="#000000" points="720.4138,-317 527.5862,-317 527.5862,-281 720.4138,-281 720.4138,-317"/>
<text text-anchor="middle" x="624" y="-294.8" font-family="Times,serif" font-size="14.00" fill="#000000">AppGroupReviewsComponent </text>
</g>
<!-- WickeyAppStoreModule&#45;&gt;AppGroupReviewsComponent  -->
<g id="edge41" class="edge">
<title>WickeyAppStoreModule&#45;&gt;AppGroupReviewsComponent </title>
<path fill="none" stroke="#000000" stroke-dasharray="5,2" d="M2139.7456,-239C1823.4205,-239 656.1523,-239 656.1523,-239 656.1523,-239 656.1523,-270.998 656.1523,-270.998"/>
<polygon fill="#000000" stroke="#000000" points="652.6524,-270.998 656.1523,-280.998 659.6524,-270.9981 652.6524,-270.998"/>
</g>
<!-- GetCategoryPipe  -->
<g id="node43" class="node">
<title>GetCategoryPipe </title>
<polygon fill="#fb8072" stroke="#000000" points="509.9166,-317 394.0834,-317 394.0834,-281 509.9166,-281 509.9166,-317"/>
<text text-anchor="middle" x="452" y="-294.8" font-family="Times,serif" font-size="14.00" fill="#000000">GetCategoryPipe </text>
</g>
<!-- WickeyAppStoreModule&#45;&gt;GetCategoryPipe  -->
<g id="edge42" class="edge">
<title>WickeyAppStoreModule&#45;&gt;GetCategoryPipe </title>
<path fill="none" stroke="#000000" stroke-dasharray="5,2" d="M2139.4811,-237C1799.2849,-237 469.6633,-237 469.6633,-237 469.6633,-237 469.6633,-270.7333 469.6633,-270.7333"/>
<polygon fill="#000000" stroke="#000000" points="466.1632,-270.7333 469.6633,-280.7333 473.1632,-270.7333 466.1632,-270.7333"/>
</g>
<!-- { : , : , : true } -->
<g id="node22" class="node">
<title>{ : , : , : true }</title>
<ellipse fill="#fdb462" stroke="#000000" cx="1884" cy="-104" rx="65.1962" ry="18"/>
<text text-anchor="middle" x="1884" y="-99.8" font-family="Times,serif" font-size="14.00" fill="#000000">{ : , : , : true }</text>
</g>
<!-- { : , : , : true }&#45;&gt;CustomValidatorDirective -->
<g id="edge16" class="edge">
<title>{ : , : , : true }&#45;&gt;CustomValidatorDirective</title>
<path fill="none" stroke="#000000" d="M1884,-122.1061C1884,-122.1061 1884,-140.991 1884,-140.991"/>
<polygon fill="#000000" stroke="#000000" points="1880.5001,-140.9909 1884,-150.991 1887.5001,-140.991 1880.5001,-140.9909"/>
</g>
<!-- FanMenuModule -->
<g id="node23" class="node">
<title>FanMenuModule</title>
<polygon fill="#8dd3c7" stroke="#000000" points="860.7064,-187 857.7064,-191 836.7064,-191 833.7064,-187 747.2936,-187 747.2936,-151 860.7064,-151 860.7064,-187"/>
<text text-anchor="middle" x="804" y="-164.8" font-family="Times,serif" font-size="14.00" fill="#000000">FanMenuModule</text>
</g>
<!-- FanMenuModule&#45;&gt;WickeyAppStoreModule -->
<g id="edge22" class="edge">
<title>FanMenuModule&#45;&gt;WickeyAppStoreModule</title>
<path fill="none" stroke="#000000" d="M804,-187.0225C804,-204.3734 804,-228 804,-228 804,-228 2129.7097,-228 2129.7097,-228"/>
<polygon fill="#000000" stroke="#000000" points="2129.7097,-231.5001 2139.7097,-228 2129.7097,-224.5001 2129.7097,-231.5001"/>
</g>
<!-- ApiConnectionService -->
<g id="node44" class="node">
<title>ApiConnectionService</title>
<ellipse fill="#fdb462" stroke="#000000" cx="624" cy="-169" rx="98.9974" ry="18"/>
<text text-anchor="middle" x="624" y="-164.8" font-family="Times,serif" font-size="14.00" fill="#000000">ApiConnectionService</text>
</g>
<!-- ApiConnectionService&#45;&gt;WickeyAppStoreModule -->
<g id="edge43" class="edge">
<title>ApiConnectionService&#45;&gt;WickeyAppStoreModule</title>
<path fill="none" stroke="#000000" d="M591.8477,-186.317C591.8477,-204.3513 591.8477,-230 591.8477,-230 591.8477,-230 2129.5673,-230 2129.5673,-230"/>
<polygon fill="#000000" stroke="#000000" points="2129.5673,-233.5001 2139.5673,-230 2129.5673,-226.5001 2129.5673,-233.5001"/>
</g>
<!-- LocalStorageService -->
<g id="node45" class="node">
<title>LocalStorageService</title>
<ellipse fill="#fdb462" stroke="#000000" cx="416" cy="-169" rx="91.4481" ry="18"/>
<text text-anchor="middle" x="416" y="-164.8" font-family="Times,serif" font-size="14.00" fill="#000000">LocalStorageService</text>
</g>
<!-- LocalStorageService&#45;&gt;WickeyAppStoreModule -->
<g id="edge44" class="edge">
<title>LocalStorageService&#45;&gt;WickeyAppStoreModule</title>
<path fill="none" stroke="#000000" d="M431.8525,-186.8848C431.8525,-205.5103 431.8525,-232 431.8525,-232 431.8525,-232 2129.5258,-232 2129.5258,-232"/>
<polygon fill="#000000" stroke="#000000" points="2129.5259,-235.5001 2139.5258,-232 2129.5258,-228.5001 2129.5259,-235.5001"/>
</g>
<!-- UserService -->
<g id="node46" class="node">
<title>UserService</title>
<ellipse fill="#fdb462" stroke="#000000" cx="248" cy="-169" rx="58.4415" ry="18"/>
<text text-anchor="middle" x="248" y="-164.8" font-family="Times,serif" font-size="14.00" fill="#000000">UserService</text>
</g>
<!-- UserService&#45;&gt;WickeyAppStoreModule -->
<g id="edge45" class="edge">
<title>UserService&#45;&gt;WickeyAppStoreModule</title>
<path fill="none" stroke="#000000" d="M248,-187.1061C248,-206.3391 248,-234 248,-234 248,-234 2129.558,-234 2129.558,-234"/>
<polygon fill="#000000" stroke="#000000" points="2129.558,-237.5001 2139.558,-234 2129.558,-230.5001 2129.558,-237.5001"/>
</g>
<!-- WasAppService -->
<g id="node47" class="node">
<title>WasAppService</title>
<ellipse fill="#fdb462" stroke="#000000" cx="98" cy="-169" rx="73.556" ry="18"/>
<text text-anchor="middle" x="98" y="-164.8" font-family="Times,serif" font-size="14.00" fill="#000000">WasAppService</text>
</g>
<!-- WasAppService&#45;&gt;WickeyAppStoreModule -->
<g id="edge46" class="edge">
<title>WasAppService&#45;&gt;WickeyAppStoreModule</title>
<path fill="none" stroke="#000000" d="M98,-187.0348C98,-206.5762 98,-235 98,-235 98,-235 2129.7169,-235 2129.7169,-235"/>
<polygon fill="#000000" stroke="#000000" points="2129.7169,-238.5001 2139.7169,-235 2129.7169,-231.5001 2129.7169,-238.5001"/>
</g>
</g>
</svg>
