<?xml version="1.0" encoding="UTF-8" standalone="no"?>
<!DOCTYPE svg PUBLIC "-//W3C//DTD SVG 1.1//EN"
 "http://www.w3.org/Graphics/SVG/1.1/DTD/svg11.dtd">
<!-- Generated by graphviz version 2.40.1 (20161225.0304)
 -->
<!-- Title: dependencies Pages: 1 -->
<svg width="5196pt" height="352pt"
 viewBox="0.00 0.00 5196.00 352.00" xmlns="http://www.w3.org/2000/svg" xmlns:xlink="http://www.w3.org/1999/xlink">
<g id="graph0" class="graph" transform="scale(1 1) rotate(0) translate(4 348)">
<title>dependencies</title>
<polygon fill="#ffffff" stroke="transparent" points="-4,4 -4,-348 5192,-348 5192,4 -4,4"/>
<text text-anchor="start" x="2573.0091" y="-42.4" font-family="sans-serif" font-weight="bold" font-size="14.00" fill="#000000">Legend</text>
<polygon fill="#ffffb3" stroke="transparent" points="2360,-10 2360,-30 2380,-30 2380,-10 2360,-10"/>
<text text-anchor="start" x="2383.629" y="-15.4" font-family="sans-serif" font-size="14.00" fill="#000000"> &#160;Declarations</text>
<polygon fill="#8dd3c7" stroke="transparent" points="2473,-10 2473,-30 2493,-30 2493,-10 2473,-10"/>
<text text-anchor="start" x="2496.7251" y="-15.4" font-family="sans-serif" font-size="14.00" fill="#000000"> &#160;Module</text>
<polygon fill="#80b1d3" stroke="transparent" points="2559,-10 2559,-30 2579,-30 2579,-10 2559,-10"/>
<text text-anchor="start" x="2582.7812" y="-15.4" font-family="sans-serif" font-size="14.00" fill="#000000"> &#160;Bootstrap</text>
<polygon fill="#fdb462" stroke="transparent" points="2656,-10 2656,-30 2676,-30 2676,-10 2656,-10"/>
<text text-anchor="start" x="2679.6732" y="-15.4" font-family="sans-serif" font-size="14.00" fill="#000000"> &#160;Providers</text>
<polygon fill="#fb8072" stroke="transparent" points="2752,-10 2752,-30 2772,-30 2772,-10 2752,-10"/>
<text text-anchor="start" x="2775.7258" y="-15.4" font-family="sans-serif" font-size="14.00" fill="#000000"> &#160;Exports</text>
<g id="clust1" class="cluster">
<title>cluster_FanMenuModule</title>
<polygon fill="none" stroke="#000000" stroke-dasharray="1,5" points="8,-70 8,-268 525,-268 525,-70 8,-70"/>
</g>
<g id="clust2" class="cluster">
<title>cluster_FanMenuModule_declarations</title>
<polygon fill="none" stroke="#000000" points="168,-78 168,-130 517,-130 517,-78 168,-78"/>
</g>
<g id="clust6" class="cluster">
<title>cluster_FanMenuModule_exports</title>
<polygon fill="none" stroke="#000000" points="242,-208 242,-260 430,-260 430,-208 242,-208"/>
</g>
<g id="clust8" class="cluster">
<title>cluster_FanMenuModule_providers</title>
<polygon fill="none" stroke="#000000" points="16,-78 16,-130 160,-130 160,-78 16,-78"/>
</g>
<g id="clust9" class="cluster">
<title>cluster_WickeyAppStoreModule</title>
<polygon fill="none" stroke="#000000" stroke-dasharray="1,5" points="533,-70 533,-336 5180,-336 5180,-70 533,-70"/>
</g>
<g id="clust10" class="cluster">
<title>cluster_WickeyAppStoreModule_declarations</title>
<polygon fill="none" stroke="#000000" points="1439,-143 1439,-195 5172,-195 5172,-143 1439,-143"/>
</g>
<g id="clust25" class="cluster">
<title>cluster_WickeyAppStoreModule_CustomValidatorDirective_providers</title>
<polygon fill="none" stroke="#000000" points="2110,-78 2110,-130 2782,-130 2782,-78 2110,-78"/>
</g>
<g id="clust32" class="cluster">
<title>cluster_WickeyAppStoreModule_exports</title>
<polygon fill="none" stroke="#000000" points="867,-276 867,-328 4669,-328 4669,-276 867,-276"/>
</g>
<g id="clust34" class="cluster">
<title>cluster_WickeyAppStoreModule_providers</title>
<polygon fill="none" stroke="#000000" points="541,-143 541,-195 1431,-195 1431,-143 541,-143"/>
</g>
<!-- MenuContainerComponent -->
<g id="node1" class="node">
<title>MenuContainerComponent</title>
<polygon fill="#ffffb3" stroke="#000000" points="508.6993,-122 339.3007,-122 339.3007,-86 508.6993,-86 508.6993,-122"/>
<text text-anchor="middle" x="424" y="-99.8" font-family="Times,serif" font-size="14.00" fill="#000000">MenuContainerComponent</text>
</g>
<!-- FanMenuModule -->
<g id="node3" class="node">
<title>FanMenuModule</title>
<polygon fill="#8dd3c7" stroke="#000000" points="392.7064,-187 389.7064,-191 368.7064,-191 365.7064,-187 279.2936,-187 279.2936,-151 392.7064,-151 392.7064,-187"/>
<text text-anchor="middle" x="336" y="-164.8" font-family="Times,serif" font-size="14.00" fill="#000000">FanMenuModule</text>
</g>
<!-- MenuContainerComponent&#45;&gt;FanMenuModule -->
<g id="edge1" class="edge">
<title>MenuContainerComponent&#45;&gt;FanMenuModule</title>
<path fill="none" stroke="#000000" d="M366.0018,-122.1061C366.0018,-122.1061 366.0018,-140.991 366.0018,-140.991"/>
<polygon fill="#000000" stroke="#000000" points="362.5018,-140.9909 366.0018,-150.991 369.5018,-140.991 362.5018,-140.9909"/>
</g>
<!-- MenuWingComponent -->
<g id="node2" class="node">
<title>MenuWingComponent</title>
<polygon fill="#ffffb3" stroke="#000000" points="321.5968,-122 176.4032,-122 176.4032,-86 321.5968,-86 321.5968,-122"/>
<text text-anchor="middle" x="249" y="-99.8" font-family="Times,serif" font-size="14.00" fill="#000000">MenuWingComponent</text>
</g>
<!-- MenuWingComponent&#45;&gt;FanMenuModule -->
<g id="edge2" class="edge">
<title>MenuWingComponent&#45;&gt;FanMenuModule</title>
<path fill="none" stroke="#000000" d="M300.4727,-122.1061C300.4727,-122.1061 300.4727,-140.991 300.4727,-140.991"/>
<polygon fill="#000000" stroke="#000000" points="296.9727,-140.9909 300.4727,-150.991 303.9727,-140.991 296.9727,-140.9909"/>
</g>
<!-- MenuContainerComponent  -->
<g id="node4" class="node">
<title>MenuContainerComponent </title>
<polygon fill="#fb8072" stroke="#000000" points="422.1995,-252 249.8005,-252 249.8005,-216 422.1995,-216 422.1995,-252"/>
<text text-anchor="middle" x="336" y="-229.8" font-family="Times,serif" font-size="14.00" fill="#000000">MenuContainerComponent </text>
</g>
<!-- FanMenuModule&#45;&gt;MenuContainerComponent  -->
<g id="edge3" class="edge">
<title>FanMenuModule&#45;&gt;MenuContainerComponent </title>
<path fill="none" stroke="#000000" stroke-dasharray="5,2" d="M336,-187.1061C336,-187.1061 336,-205.991 336,-205.991"/>
<polygon fill="#000000" stroke="#000000" points="332.5001,-205.9909 336,-215.991 339.5001,-205.991 332.5001,-205.9909"/>
</g>
<!-- WickeyAppStoreModule -->
<g id="node26" class="node">
<title>WickeyAppStoreModule</title>
<polygon fill="#8dd3c7" stroke="#000000" points="2777.2394,-252 2774.2394,-256 2753.2394,-256 2750.2394,-252 2620.7606,-252 2620.7606,-216 2777.2394,-216 2777.2394,-252"/>
<text text-anchor="middle" x="2699" y="-229.8" font-family="Times,serif" font-size="14.00" fill="#000000">WickeyAppStoreModule</text>
</g>
<!-- FanMenuModule&#45;&gt;WickeyAppStoreModule -->
<g id="edge26" class="edge">
<title>FanMenuModule&#45;&gt;WickeyAppStoreModule</title>
<path fill="none" stroke="#000000" d="M392.7894,-169C427.5777,-169 465.4746,-169 465.4746,-169 465.4746,-169 465.4746,-236 465.4746,-236 465.4746,-236 2610.4908,-236 2610.4908,-236"/>
<polygon fill="#000000" stroke="#000000" points="2610.4908,-239.5001 2620.4908,-236 2610.4908,-232.5001 2610.4908,-239.5001"/>
</g>
<!-- MenuOptions -->
<g id="node5" class="node">
<title>MenuOptions</title>
<ellipse fill="#fdb462" stroke="#000000" cx="88" cy="-104" rx="64.2881" ry="18"/>
<text text-anchor="middle" x="88" y="-99.8" font-family="Times,serif" font-size="14.00" fill="#000000">MenuOptions</text>
</g>
<!-- MenuOptions&#45;&gt;FanMenuModule -->
<g id="edge4" class="edge">
<title>MenuOptions&#45;&gt;FanMenuModule</title>
<path fill="none" stroke="#000000" d="M88,-122.1061C88,-141.3391 88,-169 88,-169 88,-169 269.1038,-169 269.1038,-169"/>
<polygon fill="#000000" stroke="#000000" points="269.1038,-172.5001 279.1038,-169 269.1038,-165.5001 269.1038,-172.5001"/>
</g>
<!-- WasSpinnerComponent -->
<g id="node6" class="node">
<title>WasSpinnerComponent</title>
<polygon fill="#ffffb3" stroke="#000000" points="5163.7548,-187 5014.2452,-187 5014.2452,-151 5163.7548,-151 5163.7548,-187"/>
<text text-anchor="middle" x="5089" y="-164.8" font-family="Times,serif" font-size="14.00" fill="#000000">WasSpinnerComponent</text>
</g>
<!-- WasSpinnerComponent&#45;&gt;WickeyAppStoreModule -->
<g id="edge5" class="edge">
<title>WasSpinnerComponent&#45;&gt;WickeyAppStoreModule</title>
<path fill="none" stroke="#000000" d="M5089,-187.308C5089,-207.1455 5089,-236 5089,-236 5089,-236 2787.4995,-236 2787.4995,-236"/>
<polygon fill="#000000" stroke="#000000" points="2787.4995,-232.5001 2777.4995,-236 2787.4994,-239.5001 2787.4995,-232.5001"/>
</g>
<!-- WickeyAppStoreComponent -->
<g id="node7" class="node">
<title>WickeyAppStoreComponent</title>
<polygon fill="#ffffb3" stroke="#000000" points="4996.0224,-187 4817.9776,-187 4817.9776,-151 4996.0224,-151 4996.0224,-187"/>
<text text-anchor="middle" x="4907" y="-164.8" font-family="Times,serif" font-size="14.00" fill="#000000">WickeyAppStoreComponent</text>
</g>
<!-- WickeyAppStoreComponent&#45;&gt;WickeyAppStoreModule -->
<g id="edge6" class="edge">
<title>WickeyAppStoreComponent&#45;&gt;WickeyAppStoreModule</title>
<path fill="none" stroke="#000000" d="M4907,-187.1061C4907,-206.3391 4907,-234 4907,-234 4907,-234 2787.2593,-234 2787.2593,-234"/>
<polygon fill="#000000" stroke="#000000" points="2787.2593,-230.5001 2777.2593,-234 2787.2593,-237.5001 2787.2593,-230.5001"/>
</g>
<!-- DisplayAppsComponent -->
<g id="node8" class="node">
<title>DisplayAppsComponent</title>
<polygon fill="#ffffb3" stroke="#000000" points="4800.4312,-187 4645.5688,-187 4645.5688,-151 4800.4312,-151 4800.4312,-187"/>
<text text-anchor="middle" x="4723" y="-164.8" font-family="Times,serif" font-size="14.00" fill="#000000">DisplayAppsComponent</text>
</g>
<!-- DisplayAppsComponent&#45;&gt;WickeyAppStoreModule -->
<g id="edge7" class="edge">
<title>DisplayAppsComponent&#45;&gt;WickeyAppStoreModule</title>
<path fill="none" stroke="#000000" d="M4653.206,-187.1686C4653.206,-206.0898 4653.206,-233 4653.206,-233 4653.206,-233 2787.4193,-233 2787.4193,-233"/>
<polygon fill="#000000" stroke="#000000" points="2787.4193,-229.5001 2777.4193,-233 2787.4192,-236.5001 2787.4193,-229.5001"/>
</g>
<!-- AppDetailPageComponent -->
<g id="node9" class="node">
<title>AppDetailPageComponent</title>
<polygon fill="#ffffb3" stroke="#000000" points="4627.3585,-187 4460.6415,-187 4460.6415,-151 4627.3585,-151 4627.3585,-187"/>
<text text-anchor="middle" x="4544" y="-164.8" font-family="Times,serif" font-size="14.00" fill="#000000">AppDetailPageComponent</text>
</g>
<!-- AppDetailPageComponent&#45;&gt;WickeyAppStoreModule -->
<g id="edge8" class="edge">
<title>AppDetailPageComponent&#45;&gt;WickeyAppStoreModule</title>
<path fill="none" stroke="#000000" d="M4474.7909,-187.2667C4474.7909,-205.5552 4474.7909,-231 4474.7909,-231 4474.7909,-231 2787.3068,-231 2787.3068,-231"/>
<polygon fill="#000000" stroke="#000000" points="2787.3068,-227.5001 2777.3068,-231 2787.3067,-234.5001 2787.3068,-227.5001"/>
</g>
<!-- AppGroupHorizontalComponent -->
<g id="node10" class="node">
<title>AppGroupHorizontalComponent</title>
<polygon fill="#ffffb3" stroke="#000000" points="4442.5744,-187 4241.4256,-187 4241.4256,-151 4442.5744,-151 4442.5744,-187"/>
<text text-anchor="middle" x="4342" y="-164.8" font-family="Times,serif" font-size="14.00" fill="#000000">AppGroupHorizontalComponent</text>
</g>
<!-- AppGroupHorizontalComponent&#45;&gt;WickeyAppStoreModule -->
<g id="edge9" class="edge">
<title>AppGroupHorizontalComponent&#45;&gt;WickeyAppStoreModule</title>
<path fill="none" stroke="#000000" d="M4265.2141,-187.302C4265.2141,-205.2699 4265.2141,-230 4265.2141,-230 4265.2141,-230 2787.4732,-230 2787.4732,-230"/>
<polygon fill="#000000" stroke="#000000" points="2787.4732,-226.5001 2777.4732,-230 2787.4732,-233.5001 2787.4732,-226.5001"/>
</g>
<!-- AppGroupVerticalComponent -->
<g id="node11" class="node">
<title>AppGroupVerticalComponent</title>
<polygon fill="#ffffb3" stroke="#000000" points="4223.2892,-187 4036.7108,-187 4036.7108,-151 4223.2892,-151 4223.2892,-187"/>
<text text-anchor="middle" x="4130" y="-164.8" font-family="Times,serif" font-size="14.00" fill="#000000">AppGroupVerticalComponent</text>
</g>
<!-- AppGroupVerticalComponent&#45;&gt;WickeyAppStoreModule -->
<g id="edge10" class="edge">
<title>AppGroupVerticalComponent&#45;&gt;WickeyAppStoreModule</title>
<path fill="none" stroke="#000000" d="M4075.0174,-187.0225C4075.0174,-204.3734 4075.0174,-228 4075.0174,-228 4075.0174,-228 2787.4224,-228 2787.4224,-228"/>
<polygon fill="#000000" stroke="#000000" points="2787.4224,-224.5001 2777.4224,-228 2787.4223,-231.5001 2787.4224,-224.5001"/>
</g>
<!-- DisplayAppMiniComponent -->
<g id="node12" class="node">
<title>DisplayAppMiniComponent</title>
<polygon fill="#ffffb3" stroke="#000000" points="4019.2119,-187 3842.7881,-187 3842.7881,-151 4019.2119,-151 4019.2119,-187"/>
<text text-anchor="middle" x="3931" y="-164.8" font-family="Times,serif" font-size="14.00" fill="#000000">DisplayAppMiniComponent</text>
</g>
<!-- DisplayAppMiniComponent&#45;&gt;WickeyAppStoreModule -->
<g id="edge11" class="edge">
<title>DisplayAppMiniComponent&#45;&gt;WickeyAppStoreModule</title>
<path fill="none" stroke="#000000" d="M3884.0907,-187.0352C3884.0907,-203.7344 3884.0907,-226 3884.0907,-226 3884.0907,-226 2787.6749,-226 2787.6749,-226"/>
<polygon fill="#000000" stroke="#000000" points="2787.6749,-222.5001 2777.6749,-226 2787.6749,-229.5001 2787.6749,-222.5001"/>
</g>
<!-- DisplayAppFeaturedComponent -->
<g id="node13" class="node">
<title>DisplayAppFeaturedComponent</title>
<polygon fill="#ffffb3" stroke="#000000" points="3824.9636,-187 3627.0364,-187 3627.0364,-151 3824.9636,-151 3824.9636,-187"/>
<text text-anchor="middle" x="3726" y="-164.8" font-family="Times,serif" font-size="14.00" fill="#000000">DisplayAppFeaturedComponent</text>
</g>
<!-- DisplayAppFeaturedComponent&#45;&gt;WickeyAppStoreModule -->
<g id="edge12" class="edge">
<title>DisplayAppFeaturedComponent&#45;&gt;WickeyAppStoreModule</title>
<path fill="none" stroke="#000000" d="M3664.9564,-187.027C3664.9564,-203.3976 3664.9564,-225 3664.9564,-225 3664.9564,-225 2787.6387,-225 2787.6387,-225"/>
<polygon fill="#000000" stroke="#000000" points="2787.6387,-221.5001 2777.6387,-225 2787.6387,-228.5001 2787.6387,-221.5001"/>
</g>
<!-- PopoverBaseComponent -->
<g id="node14" class="node">
<title>PopoverBaseComponent</title>
<polygon fill="#ffffb3" stroke="#000000" points="3608.7007,-187 3453.2993,-187 3453.2993,-151 3608.7007,-151 3608.7007,-187"/>
<text text-anchor="middle" x="3531" y="-164.8" font-family="Times,serif" font-size="14.00" fill="#000000">PopoverBaseComponent</text>
</g>
<!-- PopoverBaseComponent&#45;&gt;WickeyAppStoreModule -->
<g id="edge13" class="edge">
<title>PopoverBaseComponent&#45;&gt;WickeyAppStoreModule</title>
<path fill="none" stroke="#000000" d="M3474.1278,-187.2819C3474.1278,-202.9478 3474.1278,-223 3474.1278,-223 3474.1278,-223 2787.589,-223 2787.589,-223"/>
<polygon fill="#000000" stroke="#000000" points="2787.5891,-219.5001 2777.589,-223 2787.589,-226.5001 2787.5891,-219.5001"/>
</g>
<!-- PopoverAccountInfoComponent -->
<g id="node15" class="node">
<title>PopoverAccountInfoComponent</title>
<polygon fill="#ffffb3" stroke="#000000" points="3435.238,-187 3236.762,-187 3236.762,-151 3435.238,-151 3435.238,-187"/>
<text text-anchor="middle" x="3336" y="-164.8" font-family="Times,serif" font-size="14.00" fill="#000000">PopoverAccountInfoComponent</text>
</g>
<!-- PopoverAccountInfoComponent&#45;&gt;WickeyAppStoreModule -->
<g id="edge14" class="edge">
<title>PopoverAccountInfoComponent&#45;&gt;WickeyAppStoreModule</title>
<path fill="none" stroke="#000000" d="M3266.6815,-187.1871C3266.6815,-202.1824 3266.6815,-221 3266.6815,-221 3266.6815,-221 2787.3377,-221 2787.3377,-221"/>
<polygon fill="#000000" stroke="#000000" points="2787.3377,-217.5001 2777.3377,-221 2787.3376,-224.5001 2787.3377,-217.5001"/>
</g>
<!-- PopoverLoginComponent -->
<g id="node16" class="node">
<title>PopoverLoginComponent</title>
<polygon fill="#ffffb3" stroke="#000000" points="3218.934,-187 3057.066,-187 3057.066,-151 3218.934,-151 3218.934,-187"/>
<text text-anchor="middle" x="3138" y="-164.8" font-family="Times,serif" font-size="14.00" fill="#000000">PopoverLoginComponent</text>
</g>
<!-- PopoverLoginComponent&#45;&gt;WickeyAppStoreModule -->
<g id="edge15" class="edge">
<title>PopoverLoginComponent&#45;&gt;WickeyAppStoreModule</title>
<path fill="none" stroke="#000000" d="M3067.3168,-187.1243C3067.3168,-201.7832 3067.3168,-220 3067.3168,-220 3067.3168,-220 2787.5614,-220 2787.5614,-220"/>
<polygon fill="#000000" stroke="#000000" points="2787.5615,-216.5001 2777.5614,-220 2787.5614,-223.5001 2787.5615,-216.5001"/>
</g>
<!-- PopoverReviewComponent -->
<g id="node17" class="node">
<title>PopoverReviewComponent</title>
<polygon fill="#ffffb3" stroke="#000000" points="3039.2534,-187 2868.7466,-187 2868.7466,-151 3039.2534,-151 3039.2534,-187"/>
<text text-anchor="middle" x="2954" y="-164.8" font-family="Times,serif" font-size="14.00" fill="#000000">PopoverReviewComponent</text>
</g>
<!-- PopoverReviewComponent&#45;&gt;WickeyAppStoreModule -->
<g id="edge16" class="edge">
<title>PopoverReviewComponent&#45;&gt;WickeyAppStoreModule</title>
<path fill="none" stroke="#000000" d="M2884.8712,-187.2458C2884.8712,-201.1772 2884.8712,-218 2884.8712,-218 2884.8712,-218 2787.2874,-218 2787.2874,-218"/>
<polygon fill="#000000" stroke="#000000" points="2787.2874,-214.5001 2777.2874,-218 2787.2874,-221.5001 2787.2874,-214.5001"/>
</g>
<!-- WASAlertComponent -->
<g id="node18" class="node">
<title>WASAlertComponent</title>
<polygon fill="#ffffb3" stroke="#000000" points="2850.6993,-187 2709.3007,-187 2709.3007,-151 2850.6993,-151 2850.6993,-187"/>
<text text-anchor="middle" x="2780" y="-164.8" font-family="Times,serif" font-size="14.00" fill="#000000">WASAlertComponent</text>
</g>
<!-- WASAlertComponent&#45;&gt;WickeyAppStoreModule -->
<g id="edge17" class="edge">
<title>WASAlertComponent&#45;&gt;WickeyAppStoreModule</title>
<path fill="none" stroke="#000000" d="M2743.385,-187.1061C2743.385,-187.1061 2743.385,-205.991 2743.385,-205.991"/>
<polygon fill="#000000" stroke="#000000" points="2739.8851,-205.9909 2743.385,-215.991 2746.8851,-205.991 2739.8851,-205.9909"/>
</g>
<!-- PopoverUpComponent -->
<g id="node19" class="node">
<title>PopoverUpComponent</title>
<polygon fill="#ffffb3" stroke="#000000" points="2691.5968,-187 2546.4032,-187 2546.4032,-151 2691.5968,-151 2691.5968,-187"/>
<text text-anchor="middle" x="2619" y="-164.8" font-family="Times,serif" font-size="14.00" fill="#000000">PopoverUpComponent</text>
</g>
<!-- PopoverUpComponent&#45;&gt;WickeyAppStoreModule -->
<g id="edge18" class="edge">
<title>PopoverUpComponent&#45;&gt;WickeyAppStoreModule</title>
<path fill="none" stroke="#000000" d="M2656.0894,-187.1061C2656.0894,-187.1061 2656.0894,-205.991 2656.0894,-205.991"/>
<polygon fill="#000000" stroke="#000000" points="2652.5895,-205.9909 2656.0894,-215.991 2659.5895,-205.991 2652.5895,-205.9909"/>
</g>
<!-- CustomValidatorDirective -->
<g id="node20" class="node">
<title>CustomValidatorDirective</title>
<polygon fill="#ffffb3" stroke="#000000" points="2528.0141,-187 2363.9859,-187 2363.9859,-151 2528.0141,-151 2528.0141,-187"/>
<text text-anchor="middle" x="2446" y="-164.8" font-family="Times,serif" font-size="14.00" fill="#000000">CustomValidatorDirective</text>
</g>
<!-- CustomValidatorDirective&#45;&gt;WickeyAppStoreModule -->
<g id="edge19" class="edge">
<title>CustomValidatorDirective&#45;&gt;WickeyAppStoreModule</title>
<path fill="none" stroke="#000000" d="M2521.895,-187.2458C2521.895,-201.1772 2521.895,-218 2521.895,-218 2521.895,-218 2610.5457,-218 2610.5457,-218"/>
<polygon fill="#000000" stroke="#000000" points="2610.5458,-221.5001 2620.5457,-218 2610.5457,-214.5001 2610.5458,-221.5001"/>
</g>
<!-- DisplayAppFullwidthComponent -->
<g id="node21" class="node">
<title>DisplayAppFullwidthComponent</title>
<polygon fill="#ffffb3" stroke="#000000" points="2345.9381,-187 2142.0619,-187 2142.0619,-151 2345.9381,-151 2345.9381,-187"/>
<text text-anchor="middle" x="2244" y="-164.8" font-family="Times,serif" font-size="14.00" fill="#000000">DisplayAppFullwidthComponent</text>
</g>
<!-- DisplayAppFullwidthComponent&#45;&gt;WickeyAppStoreModule -->
<g id="edge21" class="edge">
<title>DisplayAppFullwidthComponent&#45;&gt;WickeyAppStoreModule</title>
<path fill="none" stroke="#000000" d="M2334.2961,-187.1243C2334.2961,-201.7832 2334.2961,-220 2334.2961,-220 2334.2961,-220 2610.3137,-220 2610.3137,-220"/>
<polygon fill="#000000" stroke="#000000" points="2610.3137,-223.5001 2620.3137,-220 2610.3137,-216.5001 2610.3137,-223.5001"/>
</g>
<!-- ReviewsComponent -->
<g id="node22" class="node">
<title>ReviewsComponent</title>
<polygon fill="#ffffb3" stroke="#000000" points="2124.5408,-187 1995.4592,-187 1995.4592,-151 2124.5408,-151 2124.5408,-187"/>
<text text-anchor="middle" x="2060" y="-164.8" font-family="Times,serif" font-size="14.00" fill="#000000">ReviewsComponent</text>
</g>
<!-- ReviewsComponent&#45;&gt;WickeyAppStoreModule -->
<g id="edge22" class="edge">
<title>ReviewsComponent&#45;&gt;WickeyAppStoreModule</title>
<path fill="none" stroke="#000000" d="M2060,-187.1871C2060,-202.1824 2060,-221 2060,-221 2060,-221 2610.6461,-221 2610.6461,-221"/>
<polygon fill="#000000" stroke="#000000" points="2610.6461,-224.5001 2620.6461,-221 2610.646,-217.5001 2610.6461,-224.5001"/>
</g>
<!-- DisplayAppReviewComponent -->
<g id="node23" class="node">
<title>DisplayAppReviewComponent</title>
<polygon fill="#ffffb3" stroke="#000000" points="1976.7492,-187 1785.2508,-187 1785.2508,-151 1976.7492,-151 1976.7492,-187"/>
<text text-anchor="middle" x="1881" y="-164.8" font-family="Times,serif" font-size="14.00" fill="#000000">DisplayAppReviewComponent</text>
</g>
<!-- DisplayAppReviewComponent&#45;&gt;WickeyAppStoreModule -->
<g id="edge23" class="edge">
<title>DisplayAppReviewComponent&#45;&gt;WickeyAppStoreModule</title>
<path fill="none" stroke="#000000" d="M1863.9978,-187.2819C1863.9978,-202.9478 1863.9978,-223 1863.9978,-223 1863.9978,-223 2610.445,-223 2610.445,-223"/>
<polygon fill="#000000" stroke="#000000" points="2610.4451,-226.5001 2620.445,-223 2610.445,-219.5001 2610.4451,-226.5001"/>
</g>
<!-- AppGroupReviewsComponent -->
<g id="node24" class="node">
<title>AppGroupReviewsComponent</title>
<polygon fill="#ffffb3" stroke="#000000" points="1766.9143,-187 1577.0857,-187 1577.0857,-151 1766.9143,-151 1766.9143,-187"/>
<text text-anchor="middle" x="1672" y="-164.8" font-family="Times,serif" font-size="14.00" fill="#000000">AppGroupReviewsComponent</text>
</g>
<!-- AppGroupReviewsComponent&#45;&gt;WickeyAppStoreModule -->
<g id="edge24" class="edge">
<title>AppGroupReviewsComponent&#45;&gt;WickeyAppStoreModule</title>
<path fill="none" stroke="#000000" d="M1675.119,-187.027C1675.119,-203.3976 1675.119,-225 1675.119,-225 1675.119,-225 2610.3579,-225 2610.3579,-225"/>
<polygon fill="#000000" stroke="#000000" points="2610.3579,-228.5001 2620.3579,-225 2610.3578,-221.5001 2610.3579,-228.5001"/>
</g>
<!-- GetCategoryPipe -->
<g id="node25" class="node">
<title>GetCategoryPipe</title>
<polygon fill="#ffffb3" stroke="#000000" points="1559.4174,-187 1446.5826,-187 1446.5826,-151 1559.4174,-151 1559.4174,-187"/>
<text text-anchor="middle" x="1503" y="-164.8" font-family="Times,serif" font-size="14.00" fill="#000000">GetCategoryPipe</text>
</g>
<!-- GetCategoryPipe&#45;&gt;WickeyAppStoreModule -->
<g id="edge25" class="edge">
<title>GetCategoryPipe&#45;&gt;WickeyAppStoreModule</title>
<path fill="none" stroke="#000000" d="M1521.7361,-187.0352C1521.7361,-203.7344 1521.7361,-226 1521.7361,-226 1521.7361,-226 2610.3871,-226 2610.3871,-226"/>
<polygon fill="#000000" stroke="#000000" points="2610.3871,-229.5001 2620.3871,-226 2610.3871,-222.5001 2610.3871,-229.5001"/>
</g>
<!-- WasSpinnerComponent  -->
<g id="node28" class="node">
<title>WasSpinnerComponent </title>
<polygon fill="#fb8072" stroke="#000000" points="4660.7548,-320 4507.2452,-320 4507.2452,-284 4660.7548,-284 4660.7548,-320"/>
<text text-anchor="middle" x="4584" y="-297.8" font-family="Times,serif" font-size="14.00" fill="#000000">WasSpinnerComponent </text>
</g>
<!-- WickeyAppStoreModule&#45;&gt;WasSpinnerComponent  -->
<g id="edge27" class="edge">
<title>WickeyAppStoreModule&#45;&gt;WasSpinnerComponent </title>
<path fill="none" stroke="#000000" stroke-dasharray="5,2" d="M2777.4958,-238C3132.1129,-238 4567.4009,-238 4567.4009,-238 4567.4009,-238 4567.4009,-273.8314 4567.4009,-273.8314"/>
<polygon fill="#000000" stroke="#000000" points="4563.901,-273.8313 4567.4009,-283.8314 4570.901,-273.8314 4563.901,-273.8313"/>
</g>
<!-- WickeyAppStoreComponent  -->
<g id="node29" class="node">
<title>WickeyAppStoreComponent </title>
<polygon fill="#fb8072" stroke="#000000" points="4489.0218,-320 4306.9782,-320 4306.9782,-284 4489.0218,-284 4489.0218,-320"/>
<text text-anchor="middle" x="4398" y="-297.8" font-family="Times,serif" font-size="14.00" fill="#000000">WickeyAppStoreComponent </text>
</g>
<!-- WickeyAppStoreModule&#45;&gt;WickeyAppStoreComponent  -->
<g id="edge28" class="edge">
<title>WickeyAppStoreModule&#45;&gt;WickeyAppStoreComponent </title>
<path fill="none" stroke="#000000" stroke-dasharray="5,2" d="M2777.2989,-239C3108.1713,-239 4374.7632,-239 4374.7632,-239 4374.7632,-239 4374.7632,-273.7778 4374.7632,-273.7778"/>
<polygon fill="#000000" stroke="#000000" points="4371.2632,-273.7778 4374.7632,-283.7778 4378.2632,-273.7778 4371.2632,-273.7778"/>
</g>
<!-- DisplayAppsComponent  -->
<g id="node30" class="node">
<title>DisplayAppsComponent </title>
<polygon fill="#fb8072" stroke="#000000" points="4288.9306,-320 4131.0694,-320 4131.0694,-284 4288.9306,-284 4288.9306,-320"/>
<text text-anchor="middle" x="4210" y="-297.8" font-family="Times,serif" font-size="14.00" fill="#000000">DisplayAppsComponent </text>
</g>
<!-- WickeyAppStoreModule&#45;&gt;DisplayAppsComponent  -->
<g id="edge29" class="edge">
<title>WickeyAppStoreModule&#45;&gt;DisplayAppsComponent </title>
<path fill="none" stroke="#000000" stroke-dasharray="5,2" d="M2777.4249,-241C3083.0006,-241 4177.0896,-241 4177.0896,-241 4177.0896,-241 4177.0896,-273.698 4177.0896,-273.698"/>
<polygon fill="#000000" stroke="#000000" points="4173.5897,-273.698 4177.0896,-283.698 4180.5897,-273.698 4173.5897,-273.698"/>
</g>
<!-- AppDetailPageComponent  -->
<g id="node31" class="node">
<title>AppDetailPageComponent </title>
<polygon fill="#fb8072" stroke="#000000" points="4113.3588,-320 3942.6412,-320 3942.6412,-284 4113.3588,-284 4113.3588,-320"/>
<text text-anchor="middle" x="4028" y="-297.8" font-family="Times,serif" font-size="14.00" fill="#000000">AppDetailPageComponent </text>
</g>
<!-- WickeyAppStoreModule&#45;&gt;AppDetailPageComponent  -->
<g id="edge30" class="edge">
<title>WickeyAppStoreModule&#45;&gt;AppDetailPageComponent </title>
<path fill="none" stroke="#000000" stroke-dasharray="5,2" d="M2777.2628,-243C3055.5959,-243 3980.9634,-243 3980.9634,-243 3980.9634,-243 3980.9634,-273.9775 3980.9634,-273.9775"/>
<polygon fill="#000000" stroke="#000000" points="3977.4634,-273.9774 3980.9634,-283.9775 3984.4634,-273.9775 3977.4634,-273.9774"/>
</g>
<!-- AppGroupHorizontalComponent  -->
<g id="node32" class="node">
<title>AppGroupHorizontalComponent </title>
<polygon fill="#fb8072" stroke="#000000" points="3925.0748,-320 3720.9252,-320 3720.9252,-284 3925.0748,-284 3925.0748,-320"/>
<text text-anchor="middle" x="3823" y="-297.8" font-family="Times,serif" font-size="14.00" fill="#000000">AppGroupHorizontalComponent </text>
</g>
<!-- WickeyAppStoreModule&#45;&gt;AppGroupHorizontalComponent  -->
<g id="edge31" class="edge">
<title>WickeyAppStoreModule&#45;&gt;AppGroupHorizontalComponent </title>
<path fill="none" stroke="#000000" stroke-dasharray="5,2" d="M2777.5275,-244C3025.0795,-244 3772.8473,-244 3772.8473,-244 3772.8473,-244 3772.8473,-273.9664 3772.8473,-273.9664"/>
<polygon fill="#000000" stroke="#000000" points="3769.3474,-273.9663 3772.8473,-283.9664 3776.3474,-273.9664 3769.3474,-273.9663"/>
</g>
<!-- AppGroupVerticalComponent  -->
<g id="node33" class="node">
<title>AppGroupVerticalComponent </title>
<polygon fill="#fb8072" stroke="#000000" points="3702.7891,-320 3513.2109,-320 3513.2109,-284 3702.7891,-284 3702.7891,-320"/>
<text text-anchor="middle" x="3608" y="-297.8" font-family="Times,serif" font-size="14.00" fill="#000000">AppGroupVerticalComponent </text>
</g>
<!-- WickeyAppStoreModule&#45;&gt;AppGroupVerticalComponent  -->
<g id="edge32" class="edge">
<title>WickeyAppStoreModule&#45;&gt;AppGroupVerticalComponent </title>
<path fill="none" stroke="#000000" stroke-dasharray="5,2" d="M2777.3857,-246C2989.8419,-246 3560.8529,-246 3560.8529,-246 3560.8529,-246 3560.8529,-273.973 3560.8529,-273.973"/>
<polygon fill="#000000" stroke="#000000" points="3557.353,-273.973 3560.8529,-283.973 3564.353,-273.973 3557.353,-273.973"/>
</g>
<!-- DisplayAppMiniComponent  -->
<g id="node34" class="node">
<title>DisplayAppMiniComponent </title>
<polygon fill="#fb8072" stroke="#000000" points="3494.712,-320 3315.288,-320 3315.288,-284 3494.712,-284 3494.712,-320"/>
<text text-anchor="middle" x="3405" y="-297.8" font-family="Times,serif" font-size="14.00" fill="#000000">DisplayAppMiniComponent </text>
</g>
<!-- WickeyAppStoreModule&#45;&gt;DisplayAppMiniComponent  -->
<g id="edge33" class="edge">
<title>WickeyAppStoreModule&#45;&gt;DisplayAppMiniComponent </title>
<path fill="none" stroke="#000000" stroke-dasharray="5,2" d="M2777.567,-248C2955.7678,-248 3375.2565,-248 3375.2565,-248 3375.2565,-248 3375.2565,-273.7181 3375.2565,-273.7181"/>
<polygon fill="#000000" stroke="#000000" points="3371.7566,-273.718 3375.2565,-283.7181 3378.7566,-273.7181 3371.7566,-273.718"/>
</g>
<!-- DisplayAppFeaturedComponent  -->
<g id="node35" class="node">
<title>DisplayAppFeaturedComponent </title>
<polygon fill="#fb8072" stroke="#000000" points="3296.9641,-320 3095.0359,-320 3095.0359,-284 3296.9641,-284 3296.9641,-320"/>
<text text-anchor="middle" x="3196" y="-297.8" font-family="Times,serif" font-size="14.00" fill="#000000">DisplayAppFeaturedComponent </text>
</g>
<!-- WickeyAppStoreModule&#45;&gt;DisplayAppFeaturedComponent  -->
<g id="edge34" class="edge">
<title>WickeyAppStoreModule&#45;&gt;DisplayAppFeaturedComponent </title>
<path fill="none" stroke="#000000" stroke-dasharray="5,2" d="M2777.4714,-249C2908.3491,-249 3156.9924,-249 3156.9924,-249 3156.9924,-249 3156.9924,-273.7604 3156.9924,-273.7604"/>
<polygon fill="#000000" stroke="#000000" points="3153.4925,-273.7604 3156.9924,-283.7604 3160.4925,-273.7604 3153.4925,-273.7604"/>
</g>
<!-- PopoverBaseComponent  -->
<g id="node36" class="node">
<title>PopoverBaseComponent </title>
<polygon fill="#fb8072" stroke="#000000" points="3077.2009,-320 2918.7991,-320 2918.7991,-284 3077.2009,-284 3077.2009,-320"/>
<text text-anchor="middle" x="2998" y="-297.8" font-family="Times,serif" font-size="14.00" fill="#000000">PopoverBaseComponent </text>
</g>
<!-- WickeyAppStoreModule&#45;&gt;PopoverBaseComponent  -->
<g id="edge35" class="edge">
<title>WickeyAppStoreModule&#45;&gt;PopoverBaseComponent </title>
<path fill="none" stroke="#000000" stroke-dasharray="5,2" d="M2777.3716,-251C2860.2094,-251 2979.0131,-251 2979.0131,-251 2979.0131,-251 2979.0131,-273.8757 2979.0131,-273.8757"/>
<polygon fill="#000000" stroke="#000000" points="2975.5132,-273.8757 2979.0131,-283.8757 2982.5132,-273.8757 2975.5132,-273.8757"/>
</g>
<!-- PopoverAccountInfoComponent  -->
<g id="node37" class="node">
<title>PopoverAccountInfoComponent </title>
<polygon fill="#fb8072" stroke="#000000" points="2901.2379,-320 2698.7621,-320 2698.7621,-284 2901.2379,-284 2901.2379,-320"/>
<text text-anchor="middle" x="2800" y="-297.8" font-family="Times,serif" font-size="14.00" fill="#000000">PopoverAccountInfoComponent </text>
</g>
<!-- WickeyAppStoreModule&#45;&gt;PopoverAccountInfoComponent  -->
<g id="edge36" class="edge">
<title>WickeyAppStoreModule&#45;&gt;PopoverAccountInfoComponent </title>
<path fill="none" stroke="#000000" stroke-dasharray="5,2" d="M2738.1254,-252.2228C2738.1254,-252.2228 2738.1254,-273.7269 2738.1254,-273.7269"/>
<polygon fill="#000000" stroke="#000000" points="2734.6254,-273.7269 2738.1254,-283.7269 2741.6254,-273.727 2734.6254,-273.7269"/>
</g>
<!-- PopoverLoginComponent  -->
<g id="node38" class="node">
<title>PopoverLoginComponent </title>
<polygon fill="#fb8072" stroke="#000000" points="2680.4334,-320 2515.5666,-320 2515.5666,-284 2680.4334,-284 2680.4334,-320"/>
<text text-anchor="middle" x="2598" y="-297.8" font-family="Times,serif" font-size="14.00" fill="#000000">PopoverLoginComponent </text>
</g>
<!-- WickeyAppStoreModule&#45;&gt;PopoverLoginComponent  -->
<g id="edge37" class="edge">
<title>WickeyAppStoreModule&#45;&gt;PopoverLoginComponent </title>
<path fill="none" stroke="#000000" stroke-dasharray="5,2" d="M2650.5486,-252.2228C2650.5486,-252.2228 2650.5486,-273.7269 2650.5486,-273.7269"/>
<polygon fill="#000000" stroke="#000000" points="2647.0486,-273.7269 2650.5486,-283.7269 2654.0486,-273.727 2647.0486,-273.7269"/>
</g>
<!-- PopoverReviewComponent  -->
<g id="node39" class="node">
<title>PopoverReviewComponent </title>
<polygon fill="#fb8072" stroke="#000000" points="2497.2534,-320 2322.7466,-320 2322.7466,-284 2497.2534,-284 2497.2534,-320"/>
<text text-anchor="middle" x="2410" y="-297.8" font-family="Times,serif" font-size="14.00" fill="#000000">PopoverReviewComponent </text>
</g>
<!-- WickeyAppStoreModule&#45;&gt;PopoverReviewComponent  -->
<g id="edge38" class="edge">
<title>WickeyAppStoreModule&#45;&gt;PopoverReviewComponent </title>
<path fill="none" stroke="#000000" stroke-dasharray="5,2" d="M2620.5979,-251C2541.3272,-251 2430.435,-251 2430.435,-251 2430.435,-251 2430.435,-273.8757 2430.435,-273.8757"/>
<polygon fill="#000000" stroke="#000000" points="2426.935,-273.8757 2430.435,-283.8757 2433.935,-273.8757 2426.935,-273.8757"/>
</g>
<!-- WASAlertComponent  -->
<g id="node40" class="node">
<title>WASAlertComponent </title>
<polygon fill="#fb8072" stroke="#000000" points="2305.1995,-320 2160.8005,-320 2160.8005,-284 2305.1995,-284 2305.1995,-320"/>
<text text-anchor="middle" x="2233" y="-297.8" font-family="Times,serif" font-size="14.00" fill="#000000">WASAlertComponent </text>
</g>
<!-- WickeyAppStoreModule&#45;&gt;WASAlertComponent  -->
<g id="edge39" class="edge">
<title>WickeyAppStoreModule&#45;&gt;WASAlertComponent </title>
<path fill="none" stroke="#000000" stroke-dasharray="5,2" d="M2620.7394,-249C2488.0065,-249 2233,-249 2233,-249 2233,-249 2233,-273.7604 2233,-273.7604"/>
<polygon fill="#000000" stroke="#000000" points="2229.5001,-273.7604 2233,-283.7604 2236.5001,-273.7604 2229.5001,-273.7604"/>
</g>
<!-- PopoverUpComponent  -->
<g id="node41" class="node">
<title>PopoverUpComponent </title>
<polygon fill="#fb8072" stroke="#000000" points="2142.0973,-320 1993.9027,-320 1993.9027,-284 2142.0973,-284 2142.0973,-320"/>
<text text-anchor="middle" x="2068" y="-297.8" font-family="Times,serif" font-size="14.00" fill="#000000">PopoverUpComponent </text>
</g>
<!-- WickeyAppStoreModule&#45;&gt;PopoverUpComponent  -->
<g id="edge40" class="edge">
<title>WickeyAppStoreModule&#45;&gt;PopoverUpComponent </title>
<path fill="none" stroke="#000000" stroke-dasharray="5,2" d="M2620.6703,-248C2465.4192,-248 2133.5256,-248 2133.5256,-248 2133.5256,-248 2133.5256,-273.7181 2133.5256,-273.7181"/>
<polygon fill="#000000" stroke="#000000" points="2130.0257,-273.718 2133.5256,-283.7181 2137.0257,-273.7181 2130.0257,-273.718"/>
</g>
<!-- CustomValidatorDirective  -->
<g id="node42" class="node">
<title>CustomValidatorDirective </title>
<polygon fill="#fb8072" stroke="#000000" points="1976.0134,-320 1807.9866,-320 1807.9866,-284 1976.0134,-284 1976.0134,-320"/>
<text text-anchor="middle" x="1892" y="-297.8" font-family="Times,serif" font-size="14.00" fill="#000000">CustomValidatorDirective </text>
</g>
<!-- WickeyAppStoreModule&#45;&gt;CustomValidatorDirective  -->
<g id="edge41" class="edge">
<title>WickeyAppStoreModule&#45;&gt;CustomValidatorDirective </title>
<path fill="none" stroke="#000000" stroke-dasharray="5,2" d="M2620.74,-246C2423.1968,-246 1920.0022,-246 1920.0022,-246 1920.0022,-246 1920.0022,-273.973 1920.0022,-273.973"/>
<polygon fill="#000000" stroke="#000000" points="1916.5023,-273.973 1920.0022,-283.973 1923.5023,-273.973 1916.5023,-273.973"/>
</g>
<!-- DisplayAppFullwidthComponent  -->
<g id="node43" class="node">
<title>DisplayAppFullwidthComponent </title>
<polygon fill="#fb8072" stroke="#000000" points="1790.4376,-320 1583.5624,-320 1583.5624,-284 1790.4376,-284 1790.4376,-320"/>
<text text-anchor="middle" x="1687" y="-297.8" font-family="Times,serif" font-size="14.00" fill="#000000">DisplayAppFullwidthComponent </text>
</g>
<!-- WickeyAppStoreModule&#45;&gt;DisplayAppFullwidthComponent  -->
<g id="edge42" class="edge">
<title>WickeyAppStoreModule&#45;&gt;DisplayAppFullwidthComponent </title>
<path fill="none" stroke="#000000" stroke-dasharray="5,2" d="M2620.6966,-244C2397.8106,-244 1775.9162,-244 1775.9162,-244 1775.9162,-244 1775.9162,-273.9664 1775.9162,-273.9664"/>
<polygon fill="#000000" stroke="#000000" points="1772.4163,-273.9663 1775.9162,-283.9664 1779.4163,-273.9664 1772.4163,-273.9663"/>
</g>
<!-- ReviewsComponent  -->
<g id="node44" class="node">
<title>ReviewsComponent </title>
<polygon fill="#fb8072" stroke="#000000" points="1565.54,-320 1432.46,-320 1432.46,-284 1565.54,-284 1565.54,-320"/>
<text text-anchor="middle" x="1499" y="-297.8" font-family="Times,serif" font-size="14.00" fill="#000000">ReviewsComponent </text>
</g>
<!-- WickeyAppStoreModule&#45;&gt;ReviewsComponent  -->
<g id="edge43" class="edge">
<title>WickeyAppStoreModule&#45;&gt;ReviewsComponent </title>
<path fill="none" stroke="#000000" stroke-dasharray="5,2" d="M2620.6999,-243C2352.057,-243 1484.2639,-243 1484.2639,-243 1484.2639,-243 1484.2639,-273.9775 1484.2639,-273.9775"/>
<polygon fill="#000000" stroke="#000000" points="1480.764,-273.9774 1484.2639,-283.9775 1487.764,-273.9775 1480.764,-273.9774"/>
</g>
<!-- DisplayAppReviewComponent  -->
<g id="node45" class="node">
<title>DisplayAppReviewComponent </title>
<polygon fill="#fb8072" stroke="#000000" points="1414.7492,-320 1219.2508,-320 1219.2508,-284 1414.7492,-284 1414.7492,-320"/>
<text text-anchor="middle" x="1317" y="-297.8" font-family="Times,serif" font-size="14.00" fill="#000000">DisplayAppReviewComponent </text>
</g>
<!-- WickeyAppStoreModule&#45;&gt;DisplayAppReviewComponent  -->
<g id="edge44" class="edge">
<title>WickeyAppStoreModule&#45;&gt;DisplayAppReviewComponent </title>
<path fill="none" stroke="#000000" stroke-dasharray="5,2" d="M2620.6473,-241C2328.5629,-241 1319.8129,-241 1319.8129,-241 1319.8129,-241 1319.8129,-273.698 1319.8129,-273.698"/>
<polygon fill="#000000" stroke="#000000" points="1316.313,-273.698 1319.8129,-283.698 1323.313,-273.698 1316.313,-273.698"/>
</g>
<!-- AppGroupReviewsComponent  -->
<g id="node46" class="node">
<title>AppGroupReviewsComponent </title>
<polygon fill="#fb8072" stroke="#000000" points="1201.4138,-320 1008.5862,-320 1008.5862,-284 1201.4138,-284 1201.4138,-320"/>
<text text-anchor="middle" x="1105" y="-297.8" font-family="Times,serif" font-size="14.00" fill="#000000">AppGroupReviewsComponent </text>
</g>
<!-- WickeyAppStoreModule&#45;&gt;AppGroupReviewsComponent  -->
<g id="edge45" class="edge">
<title>WickeyAppStoreModule&#45;&gt;AppGroupReviewsComponent </title>
<path fill="none" stroke="#000000" stroke-dasharray="5,2" d="M2620.5353,-239C2297.0119,-239 1083.5029,-239 1083.5029,-239 1083.5029,-239 1083.5029,-273.7778 1083.5029,-273.7778"/>
<polygon fill="#000000" stroke="#000000" points="1080.003,-273.7778 1083.5029,-283.7778 1087.003,-273.7778 1080.003,-273.7778"/>
</g>
<!-- GetCategoryPipe  -->
<g id="node47" class="node">
<title>GetCategoryPipe </title>
<polygon fill="#fb8072" stroke="#000000" points="990.9166,-320 875.0834,-320 875.0834,-284 990.9166,-284 990.9166,-320"/>
<text text-anchor="middle" x="933" y="-297.8" font-family="Times,serif" font-size="14.00" fill="#000000">GetCategoryPipe </text>
</g>
<!-- WickeyAppStoreModule&#45;&gt;GetCategoryPipe  -->
<g id="edge46" class="edge">
<title>WickeyAppStoreModule&#45;&gt;GetCategoryPipe </title>
<path fill="none" stroke="#000000" stroke-dasharray="5,2" d="M2620.5927,-238C2279.3177,-238 940.369,-238 940.369,-238 940.369,-238 940.369,-273.8314 940.369,-273.8314"/>
<polygon fill="#000000" stroke="#000000" points="936.8689,-273.8314 940.369,-283.8314 943.8689,-273.8313 936.8689,-273.8314"/>
</g>
<!-- { provide: NG_VALIDATORS, useExisting: CustomValidatorDirective, multi: &#160;} -->
<g id="node27" class="node">
<title>{ provide: NG_VALIDATORS, useExisting: CustomValidatorDirective, multi: &#160;}</title>
<ellipse fill="#fdb462" stroke="#000000" cx="2446" cy="-104" rx="327.8583" ry="18"/>
<text text-anchor="middle" x="2446" y="-99.8" font-family="Times,serif" font-size="14.00" fill="#000000">{ provide: NG_VALIDATORS, useExisting: CustomValidatorDirective, multi: &#160;}</text>
</g>
<!-- { provide: NG_VALIDATORS, useExisting: CustomValidatorDirective, multi: &#160;}&#45;&gt;CustomValidatorDirective -->
<g id="edge20" class="edge">
<title>{ provide: NG_VALIDATORS, useExisting: CustomValidatorDirective, multi: &#160;}&#45;&gt;CustomValidatorDirective</title>
<path fill="none" stroke="#000000" d="M2446,-122.1061C2446,-122.1061 2446,-140.991 2446,-140.991"/>
<polygon fill="#000000" stroke="#000000" points="2442.5001,-140.9909 2446,-150.991 2449.5001,-140.991 2442.5001,-140.9909"/>
</g>
<!-- ApiConnectionService -->
<g id="node48" class="node">
<title>ApiConnectionService</title>
<ellipse fill="#fdb462" stroke="#000000" cx="1324" cy="-169" rx="98.9974" ry="18"/>
<text text-anchor="middle" x="1324" y="-164.8" font-family="Times,serif" font-size="14.00" fill="#000000">ApiConnectionService</text>
</g>
<!-- ApiConnectionService&#45;&gt;WickeyAppStoreModule -->
<g id="edge47" class="edge">
<title>ApiConnectionService&#45;&gt;WickeyAppStoreModule</title>
<path fill="none" stroke="#000000" d="M1418.8116,-174.4448C1418.8116,-189.0508 1418.8116,-228 1418.8116,-228 1418.8116,-228 2610.3657,-228 2610.3657,-228"/>
<polygon fill="#000000" stroke="#000000" points="2610.3658,-231.5001 2620.3657,-228 2610.3657,-224.5001 2610.3658,-231.5001"/>
</g>
<!-- LocalStorageService -->
<g id="node49" class="node">
<title>LocalStorageService</title>
<ellipse fill="#fdb462" stroke="#000000" cx="1116" cy="-169" rx="91.4481" ry="18"/>
<text text-anchor="middle" x="1116" y="-164.8" font-family="Times,serif" font-size="14.00" fill="#000000">LocalStorageService</text>
</g>
<!-- LocalStorageService&#45;&gt;WickeyAppStoreModule -->
<g id="edge48" class="edge">
<title>LocalStorageService&#45;&gt;WickeyAppStoreModule</title>
<path fill="none" stroke="#000000" d="M1142.4799,-186.317C1142.4799,-204.3513 1142.4799,-230 1142.4799,-230 1142.4799,-230 2610.7452,-230 2610.7452,-230"/>
<polygon fill="#000000" stroke="#000000" points="2610.7453,-233.5001 2620.7452,-230 2610.7452,-226.5001 2610.7453,-233.5001"/>
</g>
<!-- UserService -->
<g id="node50" class="node">
<title>UserService</title>
<ellipse fill="#fdb462" stroke="#000000" cx="948" cy="-169" rx="58.4415" ry="18"/>
<text text-anchor="middle" x="948" y="-164.8" font-family="Times,serif" font-size="14.00" fill="#000000">UserService</text>
</g>
<!-- UserService&#45;&gt;WickeyAppStoreModule -->
<g id="edge49" class="edge">
<title>UserService&#45;&gt;WickeyAppStoreModule</title>
<path fill="none" stroke="#000000" d="M998.5893,-178.1483C998.5893,-195.3947 998.5893,-231 998.5893,-231 998.5893,-231 2610.6772,-231 2610.6772,-231"/>
<polygon fill="#000000" stroke="#000000" points="2610.6773,-234.5001 2620.6772,-231 2610.6772,-227.5001 2610.6773,-234.5001"/>
</g>
<!-- WasAppService -->
<g id="node51" class="node">
<title>WasAppService</title>
<ellipse fill="#fdb462" stroke="#000000" cx="798" cy="-169" rx="73.556" ry="18"/>
<text text-anchor="middle" x="798" y="-164.8" font-family="Times,serif" font-size="14.00" fill="#000000">WasAppService</text>
</g>
<!-- WasAppService&#45;&gt;WickeyAppStoreModule -->
<g id="edge50" class="edge">
<title>WasAppService&#45;&gt;WickeyAppStoreModule</title>
<path fill="none" stroke="#000000" d="M798,-187.1686C798,-206.0898 798,-233 798,-233 798,-233 2610.6358,-233 2610.6358,-233"/>
<polygon fill="#000000" stroke="#000000" points="2610.6358,-236.5001 2620.6358,-233 2610.6358,-229.5001 2610.6358,-236.5001"/>
</g>
<!-- ClipboardService -->
<g id="node52" class="node">
<title>ClipboardService</title>
<ellipse fill="#fdb462" stroke="#000000" cx="628" cy="-169" rx="78.7298" ry="18"/>
<text text-anchor="middle" x="628" y="-164.8" font-family="Times,serif" font-size="14.00" fill="#000000">ClipboardService</text>
</g>
<!-- ClipboardService&#45;&gt;WickeyAppStoreModule -->
<g id="edge51" class="edge">
<title>ClipboardService&#45;&gt;WickeyAppStoreModule</title>
<path fill="none" stroke="#000000" d="M628,-187.1061C628,-206.3391 628,-234 628,-234 628,-234 2610.6568,-234 2610.6568,-234"/>
<polygon fill="#000000" stroke="#000000" points="2610.6569,-237.5001 2620.6568,-234 2610.6568,-230.5001 2610.6569,-237.5001"/>
</g>
</g>
</svg>
