<?xml version="1.0" encoding="UTF-8" standalone="no"?>
<!DOCTYPE svg PUBLIC "-//W3C//DTD SVG 1.1//EN"
 "http://www.w3.org/Graphics/SVG/1.1/DTD/svg11.dtd">
<!-- Generated by graphviz version 2.40.1 (20161225.0304)
 -->
<!-- Title: dependencies Pages: 1 -->
<svg width="2429pt" height="284pt"
 viewBox="0.00 0.00 2429.00 284.00" xmlns="http://www.w3.org/2000/svg" xmlns:xlink="http://www.w3.org/1999/xlink">
<g id="graph0" class="graph" transform="scale(1 1) rotate(0) translate(4 280)">
<title>dependencies</title>
<polygon fill="#ffffff" stroke="transparent" points="-4,4 -4,-280 2425,-280 2425,4 -4,4"/>
<text text-anchor="start" x="1189.5091" y="-42.4" font-family="sans-serif" font-weight="bold" font-size="14.00" fill="#000000">Legend</text>
<polygon fill="#ffffb3" stroke="transparent" points="976.5,-10 976.5,-30 996.5,-30 996.5,-10 976.5,-10"/>
<text text-anchor="start" x="1000.129" y="-15.4" font-family="sans-serif" font-size="14.00" fill="#000000"> &#160;Declarations</text>
<polygon fill="#8dd3c7" stroke="transparent" points="1089.5,-10 1089.5,-30 1109.5,-30 1109.5,-10 1089.5,-10"/>
<text text-anchor="start" x="1113.2251" y="-15.4" font-family="sans-serif" font-size="14.00" fill="#000000"> &#160;Module</text>
<polygon fill="#80b1d3" stroke="transparent" points="1175.5,-10 1175.5,-30 1195.5,-30 1195.5,-10 1175.5,-10"/>
<text text-anchor="start" x="1199.2812" y="-15.4" font-family="sans-serif" font-size="14.00" fill="#000000"> &#160;Bootstrap</text>
<polygon fill="#fdb462" stroke="transparent" points="1272.5,-10 1272.5,-30 1292.5,-30 1292.5,-10 1272.5,-10"/>
<text text-anchor="start" x="1296.1732" y="-15.4" font-family="sans-serif" font-size="14.00" fill="#000000"> &#160;Providers</text>
<polygon fill="#fb8072" stroke="transparent" points="1368.5,-10 1368.5,-30 1388.5,-30 1388.5,-10 1368.5,-10"/>
<text text-anchor="start" x="1392.2258" y="-15.4" font-family="sans-serif" font-size="14.00" fill="#000000"> &#160;Exports</text>
<g id="clust1" class="cluster">
<title>cluster_WickeyAppStoreModule</title>
<polygon fill="none" stroke="#000000" stroke-dasharray="1,5" points="8,-70 8,-268 2413,-268 2413,-70 8,-70"/>
</g>
<g id="clust3" class="cluster">
<title>cluster_WickeyAppStoreModule_imports</title>
<polygon fill="none" stroke="#000000" points="841,-78 841,-130 1533,-130 1533,-78 841,-78"/>
</g>
<g id="clust4" class="cluster">
<title>cluster_WickeyAppStoreModule_exports</title>
<polygon fill="none" stroke="#000000" points="16,-208 16,-260 2405,-260 2405,-208 16,-208"/>
</g>
<!-- CommonModule -->
<g id="node1" class="node">
<title>CommonModule</title>
<polygon fill="#8dd3c7" stroke="#000000" points="1524.6681,-122 1521.6681,-126 1500.6681,-126 1497.6681,-122 1413.3319,-122 1413.3319,-86 1524.6681,-86 1524.6681,-122"/>
<text text-anchor="middle" x="1469" y="-99.8" font-family="Times,serif" font-size="14.00" fill="#000000">CommonModule</text>
</g>
<!-- WickeyAppStoreModule -->
<g id="node6" class="node">
<title>WickeyAppStoreModule</title>
<polygon fill="#8dd3c7" stroke="#000000" points="1301.2394,-187 1298.2394,-191 1277.2394,-191 1274.2394,-187 1144.7606,-187 1144.7606,-151 1301.2394,-151 1301.2394,-187"/>
<text text-anchor="middle" x="1223" y="-164.8" font-family="Times,serif" font-size="14.00" fill="#000000">WickeyAppStoreModule</text>
</g>
<!-- CommonModule&#45;&gt;WickeyAppStoreModule -->
<g id="edge1" class="edge">
<title>CommonModule&#45;&gt;WickeyAppStoreModule</title>
<path fill="none" stroke="#000000" d="M1423.2267,-122.2396C1423.2267,-137.5706 1423.2267,-157 1423.2267,-157 1423.2267,-157 1311.2731,-157 1311.2731,-157"/>
<polygon fill="#000000" stroke="#000000" points="1311.2732,-153.5001 1301.2731,-157 1311.2731,-160.5001 1311.2732,-153.5001"/>
</g>
<!-- BrowserModule -->
<g id="node2" class="node">
<title>BrowserModule</title>
<polygon fill="#8dd3c7" stroke="#000000" points="1395.4734,-122 1392.4734,-126 1371.4734,-126 1368.4734,-122 1288.5266,-122 1288.5266,-86 1395.4734,-86 1395.4734,-122"/>
<text text-anchor="middle" x="1342" y="-99.8" font-family="Times,serif" font-size="14.00" fill="#000000">BrowserModule</text>
</g>
<!-- BrowserModule&#45;&gt;WickeyAppStoreModule -->
<g id="edge2" class="edge">
<title>BrowserModule&#45;&gt;WickeyAppStoreModule</title>
<path fill="none" stroke="#000000" d="M1294.9415,-122.1061C1294.9415,-122.1061 1294.9415,-140.991 1294.9415,-140.991"/>
<polygon fill="#000000" stroke="#000000" points="1291.4415,-140.9909 1294.9415,-150.991 1298.4415,-140.991 1291.4415,-140.9909"/>
</g>
<!-- FormsModule -->
<g id="node3" class="node">
<title>FormsModule</title>
<polygon fill="#8dd3c7" stroke="#000000" points="1270.8288,-122 1267.8288,-126 1246.8288,-126 1243.8288,-122 1175.1712,-122 1175.1712,-86 1270.8288,-86 1270.8288,-122"/>
<text text-anchor="middle" x="1223" y="-99.8" font-family="Times,serif" font-size="14.00" fill="#000000">FormsModule</text>
</g>
<!-- FormsModule&#45;&gt;WickeyAppStoreModule -->
<g id="edge3" class="edge">
<title>FormsModule&#45;&gt;WickeyAppStoreModule</title>
<path fill="none" stroke="#000000" d="M1223,-122.1061C1223,-122.1061 1223,-140.991 1223,-140.991"/>
<polygon fill="#000000" stroke="#000000" points="1219.5001,-140.9909 1223,-150.991 1226.5001,-140.991 1219.5001,-140.9909"/>
</g>
<!-- HttpClientModule -->
<g id="node4" class="node">
<title>HttpClientModule</title>
<polygon fill="#8dd3c7" stroke="#000000" points="1157.1611,-122 1154.1611,-126 1133.1611,-126 1130.1611,-122 1038.8389,-122 1038.8389,-86 1157.1611,-86 1157.1611,-122"/>
<text text-anchor="middle" x="1098" y="-99.8" font-family="Times,serif" font-size="14.00" fill="#000000">HttpClientModule</text>
</g>
<!-- HttpClientModule&#45;&gt;WickeyAppStoreModule -->
<g id="edge4" class="edge">
<title>HttpClientModule&#45;&gt;WickeyAppStoreModule</title>
<path fill="none" stroke="#000000" d="M1150.9804,-122.1061C1150.9804,-122.1061 1150.9804,-140.991 1150.9804,-140.991"/>
<polygon fill="#000000" stroke="#000000" points="1147.4804,-140.9909 1150.9804,-150.991 1154.4804,-140.991 1147.4804,-140.9909"/>
</g>
<!-- BrowserAnimationsModule -->
<g id="node5" class="node">
<title>BrowserAnimationsModule</title>
<polygon fill="#8dd3c7" stroke="#000000" points="1021.3019,-122 1018.3019,-126 997.3019,-126 994.3019,-122 848.6981,-122 848.6981,-86 1021.3019,-86 1021.3019,-122"/>
<text text-anchor="middle" x="935" y="-99.8" font-family="Times,serif" font-size="14.00" fill="#000000">BrowserAnimationsModule</text>
</g>
<!-- BrowserAnimationsModule&#45;&gt;WickeyAppStoreModule -->
<g id="edge5" class="edge">
<title>BrowserAnimationsModule&#45;&gt;WickeyAppStoreModule</title>
<path fill="none" stroke="#000000" d="M1011.9807,-122.2396C1011.9807,-137.5706 1011.9807,-157 1011.9807,-157 1011.9807,-157 1134.7241,-157 1134.7241,-157"/>
<polygon fill="#000000" stroke="#000000" points="1134.7241,-160.5001 1144.7241,-157 1134.724,-153.5001 1134.7241,-160.5001"/>
</g>
<!-- WickeyAppStoreComponent  -->
<g id="node7" class="node">
<title>WickeyAppStoreComponent </title>
<polygon fill="#fb8072" stroke="#000000" points="2397.0218,-252 2214.9782,-252 2214.9782,-216 2397.0218,-216 2397.0218,-252"/>
<text text-anchor="middle" x="2306" y="-229.8" font-family="Times,serif" font-size="14.00" fill="#000000">WickeyAppStoreComponent </text>
</g>
<!-- WickeyAppStoreModule&#45;&gt;WickeyAppStoreComponent  -->
<g id="edge6" class="edge">
<title>WickeyAppStoreModule&#45;&gt;WickeyAppStoreComponent </title>
<path fill="none" stroke="#000000" stroke-dasharray="5,2" d="M1301.3224,-162C1550.0926,-162 2306,-162 2306,-162 2306,-162 2306,-205.8314 2306,-205.8314"/>
<polygon fill="#000000" stroke="#000000" points="2302.5001,-205.8313 2306,-215.8314 2309.5001,-205.8314 2302.5001,-205.8313"/>
</g>
<!-- WASAlertPopupComponent  -->
<g id="node8" class="node">
<title>WASAlertPopupComponent </title>
<polygon fill="#fb8072" stroke="#000000" points="2197.4824,-252 2016.5176,-252 2016.5176,-216 2197.4824,-216 2197.4824,-252"/>
<text text-anchor="middle" x="2107" y="-229.8" font-family="Times,serif" font-size="14.00" fill="#000000">WASAlertPopupComponent </text>
</g>
<!-- WickeyAppStoreModule&#45;&gt;WASAlertPopupComponent  -->
<g id="edge7" class="edge">
<title>WickeyAppStoreModule&#45;&gt;WASAlertPopupComponent </title>
<path fill="none" stroke="#000000" stroke-dasharray="5,2" d="M1301.4491,-167C1517.7971,-167 2107,-167 2107,-167 2107,-167 2107,-205.692 2107,-205.692"/>
<polygon fill="#000000" stroke="#000000" points="2103.5001,-205.6919 2107,-215.692 2110.5001,-205.692 2103.5001,-205.6919"/>
</g>
<!-- DisplayAppsComponent  -->
<g id="node9" class="node">
<title>DisplayAppsComponent </title>
<polygon fill="#fb8072" stroke="#000000" points="1998.9306,-252 1841.0694,-252 1841.0694,-216 1998.9306,-216 1998.9306,-252"/>
<text text-anchor="middle" x="1920" y="-229.8" font-family="Times,serif" font-size="14.00" fill="#000000">DisplayAppsComponent </text>
</g>
<!-- WickeyAppStoreModule&#45;&gt;DisplayAppsComponent  -->
<g id="edge8" class="edge">
<title>WickeyAppStoreModule&#45;&gt;DisplayAppsComponent </title>
<path fill="none" stroke="#000000" stroke-dasharray="5,2" d="M1301.2626,-172C1483.3445,-172 1920,-172 1920,-172 1920,-172 1920,-205.7333 1920,-205.7333"/>
<polygon fill="#000000" stroke="#000000" points="1916.5001,-205.7333 1920,-215.7333 1923.5001,-205.7333 1916.5001,-205.7333"/>
</g>
<!-- AppDetailPageComponent  -->
<g id="node10" class="node">
<title>AppDetailPageComponent </title>
<polygon fill="#fb8072" stroke="#000000" points="1823.3588,-252 1652.6412,-252 1652.6412,-216 1823.3588,-216 1823.3588,-252"/>
<text text-anchor="middle" x="1738" y="-229.8" font-family="Times,serif" font-size="14.00" fill="#000000">AppDetailPageComponent </text>
</g>
<!-- WickeyAppStoreModule&#45;&gt;AppDetailPageComponent  -->
<g id="edge9" class="edge">
<title>WickeyAppStoreModule&#45;&gt;AppDetailPageComponent </title>
<path fill="none" stroke="#000000" stroke-dasharray="5,2" d="M1301.4975,-177C1445.6661,-177 1738,-177 1738,-177 1738,-177 1738,-205.9648 1738,-205.9648"/>
<polygon fill="#000000" stroke="#000000" points="1734.5001,-205.9648 1738,-215.9648 1741.5001,-205.9649 1734.5001,-205.9648"/>
</g>
<!-- AppReviewsPageComponent  -->
<g id="node11" class="node">
<title>AppReviewsPageComponent </title>
<polygon fill="#fb8072" stroke="#000000" points="1635.3587,-252 1450.6413,-252 1450.6413,-216 1635.3587,-216 1635.3587,-252"/>
<text text-anchor="middle" x="1543" y="-229.8" font-family="Times,serif" font-size="14.00" fill="#000000">AppReviewsPageComponent </text>
</g>
<!-- WickeyAppStoreModule&#45;&gt;AppReviewsPageComponent  -->
<g id="edge10" class="edge">
<title>WickeyAppStoreModule&#45;&gt;AppReviewsPageComponent </title>
<path fill="none" stroke="#000000" stroke-dasharray="5,2" d="M1301.382,-182C1379.4732,-182 1487.8273,-182 1487.8273,-182 1487.8273,-182 1487.8273,-205.8129 1487.8273,-205.8129"/>
<polygon fill="#000000" stroke="#000000" points="1484.3274,-205.8129 1487.8273,-215.8129 1491.3274,-205.813 1484.3274,-205.8129"/>
</g>
<!-- AppGroupHorizontalComponent  -->
<g id="node12" class="node">
<title>AppGroupHorizontalComponent </title>
<polygon fill="#fb8072" stroke="#000000" points="1433.0748,-252 1228.9252,-252 1228.9252,-216 1433.0748,-216 1433.0748,-252"/>
<text text-anchor="middle" x="1331" y="-229.8" font-family="Times,serif" font-size="14.00" fill="#000000">AppGroupHorizontalComponent </text>
</g>
<!-- WickeyAppStoreModule&#45;&gt;AppGroupHorizontalComponent  -->
<g id="edge11" class="edge">
<title>WickeyAppStoreModule&#45;&gt;AppGroupHorizontalComponent </title>
<path fill="none" stroke="#000000" stroke-dasharray="5,2" d="M1265.0412,-187.1061C1265.0412,-187.1061 1265.0412,-205.991 1265.0412,-205.991"/>
<polygon fill="#000000" stroke="#000000" points="1261.5413,-205.9909 1265.0412,-215.991 1268.5413,-205.991 1261.5413,-205.9909"/>
</g>
<!-- AppGroupVerticalComponent  -->
<g id="node13" class="node">
<title>AppGroupVerticalComponent </title>
<polygon fill="#fb8072" stroke="#000000" points="1210.7891,-252 1021.2109,-252 1021.2109,-216 1210.7891,-216 1210.7891,-252"/>
<text text-anchor="middle" x="1116" y="-229.8" font-family="Times,serif" font-size="14.00" fill="#000000">AppGroupVerticalComponent </text>
</g>
<!-- WickeyAppStoreModule&#45;&gt;AppGroupVerticalComponent  -->
<g id="edge12" class="edge">
<title>WickeyAppStoreModule&#45;&gt;AppGroupVerticalComponent </title>
<path fill="none" stroke="#000000" stroke-dasharray="5,2" d="M1177.7625,-187.1061C1177.7625,-187.1061 1177.7625,-205.991 1177.7625,-205.991"/>
<polygon fill="#000000" stroke="#000000" points="1174.2625,-205.9909 1177.7625,-215.991 1181.2625,-205.991 1174.2625,-205.9909"/>
</g>
<!-- DisplayAppMiniComponent  -->
<g id="node14" class="node">
<title>DisplayAppMiniComponent </title>
<polygon fill="#fb8072" stroke="#000000" points="1002.712,-252 823.288,-252 823.288,-216 1002.712,-216 1002.712,-252"/>
<text text-anchor="middle" x="913" y="-229.8" font-family="Times,serif" font-size="14.00" fill="#000000">DisplayAppMiniComponent </text>
</g>
<!-- WickeyAppStoreModule&#45;&gt;DisplayAppMiniComponent  -->
<g id="edge13" class="edge">
<title>WickeyAppStoreModule&#45;&gt;DisplayAppMiniComponent </title>
<path fill="none" stroke="#000000" stroke-dasharray="5,2" d="M1144.5393,-182C1056.5032,-182 925.8526,-182 925.8526,-182 925.8526,-182 925.8526,-205.8129 925.8526,-205.8129"/>
<polygon fill="#000000" stroke="#000000" points="922.3526,-205.8129 925.8526,-215.8129 929.3526,-205.813 922.3526,-205.8129"/>
</g>
<!-- DisplayAppFeaturedComponent  -->
<g id="node15" class="node">
<title>DisplayAppFeaturedComponent </title>
<polygon fill="#fb8072" stroke="#000000" points="804.9641,-252 603.0359,-252 603.0359,-216 804.9641,-216 804.9641,-252"/>
<text text-anchor="middle" x="704" y="-229.8" font-family="Times,serif" font-size="14.00" fill="#000000">DisplayAppFeaturedComponent </text>
</g>
<!-- WickeyAppStoreModule&#45;&gt;DisplayAppFeaturedComponent  -->
<g id="edge14" class="edge">
<title>WickeyAppStoreModule&#45;&gt;DisplayAppFeaturedComponent </title>
<path fill="none" stroke="#000000" stroke-dasharray="5,2" d="M1144.7385,-177C999.7511,-177 704,-177 704,-177 704,-177 704,-205.9648 704,-205.9648"/>
<polygon fill="#000000" stroke="#000000" points="700.5001,-205.9648 704,-215.9648 707.5001,-205.9649 700.5001,-205.9648"/>
</g>
<!-- PopoverBaseComponent  -->
<g id="node16" class="node">
<title>PopoverBaseComponent </title>
<polygon fill="#fb8072" stroke="#000000" points="585.2009,-252 426.7991,-252 426.7991,-216 585.2009,-216 585.2009,-252"/>
<text text-anchor="middle" x="506" y="-229.8" font-family="Times,serif" font-size="14.00" fill="#000000">PopoverBaseComponent </text>
</g>
<!-- WickeyAppStoreModule&#45;&gt;PopoverBaseComponent  -->
<g id="edge15" class="edge">
<title>WickeyAppStoreModule&#45;&gt;PopoverBaseComponent </title>
<path fill="none" stroke="#000000" stroke-dasharray="5,2" d="M1144.5608,-172C958.5164,-172 506,-172 506,-172 506,-172 506,-205.7333 506,-205.7333"/>
<polygon fill="#000000" stroke="#000000" points="502.5001,-205.7333 506,-215.7333 509.5001,-205.7333 502.5001,-205.7333"/>
</g>
<!-- PopoverAccountInfoComponent  -->
<g id="node17" class="node">
<title>PopoverAccountInfoComponent </title>
<polygon fill="#fb8072" stroke="#000000" points="409.2379,-252 206.7621,-252 206.7621,-216 409.2379,-216 409.2379,-252"/>
<text text-anchor="middle" x="308" y="-229.8" font-family="Times,serif" font-size="14.00" fill="#000000">PopoverAccountInfoComponent </text>
</g>
<!-- WickeyAppStoreModule&#45;&gt;PopoverAccountInfoComponent  -->
<g id="edge16" class="edge">
<title>WickeyAppStoreModule&#45;&gt;PopoverAccountInfoComponent </title>
<path fill="none" stroke="#000000" stroke-dasharray="5,2" d="M1144.5921,-167C922.9823,-167 308,-167 308,-167 308,-167 308,-205.692 308,-205.692"/>
<polygon fill="#000000" stroke="#000000" points="304.5001,-205.6919 308,-215.692 311.5001,-205.692 304.5001,-205.6919"/>
</g>
<!-- PopoverLoginComponent  -->
<g id="node18" class="node">
<title>PopoverLoginComponent </title>
<polygon fill="#fb8072" stroke="#000000" points="188.4334,-252 23.5666,-252 23.5666,-216 188.4334,-216 188.4334,-252"/>
<text text-anchor="middle" x="106" y="-229.8" font-family="Times,serif" font-size="14.00" fill="#000000">PopoverLoginComponent </text>
</g>
<!-- WickeyAppStoreModule&#45;&gt;PopoverLoginComponent  -->
<g id="edge17" class="edge">
<title>WickeyAppStoreModule&#45;&gt;PopoverLoginComponent </title>
<path fill="none" stroke="#000000" stroke-dasharray="5,2" d="M1144.4547,-162C890.2018,-162 106,-162 106,-162 106,-162 106,-205.8314 106,-205.8314"/>
<polygon fill="#000000" stroke="#000000" points="102.5001,-205.8313 106,-215.8314 109.5001,-205.8314 102.5001,-205.8313"/>
</g>
</g>
</svg>
