<?xml version="1.0" encoding="UTF-8" standalone="no"?>
<!DOCTYPE svg PUBLIC "-//W3C//DTD SVG 1.1//EN"
 "http://www.w3.org/Graphics/SVG/1.1/DTD/svg11.dtd">
<!-- Generated by graphviz version 2.40.1 (20161225.0304)
 -->
<!-- Title: dependencies Pages: 1 -->
<svg width="2264pt" height="349pt"
 viewBox="0.00 0.00 2264.00 349.00" xmlns="http://www.w3.org/2000/svg" xmlns:xlink="http://www.w3.org/1999/xlink">
<g id="graph0" class="graph" transform="scale(1 1) rotate(0) translate(4 345)">
<title>dependencies</title>
<polygon fill="#ffffff" stroke="transparent" points="-4,4 -4,-345 2260,-345 2260,4 -4,4"/>
<text text-anchor="start" x="1107.0091" y="-42.4" font-family="sans-serif" font-weight="bold" font-size="14.00" fill="#000000">Legend</text>
<polygon fill="#ffffb3" stroke="transparent" points="894,-10 894,-30 914,-30 914,-10 894,-10"/>
<text text-anchor="start" x="917.629" y="-15.4" font-family="sans-serif" font-size="14.00" fill="#000000"> &#160;Declarations</text>
<polygon fill="#8dd3c7" stroke="transparent" points="1007,-10 1007,-30 1027,-30 1027,-10 1007,-10"/>
<text text-anchor="start" x="1030.7251" y="-15.4" font-family="sans-serif" font-size="14.00" fill="#000000"> &#160;Module</text>
<polygon fill="#80b1d3" stroke="transparent" points="1093,-10 1093,-30 1113,-30 1113,-10 1093,-10"/>
<text text-anchor="start" x="1116.7812" y="-15.4" font-family="sans-serif" font-size="14.00" fill="#000000"> &#160;Bootstrap</text>
<polygon fill="#fdb462" stroke="transparent" points="1190,-10 1190,-30 1210,-30 1210,-10 1190,-10"/>
<text text-anchor="start" x="1213.6732" y="-15.4" font-family="sans-serif" font-size="14.00" fill="#000000"> &#160;Providers</text>
<polygon fill="#fb8072" stroke="transparent" points="1286,-10 1286,-30 1306,-30 1306,-10 1286,-10"/>
<text text-anchor="start" x="1309.7258" y="-15.4" font-family="sans-serif" font-size="14.00" fill="#000000"> &#160;Exports</text>
<g id="clust1" class="cluster">
<title>cluster_AppModule</title>
<polygon fill="none" stroke="#000000" stroke-dasharray="1,5" points="8,-70 8,-333 2248,-333 2248,-70 8,-70"/>
</g>
<g id="clust2" class="cluster">
<title>cluster_AppModule_declarations</title>
<polygon fill="none" stroke="#000000" points="552,-143 552,-195 2228,-195 2228,-143 552,-143"/>
</g>
<g id="clust3" class="cluster">
<title>cluster_AppModule_AppComponent_providers</title>
<polygon fill="none" stroke="#000000" points="2026,-78 2026,-130 2240,-130 2240,-78 2026,-78"/>
</g>
<g id="clust12" class="cluster">
<title>cluster_AppModule_imports</title>
<polygon fill="none" stroke="#000000" points="16,-143 16,-195 544,-195 544,-143 16,-143"/>
</g>
<g id="clust14" class="cluster">
<title>cluster_AppModule_bootstrap</title>
<polygon fill="none" stroke="#000000" points="1107,-273 1107,-325 1231,-325 1231,-273 1107,-273"/>
</g>
<!-- AppComponent -->
<g id="node1" class="node">
<title>AppComponent</title>
<polygon fill="#ffffb3" stroke="#000000" points="2219.9399,-187 2114.0601,-187 2114.0601,-151 2219.9399,-151 2219.9399,-187"/>
<text text-anchor="middle" x="2167" y="-164.8" font-family="Times,serif" font-size="14.00" fill="#000000">AppComponent</text>
</g>
<!-- AppModule -->
<g id="node10" class="node">
<title>AppModule</title>
<polygon fill="#8dd3c7" stroke="#000000" points="1210.6571,-252 1207.6571,-256 1186.6571,-256 1183.6571,-252 1127.3429,-252 1127.3429,-216 1210.6571,-216 1210.6571,-252"/>
<text text-anchor="middle" x="1169" y="-229.8" font-family="Times,serif" font-size="14.00" fill="#000000">AppModule</text>
</g>
<!-- AppComponent&#45;&gt;AppModule -->
<g id="edge1" class="edge">
<title>AppComponent&#45;&gt;AppModule</title>
<path fill="none" stroke="#000000" d="M2167,-187.2479C2167,-210.0179 2167,-246 2167,-246 2167,-246 1220.9283,-246 1220.9283,-246"/>
<polygon fill="#000000" stroke="#000000" points="1220.9283,-242.5001 1210.9283,-246 1220.9282,-249.5001 1220.9283,-242.5001"/>
</g>
<!-- AlertPopupComponent -->
<g id="node2" class="node">
<title>AlertPopupComponent</title>
<polygon fill="#ffffb3" stroke="#000000" points="2095.8781,-187 1950.1219,-187 1950.1219,-151 2095.8781,-151 2095.8781,-187"/>
<text text-anchor="middle" x="2023" y="-164.8" font-family="Times,serif" font-size="14.00" fill="#000000">AlertPopupComponent</text>
</g>
<!-- AlertPopupComponent&#45;&gt;AppModule -->
<g id="edge3" class="edge">
<title>AlertPopupComponent&#45;&gt;AppModule</title>
<path fill="none" stroke="#000000" d="M2023,-187.2843C2023,-208.3211 2023,-240 2023,-240 2023,-240 1220.7683,-240 1220.7683,-240"/>
<polygon fill="#000000" stroke="#000000" points="1220.7683,-236.5001 1210.7683,-240 1220.7683,-243.5001 1220.7683,-236.5001"/>
</g>
<!-- DisplayAppsComponent -->
<g id="node3" class="node">
<title>DisplayAppsComponent</title>
<polygon fill="#ffffb3" stroke="#000000" points="1932.4312,-187 1777.5688,-187 1777.5688,-151 1932.4312,-151 1932.4312,-187"/>
<text text-anchor="middle" x="1855" y="-164.8" font-family="Times,serif" font-size="14.00" fill="#000000">DisplayAppsComponent</text>
</g>
<!-- DisplayAppsComponent&#45;&gt;AppModule -->
<g id="edge4" class="edge">
<title>DisplayAppsComponent&#45;&gt;AppModule</title>
<path fill="none" stroke="#000000" d="M1855,-187.1061C1855,-206.3391 1855,-234 1855,-234 1855,-234 1220.8797,-234 1220.8797,-234"/>
<polygon fill="#000000" stroke="#000000" points="1220.8798,-230.5001 1210.8797,-234 1220.8797,-237.5001 1220.8798,-230.5001"/>
</g>
<!-- AppDetailPageComponent -->
<g id="node4" class="node">
<title>AppDetailPageComponent</title>
<polygon fill="#ffffb3" stroke="#000000" points="1759.3585,-187 1592.6415,-187 1592.6415,-151 1759.3585,-151 1759.3585,-187"/>
<text text-anchor="middle" x="1676" y="-164.8" font-family="Times,serif" font-size="14.00" fill="#000000">AppDetailPageComponent</text>
</g>
<!-- AppDetailPageComponent&#45;&gt;AppModule -->
<g id="edge5" class="edge">
<title>AppDetailPageComponent&#45;&gt;AppModule</title>
<path fill="none" stroke="#000000" d="M1676,-187.0225C1676,-204.3734 1676,-228 1676,-228 1676,-228 1220.9213,-228 1220.9213,-228"/>
<polygon fill="#000000" stroke="#000000" points="1220.9213,-224.5001 1210.9213,-228 1220.9212,-231.5001 1220.9213,-224.5001"/>
</g>
<!-- AppReviewsPageComponent -->
<g id="node5" class="node">
<title>AppReviewsPageComponent</title>
<polygon fill="#ffffb3" stroke="#000000" points="1574.3585,-187 1393.6415,-187 1393.6415,-151 1574.3585,-151 1574.3585,-187"/>
<text text-anchor="middle" x="1484" y="-164.8" font-family="Times,serif" font-size="14.00" fill="#000000">AppReviewsPageComponent</text>
</g>
<!-- AppReviewsPageComponent&#45;&gt;AppModule -->
<g id="edge6" class="edge">
<title>AppReviewsPageComponent&#45;&gt;AppModule</title>
<path fill="none" stroke="#000000" d="M1484,-187.2396C1484,-202.5706 1484,-222 1484,-222 1484,-222 1220.8296,-222 1220.8296,-222"/>
<polygon fill="#000000" stroke="#000000" points="1220.8296,-218.5001 1210.8296,-222 1220.8295,-225.5001 1220.8296,-218.5001"/>
</g>
<!-- AppGroupHorizontalComponent -->
<g id="node6" class="node">
<title>AppGroupHorizontalComponent</title>
<polygon fill="#ffffb3" stroke="#000000" points="1375.5744,-187 1174.4256,-187 1174.4256,-151 1375.5744,-151 1375.5744,-187"/>
<text text-anchor="middle" x="1275" y="-164.8" font-family="Times,serif" font-size="14.00" fill="#000000">AppGroupHorizontalComponent</text>
</g>
<!-- AppGroupHorizontalComponent&#45;&gt;AppModule -->
<g id="edge7" class="edge">
<title>AppGroupHorizontalComponent&#45;&gt;AppModule</title>
<path fill="none" stroke="#000000" d="M1192.6455,-187.1061C1192.6455,-187.1061 1192.6455,-205.991 1192.6455,-205.991"/>
<polygon fill="#000000" stroke="#000000" points="1189.1456,-205.9909 1192.6455,-215.991 1196.1456,-205.991 1189.1456,-205.9909"/>
</g>
<!-- AppGroupVerticalComponent -->
<g id="node7" class="node">
<title>AppGroupVerticalComponent</title>
<polygon fill="#ffffb3" stroke="#000000" points="1156.2892,-187 969.7108,-187 969.7108,-151 1156.2892,-151 1156.2892,-187"/>
<text text-anchor="middle" x="1063" y="-164.8" font-family="Times,serif" font-size="14.00" fill="#000000">AppGroupVerticalComponent</text>
</g>
<!-- AppGroupVerticalComponent&#45;&gt;AppModule -->
<g id="edge8" class="edge">
<title>AppGroupVerticalComponent&#45;&gt;AppModule</title>
<path fill="none" stroke="#000000" d="M1141.6582,-187.1061C1141.6582,-187.1061 1141.6582,-205.991 1141.6582,-205.991"/>
<polygon fill="#000000" stroke="#000000" points="1138.1582,-205.9909 1141.6582,-215.991 1145.1582,-205.991 1138.1582,-205.9909"/>
</g>
<!-- DisplayAppMiniComponent -->
<g id="node8" class="node">
<title>DisplayAppMiniComponent</title>
<polygon fill="#ffffb3" stroke="#000000" points="952.2119,-187 775.7881,-187 775.7881,-151 952.2119,-151 952.2119,-187"/>
<text text-anchor="middle" x="864" y="-164.8" font-family="Times,serif" font-size="14.00" fill="#000000">DisplayAppMiniComponent</text>
</g>
<!-- DisplayAppMiniComponent&#45;&gt;AppModule -->
<g id="edge9" class="edge">
<title>DisplayAppMiniComponent&#45;&gt;AppModule</title>
<path fill="none" stroke="#000000" d="M864,-187.2396C864,-202.5706 864,-222 864,-222 864,-222 1117.2306,-222 1117.2306,-222"/>
<polygon fill="#000000" stroke="#000000" points="1117.2306,-225.5001 1127.2306,-222 1117.2305,-218.5001 1117.2306,-225.5001"/>
</g>
<!-- DisplayAppFeaturedComponent -->
<g id="node9" class="node">
<title>DisplayAppFeaturedComponent</title>
<polygon fill="#ffffb3" stroke="#000000" points="757.9636,-187 560.0364,-187 560.0364,-151 757.9636,-151 757.9636,-187"/>
<text text-anchor="middle" x="659" y="-164.8" font-family="Times,serif" font-size="14.00" fill="#000000">DisplayAppFeaturedComponent</text>
</g>
<!-- DisplayAppFeaturedComponent&#45;&gt;AppModule -->
<g id="edge10" class="edge">
<title>DisplayAppFeaturedComponent&#45;&gt;AppModule</title>
<path fill="none" stroke="#000000" d="M659,-187.0336C659,-204.0597 659,-227 659,-227 659,-227 1117.2646,-227 1117.2646,-227"/>
<polygon fill="#000000" stroke="#000000" points="1117.2646,-230.5001 1127.2646,-227 1117.2645,-223.5001 1117.2646,-230.5001"/>
</g>
<!-- AppComponent  -->
<g id="node16" class="node">
<title>AppComponent </title>
<polygon fill="#80b1d3" stroke="#000000" points="1223.439,-317 1114.561,-317 1114.561,-281 1223.439,-281 1223.439,-317"/>
<text text-anchor="middle" x="1169" y="-294.8" font-family="Times,serif" font-size="14.00" fill="#000000">AppComponent </text>
</g>
<!-- AppModule&#45;&gt;AppComponent  -->
<g id="edge15" class="edge">
<title>AppModule&#45;&gt;AppComponent </title>
<path fill="none" stroke="#000000" stroke-dasharray="1,5" d="M1169,-252.1061C1169,-252.1061 1169,-270.991 1169,-270.991"/>
<polygon fill="#000000" stroke="#000000" points="1165.5001,-270.9909 1169,-280.991 1172.5001,-270.991 1165.5001,-270.9909"/>
</g>
<!-- ApiConnectionService -->
<g id="node11" class="node">
<title>ApiConnectionService</title>
<ellipse fill="#fdb462" stroke="#000000" cx="2133" cy="-104" rx="98.9974" ry="18"/>
<text text-anchor="middle" x="2133" y="-99.8" font-family="Times,serif" font-size="14.00" fill="#000000">ApiConnectionService</text>
</g>
<!-- ApiConnectionService&#45;&gt;AppComponent -->
<g id="edge2" class="edge">
<title>ApiConnectionService&#45;&gt;AppComponent</title>
<path fill="none" stroke="#000000" d="M2167,-121.078C2167,-121.078 2167,-140.8993 2167,-140.8993"/>
<polygon fill="#000000" stroke="#000000" points="2163.5001,-140.8992 2167,-150.8993 2170.5001,-140.8993 2163.5001,-140.8992"/>
</g>
<!-- ApiConnectionService&#45;&gt;AppModule -->
<g id="edge16" class="edge">
<title>ApiConnectionService&#45;&gt;AppModule</title>
<path fill="none" stroke="#000000" d="M2033.9872,-104C1787.354,-104 1165.3036,-104 1165.3036,-104 1165.3036,-104 1165.3036,-205.9241 1165.3036,-205.9241"/>
<polygon fill="#000000" stroke="#000000" points="1161.8037,-205.924 1165.3036,-215.9241 1168.8037,-205.9241 1161.8037,-205.924"/>
</g>
<!-- BrowserModule -->
<g id="node12" class="node">
<title>BrowserModule</title>
<polygon fill="#8dd3c7" stroke="#000000" points="536.4734,-187 533.4734,-191 512.4734,-191 509.4734,-187 429.5266,-187 429.5266,-151 536.4734,-151 536.4734,-187"/>
<text text-anchor="middle" x="483" y="-164.8" font-family="Times,serif" font-size="14.00" fill="#000000">BrowserModule</text>
</g>
<!-- BrowserModule&#45;&gt;AppModule -->
<g id="edge11" class="edge">
<title>BrowserModule&#45;&gt;AppModule</title>
<path fill="none" stroke="#000000" d="M483,-187.2222C483,-205.8285 483,-232 483,-232 483,-232 1117.1203,-232 1117.1203,-232"/>
<polygon fill="#000000" stroke="#000000" points="1117.1203,-235.5001 1127.1203,-232 1117.1202,-228.5001 1117.1203,-235.5001"/>
</g>
<!-- FormsModule -->
<g id="node13" class="node">
<title>FormsModule</title>
<polygon fill="#8dd3c7" stroke="#000000" points="411.8288,-187 408.8288,-191 387.8288,-191 384.8288,-187 316.1712,-187 316.1712,-151 411.8288,-151 411.8288,-187"/>
<text text-anchor="middle" x="364" y="-164.8" font-family="Times,serif" font-size="14.00" fill="#000000">FormsModule</text>
</g>
<!-- FormsModule&#45;&gt;AppModule -->
<g id="edge12" class="edge">
<title>FormsModule&#45;&gt;AppModule</title>
<path fill="none" stroke="#000000" d="M364,-187.2228C364,-207.3652 364,-237 364,-237 364,-237 1117.1344,-237 1117.1344,-237"/>
<polygon fill="#000000" stroke="#000000" points="1117.1344,-240.5001 1127.1344,-237 1117.1344,-233.5001 1117.1344,-240.5001"/>
</g>
<!-- HttpModule -->
<g id="node14" class="node">
<title>HttpModule</title>
<polygon fill="#8dd3c7" stroke="#000000" points="298.4387,-187 295.4387,-191 274.4387,-191 271.4387,-187 213.5613,-187 213.5613,-151 298.4387,-151 298.4387,-187"/>
<text text-anchor="middle" x="256" y="-164.8" font-family="Times,serif" font-size="14.00" fill="#000000">HttpModule</text>
</g>
<!-- HttpModule&#45;&gt;AppModule -->
<g id="edge13" class="edge">
<title>HttpModule&#45;&gt;AppModule</title>
<path fill="none" stroke="#000000" d="M256,-187.0449C256,-208.6623 256,-242 256,-242 256,-242 1117.097,-242 1117.097,-242"/>
<polygon fill="#000000" stroke="#000000" points="1117.097,-245.5001 1127.097,-242 1117.097,-238.5001 1117.097,-245.5001"/>
</g>
<!-- BrowserAnimationsModule -->
<g id="node15" class="node">
<title>BrowserAnimationsModule</title>
<polygon fill="#8dd3c7" stroke="#000000" points="196.3019,-187 193.3019,-191 172.3019,-191 169.3019,-187 23.6981,-187 23.6981,-151 196.3019,-151 196.3019,-187"/>
<text text-anchor="middle" x="110" y="-164.8" font-family="Times,serif" font-size="14.00" fill="#000000">BrowserAnimationsModule</text>
</g>
<!-- BrowserAnimationsModule&#45;&gt;AppModule -->
<g id="edge14" class="edge">
<title>BrowserAnimationsModule&#45;&gt;AppModule</title>
<path fill="none" stroke="#000000" d="M110,-187.0908C110,-210.1328 110,-247 110,-247 110,-247 1117.1598,-247 1117.1598,-247"/>
<polygon fill="#000000" stroke="#000000" points="1117.1598,-250.5001 1127.1598,-247 1117.1597,-243.5001 1117.1598,-250.5001"/>
</g>
</g>
</svg>
