<?xml version="1.0" encoding="UTF-8" standalone="no"?>
<!DOCTYPE svg PUBLIC "-//W3C//DTD SVG 1.1//EN"
 "http://www.w3.org/Graphics/SVG/1.1/DTD/svg11.dtd">
<!-- Generated by graphviz version 2.40.1 (20161225.0304)
 -->
<!-- Title: dependencies Pages: 1 -->
<svg width="541pt" height="284pt"
 viewBox="0.00 0.00 541.00 284.00" xmlns="http://www.w3.org/2000/svg" xmlns:xlink="http://www.w3.org/1999/xlink">
<g id="graph0" class="graph" transform="scale(1 1) rotate(0) translate(4 280)">
<title>dependencies</title>
<polygon fill="#ffffff" stroke="transparent" points="-4,4 -4,-280 537,-280 537,4 -4,4"/>
<text text-anchor="start" x="245.5091" y="-42.4" font-family="sans-serif" font-weight="bold" font-size="14.00" fill="#000000">Legend</text>
<polygon fill="#ffffb3" stroke="transparent" points="32.5,-10 32.5,-30 52.5,-30 52.5,-10 32.5,-10"/>
<text text-anchor="start" x="56.129" y="-15.4" font-family="sans-serif" font-size="14.00" fill="#000000"> &#160;Declarations</text>
<polygon fill="#8dd3c7" stroke="transparent" points="145.5,-10 145.5,-30 165.5,-30 165.5,-10 145.5,-10"/>
<text text-anchor="start" x="169.2251" y="-15.4" font-family="sans-serif" font-size="14.00" fill="#000000"> &#160;Module</text>
<polygon fill="#80b1d3" stroke="transparent" points="231.5,-10 231.5,-30 251.5,-30 251.5,-10 231.5,-10"/>
<text text-anchor="start" x="255.2812" y="-15.4" font-family="sans-serif" font-size="14.00" fill="#000000"> &#160;Bootstrap</text>
<polygon fill="#fdb462" stroke="transparent" points="328.5,-10 328.5,-30 348.5,-30 348.5,-10 328.5,-10"/>
<text text-anchor="start" x="352.1732" y="-15.4" font-family="sans-serif" font-size="14.00" fill="#000000"> &#160;Providers</text>
<polygon fill="#fb8072" stroke="transparent" points="424.5,-10 424.5,-30 444.5,-30 444.5,-10 424.5,-10"/>
<text text-anchor="start" x="448.2258" y="-15.4" font-family="sans-serif" font-size="14.00" fill="#000000"> &#160;Exports</text>
<g id="clust1" class="cluster">
<title>cluster_FanMenuModule</title>
<polygon fill="none" stroke="#000000" stroke-dasharray="1,5" points="8,-70 8,-268 525,-268 525,-70 8,-70"/>
</g>
<g id="clust2" class="cluster">
<title>cluster_FanMenuModule_declarations</title>
<polygon fill="none" stroke="#000000" points="168,-78 168,-130 517,-130 517,-78 168,-78"/>
</g>
<g id="clust6" class="cluster">
<title>cluster_FanMenuModule_exports</title>
<polygon fill="none" stroke="#000000" points="155,-208 155,-260 343,-260 343,-208 155,-208"/>
</g>
<g id="clust8" class="cluster">
<title>cluster_FanMenuModule_providers</title>
<polygon fill="none" stroke="#000000" points="16,-78 16,-130 160,-130 160,-78 16,-78"/>
</g>
<!-- MenuContainerComponent -->
<g id="node1" class="node">
<title>MenuContainerComponent</title>
<polygon fill="#ffffb3" stroke="#000000" points="508.6993,-122 339.3007,-122 339.3007,-86 508.6993,-86 508.6993,-122"/>
<text text-anchor="middle" x="424" y="-99.8" font-family="Times,serif" font-size="14.00" fill="#000000">MenuContainerComponent</text>
</g>
<!-- FanMenuModule -->
<g id="node3" class="node">
<title>FanMenuModule</title>
<polygon fill="#8dd3c7" stroke="#000000" points="305.7064,-187 302.7064,-191 281.7064,-191 278.7064,-187 192.2936,-187 192.2936,-151 305.7064,-151 305.7064,-187"/>
<text text-anchor="middle" x="249" y="-164.8" font-family="Times,serif" font-size="14.00" fill="#000000">FanMenuModule</text>
</g>
<!-- MenuContainerComponent&#45;&gt;FanMenuModule -->
<g id="edge1" class="edge">
<title>MenuContainerComponent&#45;&gt;FanMenuModule</title>
<path fill="none" stroke="#000000" d="M424,-122.1061C424,-141.3391 424,-169 424,-169 424,-169 315.8175,-169 315.8175,-169"/>
<polygon fill="#000000" stroke="#000000" points="315.8175,-165.5001 305.8175,-169 315.8175,-172.5001 315.8175,-165.5001"/>
</g>
<!-- MenuWingComponent -->
<g id="node2" class="node">
<title>MenuWingComponent</title>
<polygon fill="#ffffb3" stroke="#000000" points="321.5968,-122 176.4032,-122 176.4032,-86 321.5968,-86 321.5968,-122"/>
<text text-anchor="middle" x="249" y="-99.8" font-family="Times,serif" font-size="14.00" fill="#000000">MenuWingComponent</text>
</g>
<!-- MenuWingComponent&#45;&gt;FanMenuModule -->
<g id="edge2" class="edge">
<title>MenuWingComponent&#45;&gt;FanMenuModule</title>
<path fill="none" stroke="#000000" d="M249,-122.1061C249,-122.1061 249,-140.991 249,-140.991"/>
<polygon fill="#000000" stroke="#000000" points="245.5001,-140.9909 249,-150.991 252.5001,-140.991 245.5001,-140.9909"/>
</g>
<!-- MenuContainerComponent  -->
<g id="node4" class="node">
<title>MenuContainerComponent </title>
<polygon fill="#fb8072" stroke="#000000" points="335.1995,-252 162.8005,-252 162.8005,-216 335.1995,-216 335.1995,-252"/>
<text text-anchor="middle" x="249" y="-229.8" font-family="Times,serif" font-size="14.00" fill="#000000">MenuContainerComponent </text>
</g>
<!-- FanMenuModule&#45;&gt;MenuContainerComponent  -->
<g id="edge3" class="edge">
<title>FanMenuModule&#45;&gt;MenuContainerComponent </title>
<path fill="none" stroke="#000000" stroke-dasharray="5,2" d="M249,-187.1061C249,-187.1061 249,-205.991 249,-205.991"/>
<polygon fill="#000000" stroke="#000000" points="245.5001,-205.9909 249,-215.991 252.5001,-205.991 245.5001,-205.9909"/>
</g>
<!-- MenuOptions -->
<g id="node5" class="node">
<title>MenuOptions</title>
<ellipse fill="#fdb462" stroke="#000000" cx="88" cy="-104" rx="64.2881" ry="18"/>
<text text-anchor="middle" x="88" y="-99.8" font-family="Times,serif" font-size="14.00" fill="#000000">MenuOptions</text>
</g>
<!-- MenuOptions&#45;&gt;FanMenuModule -->
<g id="edge4" class="edge">
<title>MenuOptions&#45;&gt;FanMenuModule</title>
<path fill="none" stroke="#000000" d="M88,-122.1061C88,-141.3391 88,-169 88,-169 88,-169 182.2374,-169 182.2374,-169"/>
<polygon fill="#000000" stroke="#000000" points="182.2375,-172.5001 192.2374,-169 182.2374,-165.5001 182.2375,-172.5001"/>
</g>
</g>
</svg>
